<svg width="1080" height="1080" viewBox="0 0 1080 1080" fill="none" xmlns="http://www.w3.org/2000/svg">
<rect width="1080" height="1080" fill="#003ECB"/>
<path fill-rule="evenodd" clip-rule="evenodd" d="M70.5638 325.684C68.7084 327.608 66.1042 328.804 63.2207 328.804C57.5863 328.804 53.0187 324.236 53.0187 318.602C53.0187 312.968 57.5863 308.4 63.2207 308.4C65.9716 308.4 68.4683 309.489 70.3031 311.259L74.8291 306.733C71.8356 303.805 67.7389 302 63.2207 302C54.0516 302 46.6187 309.433 46.6187 318.602C46.6187 327.771 54.0516 335.204 63.2207 335.204C67.8715 335.204 72.0757 333.292 75.0898 330.21L70.5638 325.684Z" fill="white"/>
<path fill-rule="evenodd" clip-rule="evenodd" d="M94.3496 328.804C99.984 328.804 104.552 324.236 104.552 318.602C104.552 312.968 99.984 308.4 94.3496 308.4C88.7152 308.4 84.1476 312.968 84.1476 318.602C84.1476 324.236 88.7152 328.804 94.3496 328.804ZM94.3496 335.204C103.519 335.204 110.952 327.771 110.952 318.602C110.952 309.433 103.519 302 94.3496 302C85.1805 302 77.7476 309.433 77.7476 318.602C77.7476 327.771 85.1805 335.204 94.3496 335.204Z" fill="white"/>
<path fill-rule="evenodd" clip-rule="evenodd" d="M89.3589 347.475C92.2618 350.352 93.8978 354.261 93.8978 358.342C93.8978 362.423 92.2618 366.331 89.3589 369.209C86.457 372.085 82.5272 373.695 78.4355 373.695H67.8651L67.8651 342.988H78.4355C82.5272 342.988 86.457 344.599 89.3589 347.475ZM87.4978 358.342C87.4978 355.976 86.55 353.702 84.8536 352.021C83.1563 350.338 80.8481 349.388 78.4355 349.388H74.2651V367.295H78.4355C80.8481 367.295 83.1563 366.345 84.8536 364.663C86.55 362.982 87.4978 360.707 87.4978 358.342Z" fill="white"/>
<path fill-rule="evenodd" clip-rule="evenodd" d="M125.488 334.129L112.867 305.147L118.735 302.592L128.422 324.837L138.109 302.592L143.977 305.147L131.356 334.129H125.488Z" fill="white"/>
<path fill-rule="evenodd" clip-rule="evenodd" d="M43.7998 342.988H60.6279V349.388H55.4138V367.295H60.6279V373.695H43.7998V367.295H49.0138V349.388H43.7998V342.988Z" fill="white"/>
<path fill-rule="evenodd" clip-rule="evenodd" d="M110.082 342.988H121.696V367.295H126.91V373.695H110.082V367.295H115.296V349.388H110.082V342.988Z" fill="white"/>
<path fill-rule="evenodd" clip-rule="evenodd" d="M96.8257 354.477H107.431V360.877H96.8257V354.477Z" fill="white"/>
<path fill-rule="evenodd" clip-rule="evenodd" d="M148.067 356.126C148.066 356.127 148.065 356.129 148.064 356.131L137.796 374.984L132.175 371.923L137.908 361.397C136.582 361.224 135.262 360.775 134.023 360.023C129.145 357.063 127.585 350.646 130.312 345.682C133.086 340.632 139.375 338.769 144.353 341.79C149.23 344.748 150.79 351.162 148.067 356.126ZM137.343 354.551C139.071 355.6 141.357 355.048 142.455 353.05C143.6 350.965 142.862 348.37 141.033 347.261C139.305 346.213 137.019 346.765 135.921 348.763C134.777 350.847 135.515 353.442 137.343 354.551Z" fill="white"/>
<path fill-rule="evenodd" clip-rule="evenodd" d="M106.07 178.627V171.8H83.9295V178.627H91.5865V184.987C91.4488 184.999 91.3113 185.013 91.174 185.027C83.6607 185.793 76.8073 188.791 71.2705 193.349C71.0706 193.514 70.8725 193.681 70.6761 193.849L66.198 189.371L71.6971 183.872L66.8699 179.045L51.0445 194.87L55.8717 199.697L61.3708 194.198L65.8489 198.676C65.6804 198.873 65.5138 199.071 65.3492 199.271C60.7904 204.808 57.7925 211.661 57.0265 219.174C57.0125 219.311 56.9992 219.449 56.9867 219.587H50.6265L50.6265 211.93H43.7998V234.07H50.6265L50.6265 226.413H56.9867C56.9992 226.551 57.0125 226.688 57.0265 226.826C57.7926 234.339 60.7906 241.193 65.3497 246.73C65.5141 246.929 65.6805 247.127 65.8489 247.324L61.3707 251.802L55.8716 246.303L51.0444 251.13L66.8698 266.955L71.697 262.128L66.1979 256.629L70.6761 252.151C70.8723 252.319 71.0703 252.486 71.2699 252.65C76.8068 257.209 83.6604 260.207 91.174 260.973C91.3112 260.987 91.4487 261.001 91.5865 261.013V267.373H83.9295V274.2H106.07V267.373H98.4131V261.013C98.5508 261.001 98.6883 260.987 98.8256 260.973C106.339 260.207 113.192 257.209 118.729 252.651C118.929 252.486 119.127 252.319 119.323 252.151L123.802 256.629L118.303 262.128L123.13 266.955L138.955 251.13L134.128 246.303L128.629 251.802L124.151 247.324C124.319 247.127 124.486 246.929 124.65 246.729C129.209 241.192 132.207 234.339 132.973 226.826C132.987 226.688 133 226.551 133.013 226.413H139.373V234.07H146.2V211.93L139.373 211.93V219.587H133.013C133 219.449 132.987 219.311 132.973 219.174C132.207 211.661 129.209 204.807 124.65 199.27C124.485 199.07 124.319 198.873 124.151 198.676L128.629 194.198L134.128 199.697L138.955 194.87L123.13 179.045L118.303 183.872L123.802 189.371L119.324 193.849C119.127 193.681 118.929 193.514 118.73 193.35C113.193 188.791 106.339 185.793 98.8256 185.027C98.6883 185.013 98.5508 184.999 98.4131 184.987V178.627H106.07ZM93.9814 192.308C85.9106 192.644 78.6471 196.029 73.3233 201.322C70.997 203.662 69.0393 206.375 67.5469 209.368C65.5005 213.471 64.3288 218.097 64.2813 223C64.286 223.489 64.302 223.976 64.3289 224.46C64.4356 226.378 64.7146 228.249 65.1505 230.058C66.5084 235.693 69.3886 240.721 73.3234 244.678C74.4903 245.838 75.7504 246.907 77.0919 247.872C82.1264 251.493 88.3058 253.654 94.9994 253.718C95.388 253.715 95.7748 253.704 96.1598 253.686C98.4788 253.579 100.73 253.22 102.888 252.637C108.186 251.205 112.916 248.417 116.677 244.677C122.193 239.13 125.636 231.477 125.718 223C125.664 217.392 124.139 212.146 121.517 207.631C121.222 207.123 120.913 206.625 120.59 206.136C119.446 204.4 118.134 202.788 116.677 201.323C111.435 196.111 104.314 192.749 96.393 192.325C95.9312 192.301 95.4668 192.286 94.9998 192.281C94.659 192.285 94.3195 192.294 93.9814 192.308ZM72.6648 213.542C69.5592 215.479 67.903 219.234 68.7657 222.956C68.7724 222.985 68.7793 223.014 68.7863 223.044C68.8031 223.113 68.8208 223.182 68.8394 223.251C69.2487 224.779 70.0373 226.104 71.0767 227.152C72.6132 228.701 74.6977 229.645 76.9156 229.744C77.791 229.783 78.6871 229.691 79.5785 229.452C82.447 228.683 84.6004 226.578 85.5479 223.985C85.7671 223.386 85.9218 222.76 86.0059 222.119C86.1511 221.012 86.0858 219.858 85.7788 218.713C85.4926 217.644 85.0209 216.675 84.4078 215.831C83.5608 214.664 82.4438 213.735 81.1725 213.11C79.3343 212.207 77.1734 211.941 75.0396 212.512C74.1793 212.743 73.3832 213.094 72.6648 213.542ZM87.564 209.803C87.3902 211.458 87.5113 213.173 87.9678 214.877C88.2471 215.919 88.6372 216.902 89.1219 217.817C89.7553 219.012 90.5504 220.09 91.4713 221.03C91.7839 221.349 92.1111 221.653 92.4514 221.94C95.4185 224.44 99.3821 225.672 103.413 225.1C103.969 225.021 104.527 224.907 105.083 224.758C111.803 222.958 116.06 216.555 115.372 209.849C115.297 209.116 115.162 208.378 114.965 207.643C114.653 206.477 114.202 205.386 113.635 204.382C113.631 204.374 113.627 204.367 113.623 204.36C110.559 198.954 104.131 196.078 97.8495 197.761C96.9748 197.995 96.1419 198.308 95.3562 198.689C90.9753 200.812 88.0616 205.065 87.564 209.803ZM100.904 231.632C98.5646 228.714 94.8537 227.088 91.0178 227.475C90.5073 227.527 89.9946 227.614 89.4827 227.738C89.3967 227.759 89.3107 227.781 89.2248 227.804C85.2573 228.867 82.3576 231.926 81.3165 235.612C80.7849 237.493 80.7379 239.538 81.2807 241.564C81.4573 242.223 81.689 242.853 81.9695 243.449C84.2281 248.253 89.6506 250.91 94.9589 249.53C94.986 249.522 95.0131 249.515 95.0402 249.508C96.931 249.001 98.5793 248.041 99.8995 246.776C102.764 244.032 104.084 239.851 102.984 235.748C102.569 234.197 101.848 232.81 100.904 231.632ZM103.427 218.576C107.468 217.494 109.866 213.34 108.783 209.299C107.7 205.258 103.547 202.86 99.5059 203.943C95.465 205.026 93.067 209.179 94.1497 213.22C95.2325 217.261 99.386 219.659 103.427 218.576ZM93.3838 243.326C95.9629 242.635 97.4935 239.984 96.8024 237.405C96.1113 234.826 93.4603 233.295 90.8812 233.986C88.3021 234.677 86.7715 237.328 87.4626 239.908C88.1537 242.487 90.8047 244.017 93.3838 243.326ZM75.0213 221.595C75.3599 222.859 76.6586 223.608 77.9221 223.27C79.1856 222.931 79.9354 221.632 79.5969 220.369C79.2583 219.105 77.9596 218.356 76.6961 218.694C75.4326 219.033 74.6827 220.331 75.0213 221.595Z" fill="white"/>
<path d="M41.28 468.8C39.984 472.616 37.824 476.72 35.088 479.456C36.672 480.392 39.336 482.408 40.632 483.488C43.44 480.32 46.176 475.208 47.904 470.456L41.28 468.8ZM58.344 438.128C57.624 440.792 56.328 444.464 55.248 447.056H46.752L50.208 446.12C49.92 443.96 48.984 440.576 47.76 438.128H58.344ZM69.216 466.856V459.656H57.336V454.112H70.368V447.056H62.88C63.96 444.824 64.968 442.016 66.12 439.28L60.216 438.128H69.288V431.144H57.912C57.12 428.768 55.896 425.96 54.816 423.656L47.184 425.456C47.904 427.184 48.696 429.2 49.344 431.144H37.032V438.128H46.752L40.848 439.568C41.856 441.8 42.648 444.824 43.008 447.056H35.952V454.112H49.632V459.656H36.384V466.856H49.632V482.048C49.632 482.84 49.416 483.056 48.624 483.056C47.832 483.056 45.6 483.056 43.44 482.984C44.448 485 45.456 487.952 45.744 489.968C49.56 489.968 52.44 489.896 54.6 488.744C56.76 487.52 57.336 485.72 57.336 482.264V466.856H69.216ZM102.48 447.704H80.376V436.4C87.432 435.104 94.848 433.304 100.824 431L94.2 424.736C89.016 427.184 80.304 429.416 72.384 430.856V456.128C72.384 463.04 72.168 471.176 69.936 478.232C68.712 475.568 66.336 471.32 64.176 468.08L58.56 471.176C60.576 474.488 63.024 479.024 64.176 481.976L69.864 478.376C69.144 480.896 68.064 483.272 66.696 485.288C68.496 486.224 71.88 488.888 73.248 490.4C79.44 481.4 80.376 466.712 80.376 456.128V455.624H87.432V490.976H95.784V455.624H102.48V447.704ZM170.952 424.808H162.816V455.408C162.816 456.344 162.456 456.56 161.448 456.632C160.368 456.704 156.912 456.704 153.672 456.56C154.68 458.648 155.832 461.888 156.192 464.12C161.232 464.12 164.904 463.904 167.496 462.752C170.232 461.528 170.952 459.512 170.952 455.552V424.808ZM157.56 428.12H149.712V452.456H157.56V428.12ZM125.88 441.584V434.024H131.928V441.584H125.88ZM146.112 481.04V475.28H166.92V467.504H146.112V461.744H139.92V449.144H146.688V441.584H139.92V434.024H145.032V426.536H112.344V434.024H118.032V441.584H109.896V449.144H117.168C116.088 452.744 113.712 456.2 108.384 458.936C109.896 460.088 112.92 463.328 114 464.912C121.128 460.952 124.152 455.048 125.304 449.144H131.928V462.968H137.328V467.504H116.448V475.28H137.328V481.04H109.176V488.96H174.048V481.04H146.112ZM187.008 448.712H212.64V440.864H192.048V435.032H236.544V439.496H231.432V446.408H215.088V454.112H231.432V471.032C231.432 471.896 231.144 472.184 230.208 472.184C229.272 472.184 226.248 472.184 223.296 472.112C224.376 474.2 225.6 477.368 225.888 479.456C230.496 479.528 233.808 479.384 236.256 478.16C238.848 476.936 239.496 474.92 239.496 471.176V454.112H246.912V446.408H239.496V441.152H245.4V427.112H183.624V441.152H187.008V448.712ZM216.312 458.792C218.688 462.176 220.992 466.928 221.784 470.096L228.768 466.928C227.832 463.832 225.456 459.368 222.936 456.056L216.312 458.792ZM216.744 482.696C210.84 482.696 209.832 482.192 209.832 479.456V462.896H215.376V454.976H181.896V462.896H188.664V465.704C188.664 471.608 187.656 479.384 180.168 485.144C181.752 486.224 184.992 489.464 186 491.048C194.64 484.208 196.584 473.768 196.584 465.92V462.896H201.84V479.528C201.84 487.808 205.08 490.112 216.384 490.112H235.176C244.896 490.112 247.416 487.304 248.712 476.288C246.408 475.856 243.024 474.632 241.152 473.408C240.504 481.4 239.712 482.696 234.744 482.696H216.744ZM318.624 437.84C317.04 434.456 313.44 429.344 310.56 425.6L304.152 429.128C306.888 433.232 310.272 438.56 311.64 441.944L318.624 437.84ZM319.776 452.456V443.96H300.768V442.448V424.16H292.272V442.448V443.96H277.656V452.456H291.768C290.616 462.968 286.944 474.776 275.856 484.784V423.944H267.36V443.672C265.488 440.36 262.824 436.256 260.52 433.16L253.824 437.048C256.704 441.368 260.232 447.344 261.6 451.016L267.36 447.488V457.712C262.176 462.176 256.848 466.352 253.392 468.872L257.712 476.216C260.736 473.768 264.048 470.816 267.36 467.864V491.12H275.856V486.44C278.016 487.88 280.248 489.68 281.688 491.192C290.544 483.488 295.512 474.416 298.032 465.272C301.992 476.144 307.536 485.216 315.6 491.048C316.968 488.672 319.776 485.432 321.792 483.848C311.856 477.728 305.376 465.92 301.92 452.456H319.776ZM382.776 476.072C380.4 473.264 375.72 468.944 372.12 465.92C372.264 464.912 372.48 463.976 372.552 462.968H382.776V476.072ZM355.848 462.968H364.632C364.056 467.72 362.184 472.976 355.848 476.216V462.968ZM347.712 450.656H364.848V455.696H348.216V491.192H355.848V476.792C357.432 478.16 359.448 480.536 360.456 482.048C364.92 479.528 367.872 476.144 369.672 472.616C372.768 475.496 375.864 478.664 377.52 480.824L382.776 476.216V482.696C382.776 483.488 382.488 483.704 381.552 483.776C380.616 483.848 377.592 483.848 374.64 483.704C375.792 485.72 377.016 488.888 377.376 491.192C381.912 491.192 385.296 491.048 387.744 489.824C390.264 488.528 390.984 486.44 390.984 482.768V455.696H372.768V450.656H392.496V443.384H347.712V450.656ZM372.336 431.72C371.616 429.128 370.608 426.104 369.672 423.584L360.456 425.384C361.032 427.328 361.68 429.56 362.184 431.72H337.704V449.072C336.696 445.616 334.752 441.152 332.88 437.552L326.688 440.648C328.776 445.04 330.864 450.728 331.512 454.328L337.704 451.016V453.104C337.704 455.192 337.632 457.424 337.56 459.656C333.168 461.888 328.992 463.832 326.04 465.128L328.488 473.192C331.08 471.752 333.816 470.096 336.408 468.512C335.184 474.56 332.808 480.464 328.056 485.288C329.712 486.296 333.096 489.392 334.176 490.976C344.184 481.112 345.84 464.624 345.84 453.176V439.424H393.216V431.72H372.336ZM464.208 447.272H436.992V444.104H457.008V438.2H436.992V435.248H461.904V429.2H436.992V424.016H428.208V429.2H404.304V435.248H428.208V438.2H409.056V444.104H428.208V447.272H400.992V453.464H464.208V447.272ZM433.824 476.36L436.128 475.136C435.84 474.344 435.12 473.336 434.328 472.328H446.64C446.496 473.84 446.352 475.136 446.208 476.36H433.824ZM417.552 472.328H428.352L426.84 473.12C427.776 474.056 428.64 475.208 429.288 476.36H417.048L417.552 472.328ZM418.56 462.104H429L427.344 462.968C428.208 463.832 429.072 464.912 429.72 465.992H418.2L418.56 462.104ZM447.072 465.992H434.832L436.488 465.056C436.2 464.12 435.552 463.112 434.688 462.104H447.288L447.072 465.992ZM466.152 472.328V465.992H455.64C455.784 463.904 455.856 461.672 456 459.224C456.072 458.288 456.144 455.984 456.144 455.984H410.568C410.352 459.08 410.136 462.536 409.776 465.992H399.048V472.328H409.056C408.624 476.072 408.12 479.6 407.616 482.48H445.056C444.768 483.272 444.48 483.848 444.192 484.208C443.544 485 442.968 485.144 441.744 485.144C440.376 485.216 437.568 485.144 434.544 484.856C435.552 486.512 436.272 489.104 436.344 490.832C440.088 491.048 443.688 491.048 445.92 490.76C448.152 490.544 450.168 489.896 451.68 488.024C452.544 487.016 453.192 485.288 453.84 482.48H462.048V476.36H454.776C454.92 475.136 455.064 473.84 455.136 472.328H466.152ZM493.008 426.752L491.784 427.112H474.72V491.264H482.712V434.744H489.048C487.896 439.784 486.312 446.408 484.728 451.016C488.904 455.912 489.912 460.52 489.912 463.832C489.912 465.92 489.552 467.36 488.688 468.008C488.04 468.44 487.32 468.584 486.528 468.584C485.736 468.656 484.656 468.656 483.36 468.512C484.584 470.672 485.232 473.984 485.304 476.216C486.96 476.216 488.76 476.216 490.128 476C491.784 475.784 493.224 475.28 494.304 474.416C496.68 472.688 497.688 469.736 497.688 464.984C497.688 460.808 496.824 455.84 492.216 450.152C494.376 444.464 496.896 436.472 498.84 430.136L493.008 426.752ZM538.224 443.456V435.536H517.2L523.104 433.808C522.528 431.216 521.016 426.824 519.72 423.656L511.872 425.528C512.952 428.696 514.176 432.8 514.752 435.536H497.256V443.456H506.472C506.04 462.104 504.96 476.288 489.48 484.424C491.424 486.008 493.872 488.96 494.952 491.048C507.552 484.064 512.016 473.336 513.816 459.8H525.552C525.12 474.56 524.4 480.464 523.104 481.904C522.528 482.696 521.808 482.984 520.656 482.984C519.216 482.984 516.336 482.912 513.096 482.552C514.536 485 515.544 488.528 515.688 491.048C519.36 491.192 522.888 491.192 524.976 490.832C527.352 490.472 529.008 489.752 530.664 487.592C532.824 484.856 533.544 476.576 534.264 455.624C534.264 454.544 534.336 452.024 534.336 452.024H514.536C514.752 449.216 514.824 446.408 514.968 443.456H538.224ZM575.664 439.496H602.664V445.112H610.728V432.224H594.456C593.592 429.704 592.152 426.32 590.856 423.728L582.648 425.6C583.512 427.616 584.52 429.992 585.24 432.224H567.96V445.4H575.664V439.496ZM590.352 447.272C594.96 450.944 601.296 456.2 604.248 459.368L609.648 453.68C606.336 450.656 599.784 445.688 595.464 442.232L590.352 447.272ZM565.944 455.192L560.184 457.064V444.608H566.232V436.76H560.184V423.944H552.336V436.76H545.064V444.608H552.336V459.656C549.24 460.664 546.432 461.528 544.128 462.176L545.784 470.384L552.336 468.08V481.04C552.336 481.976 552.048 482.264 551.112 482.264C550.248 482.336 547.8 482.336 545.208 482.264C546.216 484.496 547.224 488.024 547.44 490.112C551.976 490.184 555.144 489.896 557.304 488.456C559.536 487.16 560.184 485.072 560.184 481.112V465.272C562.56 464.408 565.008 463.472 567.312 462.68L565.944 455.192ZM593.016 481.472V467.144H606.552V459.656H573.432C578.616 456.128 584.376 450.512 588.192 445.328L580.92 442.592C577.824 446.624 572.712 450.656 568.032 453.32C569.256 454.76 571.488 457.856 572.568 459.656H571.128V467.144H584.448V481.472H565.584V488.96H611.808V481.472H593.016ZM642.408 454.328C639.96 454.976 637.44 455.624 634.92 456.272V445.472H642.264V437.552H634.92V424.088H626.496V437.552H617.568V445.472H626.496V458.288C622.824 459.152 619.368 459.944 616.488 460.52L618.504 468.728L626.496 466.64V482.048C626.496 483.056 626.136 483.344 625.128 483.416C624.192 483.416 621.312 483.416 618.504 483.272C619.512 485.504 620.664 488.96 620.88 491.12C625.92 491.12 629.376 490.904 631.752 489.608C634.2 488.24 634.92 486.224 634.92 481.976V464.48C637.8 463.688 640.608 462.896 643.416 462.104L642.408 454.328ZM672.36 465.488V469.88H654V465.488H672.36ZM654 481.328V476.576H672.36V481.328H654ZM645.864 491.264H654V488.168H672.36V490.976H680.856V458.432H645.864V491.264ZM659.472 446.624C655.296 446.624 654.576 446.264 654.576 443.528V440.504C663.144 438.776 672.72 436.328 680.064 433.376L673.728 427.184C668.976 429.416 661.776 431.72 654.576 433.52V424.088H646.008V443.6C646.008 451.88 648.6 454.328 658.608 454.328H672.576C680.784 454.328 683.304 451.592 684.384 441.44C682.008 441.008 678.408 439.64 676.608 438.344C676.104 445.472 675.528 446.624 671.928 446.624H659.472ZM755.304 437.984V429.992H728.232V424.52H718.872V429.992H691.656V437.984H718.872V443.384H694.392V491.048H703.032V451.232H716.712L710.16 453.176C711.456 455.48 712.968 458.504 713.688 460.736H707.424V467.432H719.232V472.112H705.984V478.952H719.232V489.176H727.296V478.952H741.048V472.112H727.296V467.432H739.464V460.736H733.272C734.64 458.576 736.08 455.984 737.592 453.32L730.392 451.304C729.456 454.112 727.584 458 726 460.592L726.504 460.736H715.632L721.104 458.936C720.312 456.704 718.656 453.608 717.072 451.232H743.784V482.408C743.784 483.56 743.424 483.92 742.128 483.92C740.976 483.992 736.512 483.992 732.984 483.776C734.064 485.792 735.36 488.888 735.792 491.048C741.552 491.048 745.8 490.976 748.68 489.824C751.632 488.6 752.64 486.656 752.64 482.48V443.384H728.232V437.984H755.304Z" fill="white"/>
<path d="M55 567.664C52.06 567.664 49.624 570.1 49.624 573.04C49.624 575.98 52.06 578.416 55 578.416C57.94 578.416 60.376 575.98 60.376 573.04C60.376 570.1 57.94 567.664 55 567.664ZM91.582 560.062C90.028 558.424 86.836 555.778 84.736 553.93L81.46 557.08C83.602 559.096 86.71 561.952 88.096 563.674L91.582 560.062ZM89.272 582.406V566.32H78.184V571.108H84.442V583.792C84.442 585.976 82.93 587.656 81.964 588.454C82.72 589.21 84.022 590.89 84.484 591.94C85.24 590.974 86.584 589.84 94.48 584.086C94.018 583.12 93.304 581.146 93.01 579.802L89.272 582.406ZM101.704 553.636C101.578 567.244 101.998 581.146 91.456 588.874C92.842 589.798 94.396 591.31 95.236 592.612C100.024 588.874 102.838 583.834 104.434 578.164C106.114 583.414 108.928 589.042 113.884 592.696C114.682 591.394 116.11 589.882 117.454 588.958C108.382 582.574 106.912 570.184 106.45 565.69C106.702 561.742 106.744 557.668 106.786 553.636H101.704ZM151.642 571.234H141.898V560.86H151.642V571.234ZM156.892 556.114H136.9V576.022H156.892V556.114ZM132.406 560.398C130.936 558.592 127.87 555.946 125.56 554.056L122.368 557.122C124.594 559.138 127.618 561.994 128.962 563.842L132.406 560.398ZM130.39 581.692V566.32H120.604V571.108H125.518V583.204C125.518 585.766 123.964 587.782 122.956 588.706C123.754 589.378 125.392 590.974 125.938 591.94C126.736 590.89 128.122 589.714 136.06 582.952C135.43 581.986 134.506 580.012 134.086 578.584L130.39 581.692ZM139.504 579.424C138.328 583.372 136.186 587.278 133.456 589.756C134.716 590.386 136.9 591.814 137.866 592.612C140.638 589.756 143.158 585.22 144.67 580.558L139.504 579.424ZM148.954 580.852C151.138 584.548 153.406 589.42 154.204 592.444L159.244 590.512C158.362 587.446 155.884 582.742 153.574 579.214L148.954 580.852ZM176.026 579.55C175.27 581.776 174.01 584.17 172.414 585.766C173.338 586.312 174.892 587.488 175.648 588.118C177.286 586.27 178.882 583.288 179.89 580.516L176.026 579.55ZM185.98 561.658C185.56 563.212 184.804 565.354 184.174 566.866H179.218L181.234 566.32C181.066 565.06 180.52 563.086 179.806 561.658H185.98ZM192.322 578.416V574.216H185.392V570.982H192.994V566.866H188.626C189.256 565.564 189.844 563.926 190.516 562.33L187.072 561.658H192.364V557.584H185.728C185.266 556.198 184.552 554.56 183.922 553.216L179.47 554.266C179.89 555.274 180.352 556.45 180.73 557.584H173.548V561.658H179.218L175.774 562.498C176.362 563.8 176.824 565.564 177.034 566.866H172.918V570.982H180.898V574.216H173.17V578.416H180.898V587.278C180.898 587.74 180.772 587.866 180.31 587.866C179.848 587.866 178.546 587.866 177.286 587.824C177.874 589 178.462 590.722 178.63 591.898C180.856 591.898 182.536 591.856 183.796 591.184C185.056 590.47 185.392 589.42 185.392 587.404V578.416H192.322ZM211.726 567.244H198.832V560.65C202.948 559.894 207.274 558.844 210.76 557.5L206.896 553.846C203.872 555.274 198.79 556.576 194.17 557.416V572.158C194.17 576.19 194.044 580.936 192.742 585.052C192.028 583.498 190.642 581.02 189.382 579.13L186.106 580.936C187.282 582.868 188.71 585.514 189.382 587.236L192.7 585.136C192.28 586.606 191.65 587.992 190.852 589.168C191.902 589.714 193.876 591.268 194.674 592.15C198.286 586.9 198.832 578.332 198.832 572.158V571.864H202.948V592.486H207.82V571.864H211.726V567.244ZM251.668 553.888H246.922V571.738C246.922 572.284 246.712 572.41 246.124 572.452C245.494 572.494 243.478 572.494 241.588 572.41C242.176 573.628 242.848 575.518 243.058 576.82C245.998 576.82 248.14 576.694 249.652 576.022C251.248 575.308 251.668 574.132 251.668 571.822V553.888ZM243.856 555.82H239.278V570.016H243.856V555.82ZM225.376 563.674V559.264H228.904V563.674H225.376ZM237.178 586.69V583.33H249.316V578.794H237.178V575.434H233.566V568.084H237.514V563.674H233.566V559.264H236.548V554.896H217.48V559.264H220.798V563.674H216.052V568.084H220.294C219.664 570.184 218.278 572.2 215.17 573.796C216.052 574.468 217.816 576.358 218.446 577.282C222.604 574.972 224.368 571.528 225.04 568.084H228.904V576.148H232.054V578.794H219.874V583.33H232.054V586.69H215.632V591.31H253.474V586.69H237.178ZM261.034 567.832H275.986V563.254H263.974V559.852H289.93V562.456H286.948V566.488H277.414V570.982H286.948V580.852C286.948 581.356 286.78 581.524 286.234 581.524C285.688 581.524 283.924 581.524 282.202 581.482C282.832 582.7 283.546 584.548 283.714 585.766C286.402 585.808 288.334 585.724 289.762 585.01C291.274 584.296 291.652 583.12 291.652 580.936V570.982H295.978V566.488H291.652V563.422H295.096V555.232H259.06V563.422H261.034V567.832ZM278.128 573.712C279.514 575.686 280.858 578.458 281.32 580.306L285.394 578.458C284.848 576.652 283.462 574.048 281.992 572.116L278.128 573.712ZM278.38 587.656C274.936 587.656 274.348 587.362 274.348 585.766V576.106H277.582V571.486H258.052V576.106H262V577.744C262 581.188 261.412 585.724 257.044 589.084C257.968 589.714 259.858 591.604 260.446 592.528C265.486 588.538 266.62 582.448 266.62 577.87V576.106H269.686V585.808C269.686 590.638 271.576 591.982 278.17 591.982H289.132C294.802 591.982 296.272 590.344 297.028 583.918C295.684 583.666 293.71 582.952 292.618 582.238C292.24 586.9 291.778 587.656 288.88 587.656H278.38ZM337.81 561.49C336.886 559.516 334.786 556.534 333.106 554.35L329.368 556.408C330.964 558.802 332.938 561.91 333.736 563.884L337.81 561.49ZM338.482 570.016V565.06H327.394V564.178V553.51H322.438V564.178V565.06H313.912V570.016H322.144C321.472 576.148 319.33 583.036 312.862 588.874V553.384H307.906V564.892C306.814 562.96 305.26 560.566 303.916 558.76L300.01 561.028C301.69 563.548 303.748 567.034 304.546 569.176L307.906 567.118V573.082C304.882 575.686 301.774 578.122 299.758 579.592L302.278 583.876C304.042 582.448 305.974 580.726 307.906 579.004V592.57H312.862V589.84C314.122 590.68 315.424 591.73 316.264 592.612C321.43 588.118 324.328 582.826 325.798 577.492C328.108 583.834 331.342 589.126 336.046 592.528C336.844 591.142 338.482 589.252 339.658 588.328C333.862 584.758 330.082 577.87 328.066 570.016H338.482ZM375.232 583.792C373.846 582.154 371.116 579.634 369.016 577.87C369.1 577.282 369.226 576.736 369.268 576.148H375.232V583.792ZM359.524 576.148H364.648C364.312 578.92 363.22 581.986 359.524 583.876V576.148ZM354.778 568.966H364.774V571.906H355.072V592.612H359.524V584.212C360.448 585.01 361.624 586.396 362.212 587.278C364.816 585.808 366.538 583.834 367.588 581.776C369.394 583.456 371.2 585.304 372.166 586.564L375.232 583.876V587.656C375.232 588.118 375.064 588.244 374.518 588.286C373.972 588.328 372.208 588.328 370.486 588.244C371.158 589.42 371.872 591.268 372.082 592.612C374.728 592.612 376.702 592.528 378.13 591.814C379.6 591.058 380.02 589.84 380.02 587.698V571.906H369.394V568.966H380.902V564.724H354.778V568.966ZM369.142 557.92C368.722 556.408 368.134 554.644 367.588 553.174L362.212 554.224C362.548 555.358 362.926 556.66 363.22 557.92H348.94V568.042C348.352 566.026 347.218 563.422 346.126 561.322L342.514 563.128C343.732 565.69 344.95 569.008 345.328 571.108L348.94 569.176V570.394C348.94 571.612 348.898 572.914 348.856 574.216C346.294 575.518 343.858 576.652 342.136 577.408L343.564 582.112C345.076 581.272 346.672 580.306 348.184 579.382C347.47 582.91 346.084 586.354 343.312 589.168C344.278 589.756 346.252 591.562 346.882 592.486C352.72 586.732 353.686 577.114 353.686 570.436V562.414H381.322V557.92H369.142ZM422.734 566.992H406.858V565.144H418.534V561.7H406.858V559.978H421.39V556.45H406.858V553.426H401.734V556.45H387.79V559.978H401.734V561.7H390.562V565.144H401.734V566.992H385.858V570.604H422.734V566.992ZM405.01 583.96L406.354 583.246C406.186 582.784 405.766 582.196 405.304 581.608H412.486C412.402 582.49 412.318 583.246 412.234 583.96H405.01ZM395.518 581.608H401.818L400.936 582.07C401.482 582.616 401.986 583.288 402.364 583.96H395.224L395.518 581.608ZM396.106 575.644H402.196L401.23 576.148C401.734 576.652 402.238 577.282 402.616 577.912H395.896L396.106 575.644ZM412.738 577.912H405.598L406.564 577.366C406.396 576.82 406.018 576.232 405.514 575.644H412.864L412.738 577.912ZM423.868 581.608V577.912H417.736C417.82 576.694 417.862 575.392 417.946 573.964C417.988 573.418 418.03 572.074 418.03 572.074H391.444C391.318 573.88 391.192 575.896 390.982 577.912H384.724V581.608H390.562C390.31 583.792 390.016 585.85 389.722 587.53H411.562C411.394 587.992 411.226 588.328 411.058 588.538C410.68 589 410.344 589.084 409.63 589.084C408.832 589.126 407.194 589.084 405.43 588.916C406.018 589.882 406.438 591.394 406.48 592.402C408.664 592.528 410.764 592.528 412.066 592.36C413.368 592.234 414.544 591.856 415.426 590.764C415.93 590.176 416.308 589.168 416.686 587.53H421.474V583.96H417.232C417.316 583.246 417.4 582.49 417.442 581.608H423.868ZM452.157 589.588C456.189 589.588 459.507 587.992 462.069 585.01L458.793 581.146C457.113 582.952 455.055 584.212 452.367 584.212C447.453 584.212 444.261 580.138 444.261 573.376C444.261 566.698 447.789 562.666 452.493 562.666C454.845 562.666 456.651 563.758 458.247 565.27L461.481 561.322C459.465 559.222 456.315 557.332 452.367 557.332C444.513 557.332 437.919 563.338 437.919 573.586C437.919 583.96 444.303 589.588 452.157 589.588ZM478.204 589.588C486.436 589.588 492.106 583.414 492.106 573.334C492.106 563.254 486.436 557.332 478.204 557.332C469.972 557.332 464.302 563.212 464.302 573.334C464.302 583.414 469.972 589.588 478.204 589.588ZM478.204 584.212C473.584 584.212 470.644 579.97 470.644 573.334C470.644 566.656 473.584 562.666 478.204 562.666C482.824 562.666 485.764 566.656 485.764 573.334C485.764 579.97 482.824 584.212 478.204 584.212ZM503.564 589H510.998L520.49 557.878H514.19L510.158 573.04C509.192 576.484 508.52 579.592 507.512 583.078H507.302C506.336 579.592 505.664 576.484 504.698 573.04L500.582 557.878H494.072L503.564 589ZM524.487 589H530.703V557.878H524.487V589ZM538.77 589H547.632C556.788 589 562.668 583.792 562.668 573.334C562.668 562.834 556.788 557.878 547.296 557.878H538.77V589ZM544.986 584.002V562.876H546.918C552.714 562.876 556.326 565.732 556.326 573.334C556.326 580.894 552.714 584.002 546.918 584.002H544.986ZM567.409 579.172H578.875V574.762H567.409V579.172ZM584.76 589H603.45V584.002H597.612V557.878H593.034C591.06 559.138 588.918 559.936 585.81 560.524V564.346H591.438V584.002H584.76V589ZM613.818 567.706C613.818 563.884 615.708 561.994 618.018 561.994C620.664 561.994 622.806 564.094 623.352 569.722C621.924 572.116 619.95 573.082 618.228 573.082C615.54 573.082 613.818 571.36 613.818 567.706ZM617.178 589.588C623.352 589.588 629.106 584.506 629.106 572.746C629.106 561.952 623.814 557.332 617.934 557.332C612.6 557.332 608.148 561.322 608.148 567.706C608.148 574.3 611.886 577.492 617.052 577.492C619.152 577.492 621.798 576.232 623.436 574.132C623.142 581.902 620.286 584.548 616.8 584.548C614.952 584.548 613.062 583.582 611.928 582.322L608.652 586.06C610.5 587.95 613.314 589.588 617.178 589.588ZM55 628.664C52.06 628.664 49.624 631.1 49.624 634.04C49.624 636.98 52.06 639.416 55 639.416C57.94 639.416 60.376 636.98 60.376 634.04C60.376 631.1 57.94 628.664 55 628.664ZM106.618 641.39C105.274 643.154 103.51 644.582 101.452 645.758C99.436 644.582 97.798 643.196 96.622 641.39H106.618ZM88.936 623.288H116.866V618.71H104.14C103.636 617.324 102.838 615.56 102.124 614.132L97.126 615.35C97.588 616.358 98.134 617.576 98.554 618.71H84.064V626.816C83.266 625.22 82.3 623.54 81.502 622.112L77.554 623.834C78.814 626.186 80.41 629.42 81.04 631.394L84.064 630.008V631.436C84.064 632.486 84.064 633.578 84.022 634.712C81.544 636.014 79.192 637.232 77.512 637.988L78.94 642.608C80.452 641.726 81.964 640.76 83.518 639.752C82.93 643.742 81.67 647.774 78.898 650.924C80.074 651.512 82.174 652.94 83.056 653.822C87.466 648.698 88.642 640.76 88.894 634.334C89.65 635.048 90.7 636.266 91.288 637.232H90.91V641.39H93.136L91.876 641.726C93.178 644.12 94.816 646.136 96.748 647.732C94.06 648.614 91.12 649.202 87.886 649.538C88.726 650.63 89.65 652.436 90.028 653.696C94.186 653.066 98.008 652.1 101.368 650.672C104.644 652.184 108.676 653.15 113.506 653.654C114.136 652.31 115.354 650.336 116.278 649.286C112.54 649.034 109.222 648.572 106.408 647.732C109.474 645.464 111.868 642.398 113.338 638.324L110.398 637.022L109.516 637.232H93.01C97.252 635.3 98.344 632.276 98.428 629.252H105.022V630.26C105.022 634.502 105.946 636.224 110.314 636.224H113.002C113.968 636.224 115.018 636.182 115.69 635.888C115.522 634.67 115.396 632.78 115.27 631.436C114.724 631.688 113.59 631.73 112.876 631.73H110.608C110.02 631.73 109.936 631.352 109.936 630.302V625.01H93.85V628.706C93.85 630.806 93.304 632.528 88.894 633.956C88.936 633.116 88.936 632.318 88.936 631.52V623.288ZM123.292 634.88C124.174 631.646 124.846 626.648 124.93 623.162L121.402 622.7C121.192 626.102 120.562 630.806 119.68 633.662L123.292 634.88ZM139.252 643.952V642.02H151.81V643.952H139.252ZM151.81 636.518V638.492H139.252V636.518H151.81ZM156.514 632.864H134.632V653.696H139.252V647.396H151.81V648.782C151.81 649.286 151.6 649.454 151.012 649.454C150.466 649.454 148.492 649.496 146.77 649.37C147.358 650.588 147.946 652.394 148.114 653.612C151.012 653.612 153.112 653.612 154.582 652.898C156.094 652.226 156.514 651.05 156.514 648.866V632.864ZM147.904 627.698V625.892H156.934V622.532H147.904V620.852H158.068V617.282H147.904V614.426H142.948V617.282H133.12V620.852H142.948V622.532H134.254V625.85C133.75 624.296 132.784 621.944 131.902 620.138L129.508 621.146V614.426H125.014V653.612H129.508V623.078C130.18 624.716 130.768 626.48 131.062 627.698L134.338 626.102L134.254 625.892H142.948V627.698H131.818V631.268H159.328V627.698H147.904ZM175.078 616.022L174.364 616.232H164.41V653.654H169.072V620.684H172.768C172.096 623.624 171.172 627.488 170.248 630.176C172.684 633.032 173.272 635.72 173.272 637.652C173.272 638.87 173.062 639.71 172.558 640.088C172.18 640.34 171.76 640.424 171.298 640.424C170.836 640.466 170.206 640.466 169.45 640.382C170.164 641.642 170.542 643.574 170.584 644.876C171.55 644.876 172.6 644.876 173.398 644.75C174.364 644.624 175.204 644.33 175.834 643.826C177.22 642.818 177.808 641.096 177.808 638.324C177.808 635.888 177.304 632.99 174.616 629.672C175.876 626.354 177.346 621.692 178.48 617.996L175.078 616.022ZM201.454 625.766V621.146H189.19L192.634 620.138C192.298 618.626 191.416 616.064 190.66 614.216L186.082 615.308C186.712 617.156 187.426 619.55 187.762 621.146H177.556V625.766H182.932C182.68 636.644 182.05 644.918 173.02 649.664C174.154 650.588 175.582 652.31 176.212 653.528C183.562 649.454 186.166 643.196 187.216 635.3H194.062C193.81 643.91 193.39 647.354 192.634 648.194C192.298 648.656 191.878 648.824 191.206 648.824C190.366 648.824 188.686 648.782 186.796 648.572C187.636 650 188.224 652.058 188.308 653.528C190.45 653.612 192.508 653.612 193.726 653.402C195.112 653.192 196.078 652.772 197.044 651.512C198.304 649.916 198.724 645.086 199.144 632.864C199.144 632.234 199.186 630.764 199.186 630.764H187.636C187.762 629.126 187.804 627.488 187.888 625.766H201.454ZM218.38 619.13C216.616 617.87 212.92 616.022 210.442 614.93L207.712 618.542C210.232 619.844 213.802 621.86 215.482 623.204L218.38 619.13ZM215.818 630.47C213.97 629.252 210.316 627.446 207.838 626.354L205.15 630.092C207.754 631.394 211.324 633.368 213.004 634.628L215.818 630.47ZM210.274 653.192C212.836 649.118 215.482 644.288 217.666 639.92L214.012 636.56C211.534 641.432 208.3 646.64 206.074 649.79L210.274 653.192ZM243.958 631.478C242.362 628.034 238.918 623.036 235.6 619.256L231.316 621.398C232.786 623.12 234.256 625.136 235.6 627.152L223.798 627.782C226.318 624.296 228.88 620.054 230.854 615.812L225.646 614.342C223.63 619.592 220.354 624.968 219.22 626.312C218.128 627.782 217.33 628.664 216.406 628.916C216.952 630.218 217.708 632.57 218.002 633.578C219.682 632.906 222.034 632.738 238.246 631.604C238.666 632.486 239.086 633.284 239.38 634.04L243.958 631.478ZM235.768 640.76V647.354H223.966V640.76H235.768ZM219.094 653.696H223.966V651.932H235.768V653.528H240.85V636.14H219.094V653.696ZM260.842 632.486L257.272 633.326V627.026H260.884V622.406H257.272V614.468H252.526V622.406H247.822V627.026H252.526V634.46C250.552 634.922 248.788 635.342 247.276 635.678L248.578 640.424L252.526 639.416V648.026C252.526 648.614 252.316 648.824 251.728 648.824C251.182 648.824 249.46 648.824 247.78 648.782C248.368 650 248.998 651.974 249.166 653.192C252.106 653.192 254.122 653.066 255.466 652.31C256.852 651.554 257.272 650.42 257.272 648.026V638.156C258.7 637.778 260.086 637.358 261.472 636.98L260.842 632.486ZM279.364 638.534V641.306H269.62V638.534H279.364ZM269.62 648.11V645.254H279.364V648.11H269.62ZM264.79 653.654H269.62V652.1H279.364V653.612H284.404V634.418H264.79V653.654ZM271.846 623.666H276.466V627.614H271.846V623.666ZM281.338 627.614V623.666H285.79V619.298H281.338V614.468H276.466V619.298H271.846V614.468H267.058V619.298H262.774V623.666H267.058V627.614H261.766V632.108H286.714V627.614H281.338ZM316.45 649.37C314.35 649.37 314.014 649.118 314.014 647.354V637.358L316.45 636.224V646.01H320.608V634.292L323.254 633.032C323.212 637.022 323.212 639.29 323.128 639.71C323.086 640.256 322.876 640.34 322.582 640.34C322.246 640.34 321.658 640.34 321.154 640.298C321.616 641.222 321.952 642.776 322.078 643.952C323.128 643.952 324.514 643.91 325.522 643.448C326.656 642.986 327.202 642.104 327.286 640.592C327.412 639.29 327.412 635.048 327.454 629.084L327.622 628.412L324.556 627.32L323.758 627.866L323.548 628.034L320.608 629.42V625.304H316.45V631.352L314.014 632.444V628.328H310.906C311.788 627.11 312.586 625.766 313.342 624.254H328.588V619.718H315.274C315.778 618.29 316.198 616.862 316.576 615.35L311.788 614.384C310.864 618.332 309.31 622.196 307.168 625.052V620.81H299.524L302.338 620.012C301.918 618.5 301.078 616.106 300.28 614.342L295.828 615.392C296.5 617.072 297.214 619.214 297.592 620.81H290.242V625.43H294.274C294.148 635.174 293.77 644.372 289.612 650.126C290.872 650.924 292.384 652.436 293.182 653.612C296.668 648.782 298.012 642.02 298.6 634.46H301.834C301.666 644.12 301.414 647.564 300.868 648.446C300.532 648.95 300.238 649.076 299.692 649.076C299.104 649.076 297.928 649.034 296.626 648.908C297.298 650.126 297.76 651.974 297.844 653.36C299.566 653.402 301.12 653.402 302.17 653.192C303.304 652.94 304.102 652.562 304.858 651.386C305.95 649.916 306.16 645.044 306.412 631.856V629.924H298.852C298.894 628.412 298.936 626.942 298.978 625.43H306.874C306.454 625.976 305.992 626.48 305.53 626.942C306.622 627.698 308.428 629.504 309.184 630.386L309.604 629.924V634.502L306.328 636.014L308.092 640.13L309.604 639.416V647.396C309.604 652.184 310.948 653.528 315.988 653.528H323.38C327.496 653.528 328.798 651.932 329.386 646.682C328.126 646.388 326.32 645.674 325.312 644.96C325.06 648.656 324.766 649.37 323.002 649.37H316.45ZM55 689.664C52.06 689.664 49.624 692.1 49.624 695.04C49.624 697.98 52.06 700.416 55 700.416C57.94 700.416 60.376 697.98 60.376 695.04C60.376 692.1 57.94 689.664 55 689.664ZM86.29 697.812C89.188 694.41 92.002 690.462 94.354 686.556L90.574 684.12C89.818 685.548 88.936 687.018 88.054 688.446L83.938 688.782C86.374 685.38 88.684 681.264 90.364 677.358L85.912 675.258C84.316 680.172 81.418 685.422 80.452 686.724C79.486 688.11 78.772 689.034 77.932 689.244C78.436 690.504 79.192 692.73 79.444 693.654C80.116 693.318 81.166 693.066 85.282 692.604C83.728 694.662 82.384 696.3 81.754 697.014C80.326 698.484 79.36 699.45 78.31 699.702C78.814 700.878 79.528 702.936 79.738 703.86C80.872 703.23 82.594 702.726 93.514 700.626C93.472 699.66 93.514 697.812 93.682 696.594L86.29 697.812ZM92.842 704.49C87.55 705.75 82.048 706.968 78.394 707.682L79.276 712.428C83.35 711.378 88.474 710.034 93.388 708.606L92.842 704.49ZM101.116 703.062H108.592V709.404H101.116V703.062ZM108.592 682.02V688.068H101.116V682.02H108.592ZM101.116 692.52H108.592V698.652H101.116V692.52ZM113.548 709.404V677.484H96.37V709.404H92.674V713.898H116.908V709.404H113.548ZM151.684 693.234H141.898V682.86H151.684V693.234ZM156.892 678.114H136.9V698.022H156.892V678.114ZM128.626 698.022C131.482 694.704 134.212 690.84 136.438 686.976L132.448 684.456C131.692 685.968 130.768 687.522 129.886 688.95L126.106 689.244C128.542 685.884 130.936 681.684 132.658 677.694L127.87 675.51C126.358 680.382 123.418 685.674 122.494 686.976C121.612 688.362 120.856 689.244 119.932 689.496C120.52 690.798 121.318 693.15 121.57 694.158C122.242 693.864 123.25 693.57 127.114 693.108C125.686 695.124 124.426 696.678 123.754 697.35C122.368 698.862 121.486 699.786 120.394 700.038C120.898 701.214 121.654 703.44 121.906 704.322C122.998 703.692 124.762 703.23 135.472 701.13C135.388 700.122 135.43 698.148 135.598 696.846L128.626 698.022ZM135.052 704.952C129.676 706.17 124.006 707.388 120.31 708.06L121.234 712.974C125.308 711.966 130.642 710.622 135.556 709.278L135.052 704.952ZM139.504 701.382C138.412 705.33 136.312 709.236 133.624 711.714C134.884 712.386 137.11 713.772 138.076 714.612C140.806 711.756 143.368 707.178 144.796 702.516L139.504 701.382ZM148.954 702.81C151.138 706.506 153.448 711.378 154.246 714.402L159.244 712.512C158.404 709.404 155.884 704.7 153.616 701.172L148.954 702.81ZM171.928 681.852C172.936 683.406 173.944 685.17 174.364 686.388L178.606 684.834C178.27 684.036 177.598 682.944 176.884 681.852H182.05V678.408H172.012C172.39 677.61 172.684 676.812 172.978 676.056L168.064 675.132C166.972 678.618 164.956 682.23 162.562 684.498C163.738 685.002 165.88 686.094 166.888 686.724C168.064 685.422 169.24 683.742 170.332 681.852H171.928ZM192.298 707.514V709.866H174.574V707.514H192.298ZM190.198 696.174V698.358H174.574V696.174H190.198ZM174.574 701.928H195.07V692.604H169.492V714.696H174.574V713.562H192.298V714.696H197.296V703.86H174.574V701.928ZM178.984 684.75C179.404 685.422 179.782 686.304 180.076 687.102H164.452V694.452H169.282V690.84H195.196V694.452H200.32V687.102H185.116C184.696 686.052 184.066 684.792 183.436 683.826L178.984 684.75ZM189.988 678.45C190.324 677.652 190.618 676.812 190.87 676.014L186.04 675.132C185.242 678.114 183.772 681.054 181.84 683.028C182.974 683.532 185.032 684.54 185.956 685.212C186.796 684.33 187.594 683.154 188.35 681.852H189.988C191.29 683.406 192.592 685.254 193.054 686.514L197.254 684.624C196.834 683.868 196.12 682.86 195.322 681.852H201.16V678.45H189.988ZM218.758 701.55C217.414 702.012 216.028 702.432 214.642 702.852V694.452H218.422V689.874H214.642V682.482H219.136V677.82H205.276V682.482H209.896V689.874H205.654V694.452H209.896V704.322C207.964 704.868 206.242 705.33 204.772 705.708L205.906 710.79C209.938 709.488 214.978 707.892 219.598 706.254L218.758 701.55ZM225.226 688.866H229.552V692.478H225.226V688.866ZM225.226 681.432H229.552V684.96H225.226V681.432ZM237.91 684.96H233.752V681.432H237.91V684.96ZM237.91 692.478H233.752V688.866H237.91V692.478ZM234.214 708.816V704.826H243.118V700.332H234.214V696.72H242.656V677.19H220.732V696.72H229.132V700.332H220.438V704.826H229.132V708.816H217.54V713.352H244.546V708.816H234.214ZM248.2 712.722C252.442 711.882 257.902 710.916 263.11 709.866L262.774 705.456C257.23 706.38 251.392 707.346 247.444 707.85L248.2 712.722ZM276.844 706.884V697.224H280.666V706.884H276.844ZM268.444 697.224H272.224V706.884H268.444V697.224ZM272.224 682.44V692.604H268.444V682.44H272.224ZM280.666 692.604H276.844V682.44H280.666V692.604ZM263.866 677.4V687.606L260.128 685.044C259.498 686.136 258.826 687.186 258.112 688.236L253.786 688.53C256.264 685.212 258.742 681.18 260.59 677.274L255.718 675.258C253.912 680.088 250.846 685.17 249.796 686.472C248.83 687.858 248.074 688.74 247.108 688.95C247.696 690.252 248.536 692.646 248.746 693.654C249.46 693.318 250.594 693.066 254.92 692.562C253.24 694.662 251.728 696.258 250.972 696.972C249.544 698.358 248.578 699.156 247.486 699.408C248.032 700.626 248.746 702.894 248.998 703.818C250.132 703.188 251.896 702.768 262.942 700.962C262.774 699.954 262.69 698.064 262.732 696.762L256.012 697.686C258.826 694.83 261.598 691.554 263.866 688.236V713.814H268.444V711.504H280.666V713.478H285.454V677.4H263.866ZM296.332 681.852H306.412V702.978H311.242V677.358H291.712V703.188H296.332V681.852ZM301.708 706.254C303.262 703.062 303.64 699.534 303.64 696.426V684.246H298.894V696.3C298.894 701.55 298.054 707.178 289.612 710.874C290.536 711.672 292.132 713.646 292.636 714.696C297.214 712.638 299.944 709.782 301.498 706.632C304.144 708.774 307.714 711.882 309.31 713.814L312.46 710.286C310.696 708.396 307 705.456 304.438 703.482L301.708 706.254ZM319.18 679.29H314.56V704.994H319.18V679.29ZM322.372 675.93V708.27C322.372 709.068 322.036 709.32 321.238 709.362C320.398 709.362 317.626 709.362 314.896 709.236C315.652 710.664 316.45 712.974 316.66 714.402C320.524 714.444 323.254 714.276 324.976 713.478C326.698 712.596 327.328 711.252 327.328 708.312V675.93H322.372ZM55 750.664C52.06 750.664 49.624 753.1 49.624 756.04C49.624 758.98 52.06 761.416 55 761.416C57.94 761.416 60.376 758.98 60.376 756.04C60.376 753.1 57.94 750.664 55 750.664ZM86.164 746.002H116.32V741.256H102.754C102.166 739.576 101.326 737.56 100.57 735.922L95.53 737.098C96.076 738.358 96.664 739.828 97.126 741.256H81.082V752.554C81.082 758.602 80.83 767.254 77.68 773.176C78.898 773.68 81.166 775.192 82.09 776.074C85.576 769.564 86.164 759.274 86.164 752.554V746.002ZM103.846 761.962C103.174 757.972 101.62 752.302 100.192 747.682L95.656 748.858C96.958 753.394 98.512 759.4 99.016 763.264L103.846 761.962ZM87.34 751.462C89.02 755.998 90.994 762.046 91.792 765.952L96.496 763.978C95.53 760.072 93.556 754.318 91.75 749.74L87.34 751.462ZM106.366 769.312C110.062 763.18 113.128 755.956 115.102 749.278L109.726 747.514C108.214 754.612 105.148 763.054 101.074 769.312H85.534V774.016H116.782V769.312H106.366ZM142.78 743.356C142.108 744.364 141.436 745.33 140.68 746.212H129.718C130.81 745.288 131.86 744.364 132.784 743.356H142.78ZM126.064 750.202H148.702V752.26H126.82V755.956H148.702V758.14H125.35V762.13H138.58L135.892 763.894C137.908 765.7 140.344 768.304 141.31 770.026L145.3 767.338C144.334 765.784 142.36 763.726 140.47 762.13H153.658V746.212H146.476C147.736 744.616 148.954 742.852 149.836 741.382L146.35 739.198L145.636 739.408H136.102C136.606 738.694 137.026 737.98 137.488 737.308L132.112 736.216C130.096 739.702 126.316 743.566 120.772 746.338C121.906 747.136 123.502 748.858 124.216 750.034C124.846 749.656 125.476 749.278 126.064 748.9V750.202ZM124.846 774.268C126.19 772 127.576 768.556 128.626 765.91L124.216 763.936C123.25 766.624 121.696 769.816 120.184 772.042L124.846 774.268ZM137.362 770.614C134.968 770.614 134.548 770.446 134.548 769.312V764.272H129.466V769.354C129.466 773.638 130.978 774.982 136.9 774.982H145.006C149.584 774.982 151.012 773.722 151.6 768.388C150.256 768.136 148.114 767.422 147.064 766.708C146.812 770.11 146.518 770.614 144.586 770.614H137.362ZM150.466 764.65C152.188 767.548 154.036 771.454 154.582 773.89L159.37 772C158.656 769.438 156.682 765.742 154.876 762.928L150.466 764.65ZM191.374 752.05C193.558 754.948 195.7 758.098 196.792 760.24L201.286 757.51C199.48 754.36 195.616 749.614 192.718 746.086L191.374 746.842V736.426H185.998V767.674H191.374V752.05ZM177.892 747.64C177.262 752.218 176.254 756.04 174.868 759.274C173.566 756.964 172.474 754.108 171.55 750.58C171.886 749.656 172.18 748.648 172.516 747.64H177.892ZM180.118 742.894L179.236 743.02H173.734C174.154 741.214 174.532 739.45 174.868 737.602L169.576 736.51C168.442 744.868 166.006 753.1 162.94 757.3C164.242 757.972 166.09 759.232 167.056 760.114C167.686 759.148 168.358 758.056 169.03 756.796C169.954 759.568 171.046 762.004 172.222 763.978C169.744 767.59 166.426 770.194 162.352 772C163.57 772.714 165.67 774.73 166.51 775.906C170.038 774.142 173.062 771.706 175.582 768.388C180.454 773.512 186.712 774.856 193.6 774.856H200.446C200.74 773.386 201.58 770.782 202.378 769.564C200.404 769.606 195.574 769.606 193.894 769.606C188.098 769.606 182.596 768.514 178.27 764.02C180.916 758.854 182.722 752.176 183.52 743.734L180.118 742.894ZM211.534 744.658H237.574V748.732H242.824V740.29H228.292C227.746 738.904 226.99 737.392 226.36 736.132L220.984 737.266C221.446 738.19 221.908 739.24 222.286 740.29H206.494V749.236H211.534V744.658ZM226.906 748.522C230.686 750.412 235.726 753.268 238.12 755.242L241.27 751.588C238.708 749.698 233.542 747.01 229.888 745.33L226.906 748.522ZM210.862 755.41C214.894 753.772 219.43 750.622 222.832 747.43L218.968 745.372C215.818 748.018 211.45 750.37 207.88 751.672L210.862 755.41ZM243.328 762.844V758.266H234.508L236.398 757.3C235.474 755.914 233.5 753.982 231.904 752.638L228.25 754.486C229.468 755.536 230.896 757.048 231.862 758.266H226.612C226.864 756.502 227.032 754.654 227.158 752.638H222.034C221.908 754.696 221.74 756.586 221.446 758.266H205.99V762.844H220.102C218.212 766.75 214.264 769.438 205.612 771.076C206.62 772.168 207.838 774.142 208.258 775.444C217.75 773.386 222.328 769.942 224.638 765.154C227.956 770.908 233.038 774.1 241.354 775.444C241.942 774.058 243.286 772 244.336 770.908C236.23 770.11 231.022 767.506 228.208 762.844H243.328ZM265.042 759.274C264.202 758.224 260.59 753.856 259.078 752.302V749.74H264.538V745.036H259.078V736.426H254.29V745.036H248.116V749.74H253.66C252.316 754.78 249.838 760.45 247.066 763.768C247.864 765.028 248.956 767.044 249.418 768.472C251.266 766.12 252.904 762.634 254.29 758.854V775.612H259.078V758.14C260.254 759.988 261.472 761.962 262.144 763.306L265.042 759.274ZM282.22 770.614C282.01 770.614 281.842 770.53 281.758 770.362C281.674 770.194 281.632 769.606 281.632 768.514V738.82H266.596V752.344C266.596 758.644 266.092 766.834 260.548 772.378C261.64 773.008 263.614 774.646 264.412 775.57C270.46 769.522 271.426 759.442 271.426 752.386V743.566H276.676V768.64C276.676 772.252 277.012 773.26 277.81 774.058C278.524 774.814 279.7 775.192 280.75 775.192H283.06C283.984 775.192 284.992 774.982 285.664 774.436C286.336 773.932 286.756 773.134 287.008 771.874C287.26 770.656 287.428 767.674 287.47 765.448C286.252 765.028 284.866 764.272 283.9 763.432C283.9 765.91 283.816 767.968 283.774 768.892C283.69 769.732 283.648 770.152 283.48 770.362C283.354 770.53 283.144 770.614 282.934 770.614H282.22ZM294.022 749.656C294.484 748.732 294.988 747.682 295.45 746.506H299.692V749.656H294.022ZM304.438 746.506H311.956V741.97H304.438V736.678H299.692V741.97H297.004C297.382 740.71 297.718 739.45 297.97 738.148L293.392 737.182C292.636 741.172 291.25 745.414 289.528 748.06C290.494 748.396 292.216 749.11 293.308 749.656H290.158V754.15H299.692V757.216H291.796V772.294H296.248V761.668H299.692V775.612H304.438V761.668H308.134V767.8C308.134 768.22 308.008 768.304 307.63 768.304C307.252 768.346 306.202 768.346 305.026 768.262C305.572 769.48 306.118 771.244 306.244 772.504C308.344 772.546 309.94 772.462 311.116 771.748C312.334 771.034 312.628 769.858 312.628 767.926V757.216H304.438V754.15H313.636V749.656H304.438V746.506ZM320.188 739.87H315.526V763.516H320.188V739.87ZM323.044 737.14V769.69C323.044 770.404 322.792 770.572 322.12 770.614C321.406 770.614 319.222 770.614 317.08 770.53C317.71 772 318.382 774.184 318.55 775.57C321.784 775.57 324.22 775.402 325.774 774.604C327.286 773.764 327.832 772.42 327.832 769.732V737.14H323.044Z" fill="#E4EBF7"/>
</svg>
