<svg width="1080" height="1080" viewBox="0 0 1080 1080" fill="none" xmlns="http://www.w3.org/2000/svg">
<rect width="1080" height="1080" fill="#2C2C2C"/>
<path fill-rule="evenodd" clip-rule="evenodd" d="M794.33 657.893C817.377 622.036 830.748 579.369 830.748 533.577C830.748 406.109 726.459 302.527 599.008 303.369C473.234 304.199 371.409 405.91 370.379 531.651C369.338 658.788 472.376 763.216 599.503 763.79C644.855 763.991 687.17 751.063 722.888 728.607L797.746 753.044C811.284 757.464 824.047 744.506 819.424 731.035L794.33 657.893Z" fill="#A3B5D6"/>
<path fill-rule="evenodd" clip-rule="evenodd" d="M270.478 714.844C257.135 694.085 249.393 669.383 249.393 642.872C249.393 569.074 309.771 509.106 383.559 509.593C456.375 510.074 515.326 568.959 515.923 641.756C516.526 715.362 456.872 775.82 383.272 776.153C357.015 776.269 332.517 768.785 311.838 755.784L268.5 769.932C260.662 772.49 253.273 764.989 255.949 757.19L270.478 714.844Z" fill="#E4EBF7"/>
<path d="M297.594 521.721C317.691 521.721 333.983 505.428 333.983 485.329C333.983 465.229 317.691 448.936 297.594 448.936C277.497 448.936 261.205 465.229 261.205 485.329C261.205 505.428 277.497 521.721 297.594 521.721Z" fill="#A3B5D6"/>
<path fill-rule="evenodd" clip-rule="evenodd" d="M709.5 217.609C636.106 217.609 576.609 277.106 576.609 350.5C576.609 423.893 636.106 483.391 709.5 483.391C782.894 483.391 842.391 423.893 842.391 350.5C842.391 277.106 782.894 217.609 709.5 217.609Z" fill="#597EF7"/>
<path fill-rule="evenodd" clip-rule="evenodd" d="M688.087 395.642L679.697 387.252L760.998 305.655C763.778 302.874 768.286 302.874 771.066 305.655L774.422 309.01C777.202 311.791 777.202 316.298 774.422 319.079L698.155 395.642C695.375 398.422 690.867 398.422 688.087 395.642Z" fill="white"/>
<path fill-rule="evenodd" clip-rule="evenodd" d="M706.53 387.252L698.14 395.642C695.36 398.422 690.852 398.422 688.072 395.642L654.664 362.234C651.883 359.454 651.883 354.946 654.664 352.166L658.019 348.81C660.8 346.03 665.307 346.03 668.088 348.81L706.53 387.252Z" fill="white"/>
</svg>
