<svg width="1080" height="1080" viewBox="0 0 1080 1080" fill="none" xmlns="http://www.w3.org/2000/svg">
<rect width="1080" height="1080" fill="#2C2C2C"/>
<path d="M77.894 284.894V288.044H71.342V284.894H77.894ZM77.894 293.798H71.342V290.522H77.894V293.798ZM68.36 288.044H57.86V290.522H68.36V293.798H60.296V296.276H68.36V299.51H59.96V301.862H68.36V305.138H58.196V307.658H68.36V311.816H71.342V307.658H83.228V305.138H71.342V301.862H81.674V299.51H71.342V296.276H80.708V290.522H83.606V288.044H80.708V282.416H71.342V278.888H68.36V282.416H60.59V284.894H68.36V288.044ZM56.306 293.294L55.76 293.378H52.148C54.206 290.27 56.306 286.364 58.238 282.332L56.222 281.03L55.214 281.492H46.772V284.264H54.038C52.4 287.96 50.3 291.404 49.544 292.454C48.704 293.756 47.696 294.764 46.898 294.932C47.318 295.604 47.99 296.864 48.2 297.452C48.2 297.032 49.208 296.486 49.88 296.15H54.962C54.416 299.888 53.576 303.122 52.526 305.894C51.35 304.172 50.468 302.072 49.712 299.552L47.402 300.476C48.41 303.836 49.67 306.482 51.224 308.624C49.712 311.396 47.864 313.538 45.68 315.092C46.394 315.512 47.486 316.604 47.99 317.234C50.006 315.638 51.77 313.58 53.24 310.934C57.608 315.134 63.656 316.184 71.384 316.184H83.102C83.27 315.344 83.816 314 84.278 313.286C82.136 313.328 73.106 313.328 71.468 313.328C64.37 313.328 58.616 312.404 54.542 308.372C56.222 304.466 57.44 299.678 58.07 293.798L56.306 293.294ZM109.646 285.356C109.226 283.55 108.302 280.82 107.462 278.678L104.438 279.476C105.236 281.618 106.118 284.474 106.454 286.28L109.646 285.356ZM124.346 286.784H90.62V289.85H124.346V286.784ZM103.682 309.716C102.926 304.886 101.162 297.746 99.524 292.118L96.416 292.874C98.012 298.376 99.776 305.726 100.364 310.514L103.682 309.716ZM112.502 312.32C114.644 307.028 117.164 299.048 118.886 292.79L115.358 292.118C114.014 298.25 111.41 306.944 109.142 312.32H88.814V315.428H126.026V312.32H112.502ZM138.08 295.982C138.122 295.016 138.122 294.134 138.122 293.252V291.32H151.478V295.982H138.08ZM162.65 283.928V288.506H138.122V283.928H162.65ZM161.936 312.992H144.338V306.482H161.936V312.992ZM168.11 298.796V295.982H154.544V291.32H165.758V281.114H135.014V293.252C135.014 299.93 134.636 309.128 130.352 315.638C131.15 315.974 132.494 316.772 133.082 317.276C136.484 312.11 137.618 305.012 137.996 298.796H151.478V303.71H141.356V317.234H144.338V315.764H161.936V317.15H165.002V303.71H154.544V298.796H168.11ZM179.45 299.51V293.168H190.496C190.622 295.394 190.958 297.494 191.336 299.51H179.45ZM202.844 283.97V290.228H179.45V283.97H202.844ZM209.06 302.45V299.51H194.57C194.108 297.494 193.772 295.394 193.646 293.168H205.952V281.03H176.258V311.522C176.258 313.244 175.166 314.21 174.41 314.588C174.914 315.218 175.628 316.604 175.88 317.444C176.93 316.73 178.568 316.268 191.168 312.53C191 311.858 190.832 310.514 190.79 309.632L179.45 312.824V302.45H192.092C194.528 310.808 199.316 316.772 204.986 316.73C208.052 316.73 209.312 315.134 209.816 309.002C208.934 308.75 207.8 308.162 207.086 307.532C206.834 311.942 206.372 313.622 205.112 313.664C201.374 313.706 197.51 309.128 195.326 302.45H209.06ZM242.198 303.962H216.242V306.986H242.198V303.962ZM224.684 295.142C225.23 292.874 225.776 290.27 226.364 287.624H250.304V284.642H226.952C227.288 283.088 227.54 281.534 227.834 280.106L224.684 279.77C223.676 285.524 221.996 293.42 220.694 298.04L223.298 298.082H247.49C246.524 307.7 245.474 312.026 243.878 313.244C243.416 313.706 242.786 313.748 241.736 313.748C240.518 313.748 237.284 313.748 234.008 313.454C234.638 314.294 235.1 315.596 235.184 316.52C238.124 316.73 241.148 316.772 242.66 316.688C244.424 316.604 245.516 316.31 246.566 315.218C248.456 313.412 249.632 308.624 250.808 296.654C250.892 296.234 250.934 295.142 250.934 295.142H224.684ZM269.33 284.264C268.616 282.752 266.852 280.484 265.256 278.846L262.904 280.232C264.416 281.87 266.096 284.264 266.852 285.818L269.33 284.264ZM273.992 301.82C273.068 300.896 269.876 297.62 268.196 296.024C270.338 293.336 272.186 290.27 273.446 287.162L271.766 285.944L271.178 286.07H258.494V288.926H269.54C266.852 294.134 261.98 299.174 257.36 301.904C257.822 302.492 258.536 304.046 258.788 304.928C260.72 303.668 262.694 301.988 264.584 300.098V317.192H267.65V299.174C269.246 300.938 271.136 303.164 272.018 304.382L273.992 301.82ZM286.424 312.53V294.974H295.37V291.95H286.424V278.804H283.316V291.95H274.244V294.974H283.316V312.53H272.27V315.596H296.252V312.53H286.424ZM305.786 312.992V284.138H337.286V281.156H302.72V315.974H338.336V312.992H305.786ZM333.338 307.826C331.112 305.138 327.71 301.778 323.972 298.334C326.996 294.932 329.726 291.236 332.036 287.33L329.138 286.154C327.122 289.682 324.602 293.168 321.746 296.318C318.386 293.294 314.816 290.228 311.624 287.666L309.44 289.514C312.716 292.202 316.286 295.352 319.688 298.502C316.16 302.114 312.17 305.306 308.096 307.742C308.852 308.246 310.028 309.464 310.574 310.052C314.48 307.532 318.344 304.256 321.872 300.602C325.526 304.046 328.76 307.448 330.86 310.052L333.338 307.826ZM356.396 297.158H347.576V288.38H356.396V297.158ZM347.576 310.01V299.93H356.396V310.01H347.576ZM351.104 278.762C350.81 280.736 350.054 283.55 349.424 285.566H344.72V316.142H347.576V312.824H359.252V285.566H352.28C352.994 283.76 353.75 281.45 354.464 279.392L351.104 278.762ZM379.79 285.44H367.232C367.946 283.466 368.534 281.45 369.038 279.392L366.056 278.678C364.712 284.432 362.444 290.228 359.63 293.924C360.302 294.344 361.646 295.184 362.192 295.688C363.662 293.714 364.964 291.152 366.14 288.338H376.808C376.262 305.054 375.632 311.438 374.246 312.908C373.826 313.454 373.364 313.538 372.524 313.538C371.558 313.538 369.038 313.538 366.308 313.286C366.896 314.168 367.274 315.428 367.358 316.352C369.71 316.478 372.104 316.562 373.574 316.394C375.002 316.268 375.968 315.89 376.892 314.714C378.572 312.656 379.118 306.188 379.79 287.036V285.44ZM373.154 304.34C371.81 301.862 368.912 297.83 366.56 294.848L364.124 296.276C366.434 299.3 369.248 303.458 370.508 305.978L373.154 304.34ZM407.006 312.32V299.216H420.11V296.15H407.006V284.978H421.706V281.954H387.308V284.978H403.814V312.32H394.574V292.664H391.424V312.32H385.712V315.386H423.092V312.32H407.006ZM452.03 297.452V305.642H441.488V297.452H452.03ZM454.928 308.456V294.638H438.632V311.438H441.488V308.456H454.928ZM463.706 286.07H444.974C446.024 284.054 447.116 281.66 448.04 279.434L444.218 278.762C443.672 280.904 442.58 283.802 441.53 286.07H430.064V317.192H433.13V289.094H460.598V313.034C460.598 313.832 460.346 314.042 459.59 314.084C458.708 314.126 455.81 314.126 452.786 314C453.248 314.84 453.752 316.31 453.92 317.192C457.7 317.192 460.262 317.15 461.774 316.646C463.244 316.142 463.706 315.092 463.706 313.034V286.07ZM498.062 296.192V301.778H489.998V304.508H498.062V311.648H500.876V304.508H507.932V301.778H500.876V296.192H507.008L507.05 293.546H500.876V288.548H498.062V293.546H493.652C494.744 291.488 495.794 289.052 496.76 286.532H508.1V283.844H497.684C498.188 282.374 498.65 280.862 499.07 279.392L496.088 278.762C495.752 280.484 495.29 282.206 494.828 283.844H489.62V286.532H493.946C493.19 288.8 492.392 290.606 492.056 291.32C491.384 292.832 490.754 293.924 490.082 294.134C490.46 294.848 490.88 296.192 491.048 296.78C491.426 296.444 492.644 296.192 494.24 296.192H498.062ZM488.948 287.792C488.276 285.818 486.848 282.794 485.504 280.526L482.984 281.408C484.244 283.676 485.63 286.826 486.26 288.842L488.948 287.792ZM482.396 286.406V283.676H475.508C476.012 282.374 476.474 280.988 476.768 279.644L474.08 278.93C473.156 282.878 471.56 286.784 469.544 289.346C470.006 290.018 470.846 291.446 471.098 292.118C472.316 290.564 473.45 288.59 474.416 286.406H482.396ZM477.944 310.85V302.786H482.564V300.056H477.944V294.134H481.64V291.446H471.812V294.134H475.046V300.056H470.342V302.786H475.046V310.556C475.046 312.53 473.786 313.958 473.03 314.546C473.534 315.008 474.332 316.1 474.668 316.73C475.256 315.974 476.264 315.176 482.522 310.808C482.186 310.262 481.808 309.17 481.598 308.456L477.944 310.85ZM488.654 293.714H481.808V296.612H485.798V310.01C484.286 310.724 482.564 312.194 480.926 313.958L482.942 316.814C484.538 314.546 486.302 312.362 487.478 312.362C488.318 312.362 489.494 313.37 490.922 314.378C493.148 315.764 495.626 316.352 499.154 316.352C501.674 316.352 505.916 316.226 508.1 316.1C508.1 315.218 508.52 313.706 508.856 312.824C506.042 313.202 501.842 313.37 499.238 313.37C495.92 313.37 493.484 312.992 491.468 311.69C490.25 310.934 489.452 310.22 488.654 309.884V293.714ZM549.386 283.256H539.642C539.054 281.996 538.172 280.4 537.332 279.182L534.434 279.686C535.106 280.736 535.82 282.08 536.366 283.256H526.79V285.986H549.386V283.256ZM535.316 291.698C534.77 290.312 533.426 288.086 532.166 286.448L529.814 287.414C531.032 289.094 532.292 291.404 532.838 292.874L535.316 291.698ZM550.436 293H542.372C543.506 291.362 544.682 289.22 545.816 287.288L542.876 286.49C542.078 288.422 540.524 291.194 539.348 293H525.32V295.73H550.436V293ZM524.522 300.224L524.06 297.368L520.364 298.544V290.186H524.564V287.288H520.364V278.888H517.466V287.288H512.51V290.186H517.466V299.426C515.408 300.056 513.476 300.644 511.964 301.064L512.762 304.046L517.466 302.534V313.496C517.466 314.042 517.256 314.21 516.752 314.21C516.332 314.252 514.82 314.252 513.14 314.168C513.56 315.008 513.938 316.31 514.022 317.108C516.458 317.15 518.012 317.024 518.978 316.52C519.944 316.016 520.364 315.176 520.364 313.496V301.61L524.522 300.224ZM542.666 302.996C541.868 305.642 540.566 307.742 538.76 309.422C536.408 308.456 534.014 307.616 531.746 306.902C532.586 305.768 533.468 304.382 534.266 302.996H542.666ZM550.898 302.996V300.308H535.778C536.492 299.006 537.164 297.704 537.71 296.486L534.854 295.898C534.266 297.284 533.51 298.796 532.67 300.308H524.774V302.996H531.074C529.856 304.928 528.596 306.776 527.504 308.204C530.234 309.044 533.216 310.094 536.072 311.312C533.174 312.908 529.31 313.916 524.144 314.462C524.648 315.134 525.236 316.268 525.488 317.15C531.494 316.268 535.946 314.882 539.264 312.656C542.624 314.21 545.69 315.848 547.748 317.318L549.806 314.924C547.748 313.496 544.85 312.026 541.7 310.64C543.674 308.666 544.976 306.146 545.858 302.996H550.898ZM559.634 318.494C564.044 316.94 566.9 313.496 566.9 308.96C566.9 306.02 565.64 304.13 563.33 304.13C561.608 304.13 560.138 305.18 560.138 307.154C560.138 309.128 561.566 310.136 563.288 310.136C563.54 310.136 563.75 310.136 564.002 310.094C563.792 312.95 561.944 314.924 558.71 316.268L559.634 318.494ZM55.466 350.85H60.338V347.91H55.466V339.846H52.442V347.91H46.226V350.85H52.106C50.846 356.562 48.2 363.198 45.47 366.684C46.058 367.44 46.814 368.784 47.192 369.708C49.124 366.894 51.014 362.4 52.442 357.738V378.192H55.466V356.604C56.642 358.704 58.028 361.266 58.616 362.652L60.59 360.342C59.834 359.124 56.558 354.168 55.466 352.782V350.85ZM76.844 368.406C76.172 365.886 74.408 361.644 72.854 358.368L70.502 359.208C71.174 360.678 71.972 362.4 72.644 364.08L65.21 365.424C67.058 361.98 68.948 357.57 70.292 353.328L67.268 352.446C66.176 357.276 63.824 362.484 63.11 363.87C62.438 365.214 61.808 366.18 61.136 366.348C61.514 367.104 61.976 368.532 62.144 369.12C62.9 368.658 64.244 368.322 73.484 366.474C73.862 367.608 74.156 368.616 74.366 369.456L76.844 368.406ZM83.228 346.734H66.764C67.52 344.76 68.192 342.66 68.738 340.56L65.714 339.846C64.37 345.516 62.06 351.06 59.036 354.588C59.792 355.05 61.052 356.016 61.598 356.52C63.026 354.588 64.412 352.278 65.588 349.632H80.12C79.574 366.726 78.944 373.11 77.726 374.538C77.264 375.084 76.886 375.252 76.13 375.21C75.248 375.21 73.232 375.21 70.964 375C71.552 375.882 71.93 377.184 71.972 378.108C74.03 378.234 76.13 378.276 77.348 378.108C78.734 377.94 79.616 377.604 80.456 376.428C82.01 374.37 82.556 367.944 83.228 348.33V346.734ZM120.314 345.894V349.044H113.762V345.894H120.314ZM120.314 354.798H113.762V351.522H120.314V354.798ZM110.78 349.044H100.28V351.522H110.78V354.798H102.716V357.276H110.78V360.51H102.38V362.862H110.78V366.138H100.616V368.658H110.78V372.816H113.762V368.658H125.648V366.138H113.762V362.862H124.094V360.51H113.762V357.276H123.128V351.522H126.026V349.044H123.128V343.416H113.762V339.888H110.78V343.416H103.01V345.894H110.78V349.044ZM98.726 354.294L98.18 354.378H94.568C96.626 351.27 98.726 347.364 100.658 343.332L98.642 342.03L97.634 342.492H89.192V345.264H96.458C94.82 348.96 92.72 352.404 91.964 353.454C91.124 354.756 90.116 355.764 89.318 355.932C89.738 356.604 90.41 357.864 90.62 358.452C90.62 358.032 91.628 357.486 92.3 357.15H97.382C96.836 360.888 95.996 364.122 94.946 366.894C93.77 365.172 92.888 363.072 92.132 360.552L89.822 361.476C90.83 364.836 92.09 367.482 93.644 369.624C92.132 372.396 90.284 374.538 88.1 376.092C88.814 376.512 89.906 377.604 90.41 378.234C92.426 376.638 94.19 374.58 95.66 371.934C100.028 376.134 106.076 377.184 113.804 377.184H125.522C125.69 376.344 126.236 375 126.698 374.286C124.556 374.328 115.526 374.328 113.888 374.328C106.79 374.328 101.036 373.404 96.962 369.372C98.642 365.466 99.86 360.678 100.49 354.798L98.726 354.294ZM138.5 361.98V357.738H148.496V359.418C148.496 360.258 148.496 361.14 148.412 361.98H138.5ZM138.5 351.06H148.496V355.26H138.5V351.06ZM162.272 351.06V355.26H151.688V351.06H162.272ZM162.272 361.98H151.604C151.646 361.182 151.688 360.3 151.688 359.46V357.738H162.272V361.98ZM165.338 364.584V348.456H151.688V344.928H167.984V342.114H131.696V344.928H148.496V348.456H135.518V364.584H147.992C147.488 366.6 146.522 368.49 144.59 370.128C142.616 368.826 140.936 367.104 139.508 364.92L136.904 365.97C138.332 368.406 140.054 370.338 142.07 371.892C139.508 373.362 135.938 374.538 130.94 375.504C131.612 376.218 132.452 377.52 132.788 378.234C138.248 377.1 142.154 375.546 144.968 373.698C150.68 376.722 158.324 377.646 168.026 378.066C168.194 377.058 168.782 375.756 169.328 375C160.004 374.748 152.78 374.118 147.488 371.724C149.588 369.582 150.722 367.188 151.226 364.584H165.338ZM191.84 347.742H182.558C182.6 345.348 182.642 342.912 182.642 340.434H179.576C179.576 342.912 179.576 345.348 179.534 347.742H173.654V350.808H179.45C179.114 361.308 177.854 370.59 172.646 376.092C173.402 376.554 174.536 377.562 174.998 378.234C180.668 372.102 182.096 362.064 182.474 350.808H188.816C188.522 366.894 188.144 372.606 187.178 373.782C186.884 374.37 186.464 374.496 185.792 374.454C185.036 374.454 183.23 374.454 181.298 374.286C181.844 375.168 182.138 376.512 182.222 377.436C184.07 377.562 186.002 377.562 187.136 377.394C188.396 377.268 189.152 376.89 189.908 375.798C191.21 373.992 191.504 367.902 191.84 349.338V347.742ZM198.224 371.514V348.078H206.372V371.514H198.224ZM195.284 345.054V377.562H198.224V374.496H206.372V377.268H209.48V345.054H195.284ZM253.58 351.816H236.15V347.112H249.212V344.34H236.15V339.93H232.958V344.34H220.232V347.112H232.958V351.816H215.906V354.63H226.49L223.844 355.428C224.81 357.066 225.818 359.25 226.238 360.678H219.266V363.45H232.958V368.322H216.998V371.136H232.958V378.276H236.15V371.136H252.362V368.322H236.15V363.45H250.388V360.678H242.786C243.794 359.124 244.928 357.234 245.852 355.512L242.576 354.63C241.904 356.394 240.728 358.872 239.678 360.678H227.246L229.43 359.964C229.01 358.578 227.876 356.31 226.826 354.63H253.58V351.816ZM267.566 346.02C266.936 344.466 265.508 342.03 264.248 340.14L261.812 341.148C262.946 343.08 264.332 345.684 265.004 347.28L267.566 346.02ZM282.728 362.4V366.726H276.386V362.4H282.728ZM292.22 366.726H285.542V362.4H292.22V366.726ZM285.542 373.656V369.162H292.22V373.656H285.542ZM276.386 369.162H282.728V373.656H276.386V369.162ZM273.488 362.316C272.522 361.392 269.582 358.746 268.154 357.57C270.128 354.84 271.808 351.816 272.984 348.708L271.262 347.574L270.674 347.7H258.578V350.556H269.12C266.432 356.058 261.644 361.35 257.066 364.332C257.528 364.92 258.368 366.348 258.662 367.146C260.552 365.802 262.442 364.122 264.29 362.19V378.15H267.314V360.132C268.826 361.686 270.842 363.828 271.724 364.962L273.488 362.526V378.234H276.386V376.26H292.22V378.108H295.244V359.754H273.488V362.316ZM290.372 354.588H278.486V349.968H290.372V354.588ZM275.672 347.448V357.066H293.312V347.448H275.672ZM273.32 341.904V344.592H295.496V341.904H273.32ZM313.976 358.158H305.156V349.38H313.976V358.158ZM305.156 371.01V360.93H313.976V371.01H305.156ZM308.684 339.762C308.39 341.736 307.634 344.55 307.004 346.566H302.3V377.142H305.156V373.824H316.832V346.566H309.86C310.574 344.76 311.33 342.45 312.044 340.392L308.684 339.762ZM337.37 346.44H324.812C325.526 344.466 326.114 342.45 326.618 340.392L323.636 339.678C322.292 345.432 320.024 351.228 317.21 354.924C317.882 355.344 319.226 356.184 319.772 356.688C321.242 354.714 322.544 352.152 323.72 349.338H334.388C333.842 366.054 333.212 372.438 331.826 373.908C331.406 374.454 330.944 374.538 330.104 374.538C329.138 374.538 326.618 374.538 323.888 374.286C324.476 375.168 324.854 376.428 324.938 377.352C327.29 377.478 329.684 377.562 331.154 377.394C332.582 377.268 333.548 376.89 334.472 375.714C336.152 373.656 336.698 367.188 337.37 348.036V346.44ZM330.734 365.34C329.39 362.862 326.492 358.83 324.14 355.848L321.704 357.276C324.014 360.3 326.828 364.458 328.088 366.978L330.734 365.34ZM354.17 345.264C353.456 343.752 351.692 341.484 350.096 339.846L347.744 341.232C349.256 342.87 350.936 345.264 351.692 346.818L354.17 345.264ZM358.832 362.82C357.908 361.896 354.716 358.62 353.036 357.024C355.178 354.336 357.026 351.27 358.286 348.162L356.606 346.944L356.018 347.07H343.334V349.926H354.38C351.692 355.134 346.82 360.174 342.2 362.904C342.662 363.492 343.376 365.046 343.628 365.928C345.56 364.668 347.534 362.988 349.424 361.098V378.192H352.49V360.174C354.086 361.938 355.976 364.164 356.858 365.382L358.832 362.82ZM371.264 373.53V355.974H380.21V352.95H371.264V339.804H368.156V352.95H359.084V355.974H368.156V373.53H357.11V376.596H381.092V373.53H371.264ZM387.266 363.87H399.194C396.464 367.608 393.314 370.926 392.138 371.892C390.878 373.11 389.912 373.908 389.03 374.076C389.366 375 389.87 376.638 390.08 377.31C391.634 376.722 393.986 376.554 416.12 374.706C417.044 375.966 417.884 377.184 418.472 378.192L421.244 376.47C419.396 373.32 415.448 368.868 411.71 365.508L409.064 366.936C410.66 368.406 412.424 370.212 413.936 371.976L394.868 373.404C397.892 370.674 400.832 367.314 403.436 363.87H421.748V360.846H387.266V363.87ZM404.528 339.888C400.79 345.516 393.44 350.766 385.292 354.21C386.006 354.84 387.098 356.1 387.56 356.898C389.996 355.806 392.306 354.546 394.49 353.16V355.722H414.44V352.824H395.036C398.648 350.514 401.882 347.826 404.486 344.97C408.434 349.044 414.986 353.832 421.496 356.478C422 355.596 422.966 354.336 423.68 353.706C416.918 351.396 410.114 346.776 406.292 342.87C406.67 342.324 407.09 341.736 407.51 341.19L404.528 339.888ZM435.314 341.568C436.994 343.752 438.758 346.818 439.514 348.792L442.244 347.28C441.488 345.348 439.682 342.408 437.918 340.266L435.314 341.568ZM464.924 362.4V359.334H448.586C448.628 358.536 448.67 357.78 448.67 356.982V351.858H462.656V348.792H454.34C455.852 346.524 457.532 343.668 458.918 341.19L455.6 340.014C454.508 342.66 452.618 346.272 450.98 348.792H431.324V351.858H445.184V356.94C445.184 357.738 445.142 358.494 445.1 359.334H428.804V362.4H444.47C443.126 366.894 439.136 371.64 427.964 375.462C428.804 376.092 429.77 377.436 430.232 378.15C440.942 374.412 445.52 369.582 447.41 364.752C450.854 371.178 456.356 375.756 463.79 377.898C464.21 376.974 465.218 375.672 465.974 374.958C458.33 373.068 452.618 368.532 449.468 362.4H464.924ZM480.296 365.55C478.112 368.532 474.668 371.64 471.308 373.656C472.148 374.076 473.408 375.126 474.038 375.714C477.188 373.488 480.884 370.002 483.404 366.642L480.296 365.55ZM501.548 362.106C502.724 363.492 503.774 364.836 504.488 365.886L506.966 364.374C505.244 361.854 501.674 357.99 498.398 355.134L496.046 356.352C497.138 357.402 498.314 358.536 499.406 359.754L481.094 360.93C487.352 357.906 493.736 354.042 499.868 349.38L497.474 347.364C495.374 349.086 493.064 350.766 490.796 352.278L480.632 352.782C483.614 350.64 486.68 347.91 489.452 345.054C494.87 344.508 500.036 343.71 504.026 342.744L501.8 340.182C495.08 341.862 482.942 342.954 472.82 343.5C473.156 344.214 473.534 345.432 473.618 346.23C477.272 346.062 481.22 345.81 485.084 345.474C482.396 348.33 479.288 350.808 478.196 351.48C476.978 352.446 475.97 353.076 475.13 353.16C475.466 353.958 475.928 355.386 476.054 355.974C476.852 355.638 478.196 355.47 486.722 354.966C483.11 357.15 480.044 358.83 478.616 359.502C476.012 360.804 474.164 361.602 472.778 361.77C473.156 362.61 473.618 364.038 473.744 364.668C474.92 364.206 476.558 363.954 488.024 363.114V374.034C488.024 374.538 487.898 374.706 487.184 374.748C486.512 374.748 484.244 374.748 481.724 374.664C482.228 375.546 482.774 376.806 482.9 377.73C485.966 377.73 488.066 377.73 489.41 377.184C490.796 376.68 491.174 375.84 491.174 374.076V362.862L501.548 362.106ZM494.87 366.936C498.356 369.624 502.64 373.446 504.698 375.798L507.344 373.908C505.118 371.556 500.792 367.86 497.348 365.34L494.87 366.936ZM517.214 379.494C521.624 377.94 524.48 374.496 524.48 369.96C524.48 367.02 523.22 365.13 520.91 365.13C519.188 365.13 517.718 366.18 517.718 368.154C517.718 370.128 519.146 371.136 520.868 371.136C521.12 371.136 521.33 371.136 521.582 371.094C521.372 373.95 519.524 375.924 516.29 377.268L517.214 379.494ZM51.434 423.568H59.288V429.112C56.516 429.7 53.87 430.288 51.434 430.792V423.568ZM59.288 405.76V411.892H51.434V405.76H59.288ZM59.288 420.754H51.434V414.706H59.288V420.754ZM64.538 427.978L62.228 428.482V402.904H48.578V431.38L45.596 431.968L46.142 435.118C51.14 433.984 58.196 432.346 64.748 430.792L64.538 427.978ZM73.442 410.338C73.568 407.272 73.568 404.122 73.568 400.888H70.544C70.544 404.122 70.544 407.272 70.418 410.338H63.614V413.32H70.292C69.704 423.358 67.604 432.01 59.624 437.008C60.422 437.47 61.43 438.562 61.892 439.318C70.376 433.69 72.686 424.24 73.316 413.32H79.868C79.49 428.608 79.028 434.152 77.978 435.412C77.6 435.958 77.138 436.084 76.424 436.042C75.542 436.042 73.358 436.042 70.964 435.874C71.51 436.672 71.804 437.932 71.888 438.856C74.114 438.94 76.382 439.024 77.642 438.898C78.986 438.73 79.868 438.394 80.666 437.302C82.052 435.454 82.472 429.49 82.892 411.892C82.892 411.514 82.934 410.338 82.934 410.338H73.442ZM106.916 410.002C106.916 409.372 106.916 408.784 106.916 408.196V400.93H103.682V408.196C103.682 408.784 103.682 409.372 103.682 410.002H90.074V413.11H103.514C102.884 420.964 100.196 430.162 88.814 436.924C89.57 437.428 90.704 438.646 91.208 439.402C103.388 431.968 106.16 421.804 106.748 413.11H121.07C120.272 427.894 119.348 433.816 117.836 435.244C117.332 435.748 116.786 435.874 115.904 435.874C114.854 435.874 112.166 435.832 109.31 435.58C109.94 436.504 110.318 437.848 110.36 438.772C112.922 438.94 115.61 439.024 117.08 438.898C118.676 438.73 119.684 438.394 120.65 437.218C122.498 435.118 123.38 428.86 124.304 411.64C124.346 411.178 124.388 410.002 124.388 410.002H106.916ZM142.532 406.012C140.768 404.584 137.24 402.778 134.552 401.602L132.83 403.87C135.56 405.13 139.004 407.146 140.726 408.532L142.532 406.012ZM140.264 417.394C138.584 416.05 135.182 414.16 132.536 412.984L130.772 415.252C133.46 416.512 136.82 418.528 138.458 419.956L140.264 417.394ZM138.878 423.694C136.652 428.188 133.67 433.312 131.612 436.294L134.3 438.394C136.568 434.698 139.172 429.826 141.188 425.71L138.878 423.694ZM163.322 421.636H147.908C147.95 420.796 147.95 419.914 147.95 419.116V414.748H163.322V421.636ZM167.9 407.356V404.668H157.064V401.056H153.998V411.766H144.884V419.116C144.884 424.534 144.464 432.304 140.6 437.932C141.398 438.184 142.7 438.982 143.33 439.486C146.144 435.286 147.278 429.616 147.74 424.576H163.322V426.676H166.346V411.766H157.064V407.356H167.9ZM181.298 401.602V414.538C181.298 422.224 180.584 430.54 173.822 436.798C174.494 437.344 175.586 438.394 176.09 439.15C183.524 432.262 184.364 423.106 184.364 414.538V401.602H181.298ZM193.184 402.484V436.336H196.25V402.484H193.184ZM205.616 401.434V438.688H208.724V401.434H205.616ZM176.594 411.136C175.964 414.832 174.578 419.284 172.688 422.182L175.334 423.358C177.266 420.418 178.484 415.63 179.24 411.892L176.594 411.136ZM185.414 412.858C186.884 416.218 188.186 420.67 188.564 423.4L191.294 422.224C190.874 419.536 189.446 415.21 187.976 411.85L185.414 412.858ZM197.216 412.648C199.106 415.924 201.038 420.334 201.752 423.064L204.398 421.678C203.642 418.99 201.584 414.706 199.61 411.472L197.216 412.648ZM247.574 406.894V410.044H241.022V406.894H247.574ZM247.574 415.798H241.022V412.522H247.574V415.798ZM238.04 410.044H227.54V412.522H238.04V415.798H229.976V418.276H238.04V421.51H229.64V423.862H238.04V427.138H227.876V429.658H238.04V433.816H241.022V429.658H252.908V427.138H241.022V423.862H251.354V421.51H241.022V418.276H250.388V412.522H253.286V410.044H250.388V404.416H241.022V400.888H238.04V404.416H230.27V406.894H238.04V410.044ZM225.986 415.294L225.44 415.378H221.828C223.886 412.27 225.986 408.364 227.918 404.332L225.902 403.03L224.894 403.492H216.452V406.264H223.718C222.08 409.96 219.98 413.404 219.224 414.454C218.384 415.756 217.376 416.764 216.578 416.932C216.998 417.604 217.67 418.864 217.88 419.452C217.88 419.032 218.888 418.486 219.56 418.15H224.642C224.096 421.888 223.256 425.122 222.206 427.894C221.03 426.172 220.148 424.072 219.392 421.552L217.082 422.476C218.09 425.836 219.35 428.482 220.904 430.624C219.392 433.396 217.544 435.538 215.36 437.092C216.074 437.512 217.166 438.604 217.67 439.234C219.686 437.638 221.45 435.58 222.92 432.934C227.288 437.134 233.336 438.184 241.064 438.184H252.782C252.95 437.344 253.496 436 253.958 435.286C251.816 435.328 242.786 435.328 241.148 435.328C234.05 435.328 228.296 434.404 224.222 430.372C225.902 426.466 227.12 421.678 227.75 415.798L225.986 415.294ZM279.662 405.298H287.054V412.018C287.054 415.126 287.684 416.344 290.54 416.344H293.69C294.53 416.344 295.37 416.302 295.916 416.134C295.79 415.42 295.664 414.244 295.622 413.446C295.118 413.572 294.236 413.656 293.648 413.656H290.792C290.12 413.656 289.994 413.278 289.994 412.102V402.358H276.722V406.978C276.722 410.086 275.798 413.572 270.296 416.092C270.884 416.554 271.934 417.772 272.312 418.402C278.318 415.504 279.662 410.968 279.662 407.062V405.298ZM269.792 407.86C268.448 406.18 265.592 403.492 263.324 401.644L261.308 403.534C263.576 405.508 266.348 408.322 267.692 410.086L269.792 407.86ZM266.978 431.968V413.992H258.074V416.974H263.954V431.968C263.954 433.858 262.652 435.244 261.854 435.748C262.442 436.336 263.24 437.638 263.534 438.352C264.206 437.596 265.34 436.672 272.732 431.212C272.354 430.624 271.85 429.448 271.598 428.65L266.978 431.968ZM289.868 422.224C288.356 425.542 286.088 428.314 283.316 430.54C280.544 428.23 278.276 425.416 276.764 422.224H289.868ZM291.884 419.158L291.338 419.284H272.27V422.224H274.412L273.824 422.434C275.546 426.256 277.898 429.574 280.838 432.304C277.73 434.278 274.16 435.664 270.464 436.504C271.052 437.218 271.766 438.436 271.976 439.276C275.966 438.142 279.872 436.546 283.232 434.236C286.382 436.588 290.204 438.31 294.488 439.36C294.908 438.478 295.706 437.26 296.42 436.588C292.388 435.706 288.776 434.278 285.752 432.304C289.322 429.28 292.178 425.248 293.816 420.04L291.884 419.158ZM338.966 417.982C336.656 416.554 332.498 414.496 328.844 412.942C331.742 410.464 334.22 407.524 335.858 404.164L333.632 402.946L333.086 403.072H316.328V405.97H331.07C327.248 411.388 320.15 415.798 313.598 418.024C314.186 418.654 315.068 419.83 315.488 420.586C319.184 419.2 322.964 417.268 326.366 414.874C330.272 416.596 334.808 418.948 337.202 420.544L338.966 417.982ZM306.164 423.946C309.524 420.334 312.758 415.882 315.614 411.346L312.884 409.624C312.044 411.136 311.12 412.69 310.154 414.118L304.4 414.748C306.962 411.178 309.482 406.642 311.456 402.232L308.474 400.846C306.71 405.928 303.518 411.304 302.552 412.69C301.628 414.118 300.872 415.084 300.074 415.252C300.452 416.092 300.956 417.604 301.124 418.276C301.754 417.94 302.804 417.73 308.138 417.016C306.248 419.662 304.484 421.762 303.644 422.602C302.342 424.072 301.334 425.122 300.368 425.332C300.746 426.13 301.25 427.642 301.376 428.272C302.3 427.768 303.77 427.39 314.438 425.248C314.396 424.576 314.396 423.316 314.48 422.476L306.164 423.946ZM314.354 430.288C309.188 431.506 303.854 432.766 300.368 433.48L300.998 436.588C304.778 435.58 309.818 434.278 314.69 432.976L314.354 430.288ZM328.046 424.954H336.782V422.056H316.706V424.954H324.98V435.118H314.144V438.058H338.756V435.118H328.046V424.954ZM353.288 406.18C351.86 404.836 348.962 402.904 346.82 401.686L344.804 403.702C347.03 405.046 349.844 407.146 351.188 408.49L353.288 406.18ZM351.356 417.31C349.928 415.924 346.988 413.95 344.762 412.69L342.746 414.706C345.014 416.092 347.912 418.15 349.256 419.578L351.356 417.31ZM350.012 423.274C348.122 427.894 345.518 433.312 343.712 436.504L346.442 438.436C348.458 434.614 350.726 429.532 352.448 425.164L350.012 423.274ZM359.504 426.508C359.504 429.742 358.496 433.942 351.86 436.798C352.532 437.26 353.624 438.142 354.17 438.73C361.268 435.58 362.528 430.582 362.528 426.55V422.182H359.504V426.508ZM371.81 438.73H374.876V422.14H371.81V438.73ZM372.146 408.49C371.096 411.178 369.5 413.278 367.4 414.958C364.88 413.278 362.99 411.136 361.646 408.49H372.146ZM380.714 408.49V405.718H368.744C368.324 404.248 367.358 402.274 366.476 400.762L363.62 401.56C364.334 402.82 364.964 404.374 365.468 405.718H354.086V408.49H358.622C360.134 411.808 362.192 414.496 364.796 416.596C361.646 418.318 357.698 419.41 353.12 420.082C353.624 420.754 354.338 422.098 354.548 422.854C359.588 421.846 363.914 420.502 367.358 418.36C370.76 420.334 374.918 421.636 379.874 422.35C380.252 421.51 381.05 420.25 381.722 419.578C377.144 419.032 373.238 418.024 370.004 416.428C372.398 414.412 374.246 411.808 375.464 408.49H380.714ZM396.212 423.736V427.684H389.912V423.736H396.212ZM405.326 427.684H399.068V423.736H405.326V427.684ZM399.068 434.32V430.12H405.326V434.32H399.068ZM389.912 434.32V430.12H396.212V434.32H389.912ZM387.056 439.108H389.912V436.798H405.326V438.646H408.308V421.258H387.056V439.108ZM403.562 415.714H391.382V411.01H403.562V415.714ZM388.526 408.49V418.234H406.544V408.49H388.526ZM385.922 405.508H408.938V402.778H385.922V405.508ZM414.44 405.928H411.668V429.028H414.44V405.928ZM418.934 401.686V435.16C418.934 435.874 418.64 436.126 417.884 436.126C417.212 436.168 414.818 436.21 412.13 436.084C412.592 436.966 413.054 438.352 413.18 439.192C416.75 439.234 418.892 439.15 420.194 438.604C421.454 438.1 421.958 437.176 421.958 435.16V401.686H418.934ZM448.292 422.518V411.388H460.346V422.518H448.292ZM433.046 422.518V411.388H445.058V422.518H433.046ZM448.292 408.322V400.846H445.058V408.322H429.98V428.188H433.046V425.584H445.058V439.192H448.292V425.584H460.346V427.978H463.538V408.322H448.292ZM482.648 404.374C486.596 407.188 491.468 411.304 493.778 413.908L496.004 411.598C493.61 408.952 488.612 405.004 484.706 402.316L482.648 404.374ZM500.078 415.672C502.43 420.586 504.698 427.18 505.538 431.506L508.604 430.288C507.722 425.962 505.412 419.536 502.976 414.538L500.078 415.672ZM473.996 415.63C473.408 420.544 472.022 427.096 470.216 431.38L473.324 432.682C475.046 428.23 476.348 421.132 477.02 416.218L473.996 415.63ZM480.674 412.48V433.144C480.674 437.302 481.934 438.436 486.47 438.436H494.912C499.574 438.436 500.54 436.126 501.002 428.188C500.12 427.936 498.818 427.39 498.062 426.802C497.726 434.026 497.348 435.496 494.744 435.496H486.722C484.328 435.496 483.824 435.118 483.824 433.186V412.48H480.674ZM518.768 425.752C515.282 425.752 512.384 428.608 512.384 432.136C512.384 435.706 515.282 438.562 518.768 438.562C522.338 438.562 525.194 435.706 525.194 432.136C525.194 428.608 522.338 425.752 518.768 425.752ZM518.768 436.42C516.458 436.42 514.526 434.53 514.526 432.136C514.526 429.826 516.458 427.894 518.768 427.894C521.162 427.894 523.052 429.826 523.052 432.136C523.052 434.53 521.162 436.42 518.768 436.42ZM56.18 468.44C54.71 466.928 51.602 464.87 49.25 463.484L47.15 465.374C49.544 466.844 52.61 469.112 54.038 470.582L56.18 468.44ZM54.584 476.462H46.142V479.36H51.602V492.842C49.838 493.682 47.864 495.446 45.89 497.63L47.822 500.15C49.922 497.378 52.022 494.942 53.408 494.942C54.374 494.942 55.802 496.328 57.44 497.378C60.338 499.142 63.824 499.646 68.906 499.646C73.316 499.646 80.498 499.436 83.312 499.226C83.354 498.386 83.816 496.958 84.194 496.202C79.952 496.622 73.778 496.958 68.948 496.958C64.328 496.958 60.884 496.622 58.112 494.942C56.432 493.892 55.508 493.052 54.584 492.632V476.462ZM60.758 486.542V483.392H67.31V486.542H60.758ZM67.31 478.478V481.502H60.758V478.478H67.31ZM69.872 476.168H58.238V494.438H60.758V488.432H67.31V491.834C67.31 492.212 67.184 492.296 66.806 492.296C66.428 492.338 65.336 492.338 64.034 492.296C64.328 492.926 64.706 493.808 64.832 494.48C66.722 494.48 67.982 494.48 68.78 494.06C69.62 493.682 69.872 493.052 69.872 491.792V476.168ZM73.106 489.104H75.542V476.966H73.106V489.104ZM81.59 476.084H78.902V491.834C78.902 492.254 78.776 492.38 78.314 492.422C77.894 492.422 76.424 492.422 74.828 492.38C75.206 493.052 75.584 493.976 75.71 494.69C77.936 494.69 79.406 494.648 80.33 494.27C81.296 493.85 81.59 493.262 81.59 491.876V476.084ZM63.656 471.044C65.924 469.448 68.108 467.642 69.914 465.71C71.972 467.894 74.03 469.616 76.046 471.044H63.656ZM70.082 461.72C66.638 466.298 60.422 470.54 54.626 472.892C55.298 473.564 56.012 474.488 56.39 475.16C58.7 474.152 61.052 472.808 63.278 471.296V473.438H76.256V471.17C78.398 472.64 80.54 473.9 82.766 474.95C83.144 474.152 83.942 473.144 84.572 472.598C79.994 470.624 75.542 468.104 71.468 463.946C71.762 463.652 72.056 463.274 72.266 462.938L70.082 461.72ZM88.268 497H107.63V493.682H99.104C97.55 493.682 95.66 493.85 94.064 493.976C101.288 487.13 106.118 480.872 106.118 474.74C106.118 469.238 102.674 465.626 97.172 465.626C93.266 465.626 90.62 467.432 88.1 470.162L90.326 472.346C92.006 470.33 94.19 468.776 96.71 468.776C100.532 468.776 102.38 471.338 102.38 474.866C102.38 480.158 97.928 486.29 88.268 494.732V497ZM121.813 497.546C127.651 497.546 131.389 492.212 131.389 481.502C131.389 470.834 127.651 465.626 121.813 465.626C115.933 465.626 112.195 470.792 112.195 481.502C112.195 492.212 115.933 497.546 121.813 497.546ZM121.813 494.48C118.285 494.48 115.933 490.574 115.933 481.502C115.933 472.514 118.285 468.692 121.813 468.692C125.299 468.692 127.651 472.514 127.651 481.502C127.651 490.574 125.299 494.48 121.813 494.48ZM145.53 497.546C151.368 497.546 155.106 492.212 155.106 481.502C155.106 470.834 151.368 465.626 145.53 465.626C139.65 465.626 135.912 470.792 135.912 481.502C135.912 492.212 139.65 497.546 145.53 497.546ZM145.53 494.48C142.002 494.48 139.65 490.574 139.65 481.502C139.65 472.514 142.002 468.692 145.53 468.692C149.016 468.692 151.368 472.514 151.368 481.502C151.368 490.574 149.016 494.48 145.53 494.48ZM169.247 497.546C175.085 497.546 178.823 492.212 178.823 481.502C178.823 470.834 175.085 465.626 169.247 465.626C163.367 465.626 159.629 470.792 159.629 481.502C159.629 492.212 163.367 497.546 169.247 497.546ZM169.247 494.48C165.719 494.48 163.367 490.574 163.367 481.502C163.367 472.514 165.719 468.692 169.247 468.692C172.733 468.692 175.085 472.514 175.085 481.502C175.085 490.574 172.733 494.48 169.247 494.48ZM195.022 495.152V485.618H213.67V495.152H195.022ZM216.862 482.72H200.188C207.16 479.024 213.208 473.858 216.652 467.18L214.552 465.878L214.048 466.046H199.18C200.23 464.87 201.112 463.652 201.91 462.476L198.424 461.72C195.904 465.71 191.158 470.372 184.396 473.648C185.068 474.11 186.076 475.286 186.538 476C190.486 473.942 193.804 471.506 196.492 468.902H212.032C209.554 472.556 205.9 475.748 201.742 478.31C199.81 476.63 197.038 474.53 194.812 473.018L192.46 474.824C194.518 476.294 196.996 478.31 198.844 479.99C193.972 482.594 188.596 484.442 183.388 485.534C184.018 486.206 184.732 487.55 184.984 488.39C187.294 487.844 189.646 487.172 191.956 486.374V500.192H195.022V498.008H213.67V500.192H216.862V482.72ZM228.706 498.134C230.596 495.362 231.982 490.91 232.864 487.55L230.092 486.584C229.294 489.86 227.824 494.06 225.892 496.664L228.706 498.134ZM241.348 496.79C238.702 496.79 238.198 496.538 238.198 495.278V486.164H235.132V495.32C235.132 498.722 236.434 499.604 241.222 499.604H250.714C254.788 499.604 255.754 498.26 256.216 492.8C255.334 492.59 254.074 492.128 253.36 491.624C253.15 496.076 252.772 496.79 250.504 496.79H241.348ZM251.218 488.81C249.244 486.626 245.128 483.77 241.81 481.838L239.626 483.728C243.07 485.744 247.06 488.768 248.908 490.91L251.218 488.81ZM254.914 487.214C257.014 490.742 259.324 495.488 260.29 498.344L263.356 497.126C262.264 494.27 259.786 489.65 257.728 486.164L254.914 487.214ZM246.22 467.894V461.846H243.028V467.894H226.186V470.876H243.028V477.974H228.874V480.914H260.836V477.974H246.22V470.876H263.356V467.894H246.22ZM274.192 466.13H304.516V463.568H271.294V475.286C271.294 482.048 271 491.792 267.766 498.722C268.396 498.974 269.74 499.898 270.244 500.444C273.73 493.136 274.192 482.342 274.192 475.286V466.13ZM298.93 473.606H280.744V471.002H298.93V473.606ZM298.93 478.142H280.744V475.538H298.93V478.142ZM301.954 469.028H290.11C290.446 468.314 290.782 467.558 291.16 466.802L287.674 466.214C287.548 467.012 287.254 468.062 287.002 469.028H277.888V480.116H288.178V484.862C288.178 485.24 288.052 485.408 287.548 485.408C287.044 485.45 285.406 485.45 283.516 485.408C283.894 486.08 284.356 487.004 284.524 487.718C287.044 487.718 288.64 487.718 289.69 487.34C290.782 486.92 291.076 486.332 291.076 484.904V480.116H301.954V469.028ZM286.96 489.692C288.598 491.246 290.656 493.388 291.664 494.732L293.806 493.22C292.756 491.96 290.656 489.86 289.06 488.39L286.96 489.692ZM281.668 480.788C279.82 482.468 277.216 484.358 274.822 485.702C275.536 486.122 276.586 487.004 277.09 487.55C279.316 486.08 282.256 483.728 284.314 481.712L281.668 480.788ZM303.928 485.702C302.206 484.316 298.804 482.132 296.242 480.704L294.31 482.342C296.872 483.938 300.19 486.206 301.912 487.592L303.928 485.702ZM276.04 498.344C277.342 496.286 278.434 492.968 279.19 490.49L276.88 489.608C276.208 492.086 274.99 495.32 273.604 497.294L276.04 498.344ZM286.666 497C284.44 497 284.062 496.832 284.062 495.824V489.734H281.29V495.866C281.29 498.806 282.382 499.562 286.54 499.562H294.562C297.838 499.562 298.762 498.512 299.098 493.934C298.3 493.808 297.166 493.388 296.536 492.926C296.368 496.538 296.074 497 294.31 497H286.666ZM298.174 489.86C299.938 492.17 302.08 495.362 303.088 497.21L305.608 495.992C304.516 494.186 302.332 491.162 300.568 488.936L298.174 489.86ZM328.413 475.286V469.91H337.737C335.763 471.8 333.621 473.606 331.353 475.286H328.413ZM339.795 489.272H322.785V485.114H339.795V489.272ZM322.785 496.118V491.75H339.795V496.118H322.785ZM348.111 478.1V475.286H336.015C339.837 472.136 343.281 468.608 346.221 464.744L343.575 463.316C342.147 465.248 340.551 467.096 338.787 468.86V467.138H328.413V461.888H325.347V467.138H314.637V469.91H325.347V475.286H310.983V478.1H327.321C322.029 481.502 316.149 484.274 310.059 486.416C310.647 487.046 311.655 488.306 312.033 488.978C314.595 488.012 317.199 486.878 319.719 485.66V500.192H322.785V498.848H339.795V500.024H342.987V482.468H325.641C327.951 481.124 330.219 479.654 332.403 478.1H348.111ZM357.561 501.494C361.971 499.94 364.827 496.496 364.827 491.96C364.827 489.02 363.567 487.13 361.257 487.13C359.535 487.13 358.065 488.18 358.065 490.154C358.065 492.128 359.493 493.136 361.215 493.136C361.467 493.136 361.677 493.136 361.929 493.094C361.719 495.95 359.871 497.924 356.637 499.268L357.561 501.494ZM74.072 549.18V556.656H55.718V549.18H74.072ZM52.61 561.402H55.718V559.47H74.072V561.276H77.306V546.282H52.61V561.402ZM57.86 530.028H73.358C71.258 532.548 68.402 534.858 65.21 536.832C62.186 534.942 59.54 532.758 57.524 530.406L57.86 530.028ZM76.214 527.088L75.668 527.256H60.212C61.136 526.08 61.976 524.82 62.732 523.56L59.75 522.51C56.81 527.676 51.728 532.38 46.478 535.236C47.192 535.782 48.368 536.958 48.872 537.546C51.14 536.16 53.408 534.396 55.55 532.38C57.482 534.606 59.834 536.622 62.438 538.47C57.02 541.326 50.93 543.426 45.386 544.602C45.932 545.274 46.646 546.576 46.898 547.416C52.946 545.988 59.456 543.594 65.252 540.318C70.46 543.468 76.424 545.862 82.514 547.248C82.976 546.408 83.816 545.106 84.53 544.392C78.734 543.258 73.022 541.2 68.15 538.554C72.308 535.74 75.92 532.422 78.356 528.558L76.214 527.088ZM117.668 523.644C116.66 525.408 114.854 527.886 113.468 529.524L115.988 530.49C117.458 529.02 119.348 526.794 120.902 524.652L117.668 523.644ZM101.33 529.398C100.532 527.802 98.558 525.408 96.752 523.77L94.148 525.03C95.912 526.71 97.802 529.188 98.6 530.784L101.33 529.398ZM105.782 542.082H108.848V535.824C114.14 538.47 120.398 541.83 123.758 544.014L125.27 541.494C121.994 539.436 115.946 536.37 110.78 533.892H125.438V530.994H108.848V522.888H105.782V530.994H89.57V533.892H103.262C99.86 537.42 94.274 540.318 88.772 541.62C89.486 542.25 90.368 543.384 90.788 544.14C96.5 542.502 102.128 539.184 105.782 535.026V542.082ZM125.606 550.44V547.5H108.344C108.68 546.114 108.932 544.644 109.142 543.048H105.908C105.698 544.602 105.446 546.156 105.068 547.5H89.36V550.44H103.934C101.834 554.304 97.634 556.95 88.478 558.378C89.108 559.05 89.864 560.394 90.116 561.234C100.532 559.386 105.11 555.9 107.336 550.692C110.57 556.572 116.324 559.89 124.724 561.234C125.144 560.31 125.984 559.008 126.698 558.294C119.096 557.454 113.552 554.85 110.486 550.44H125.606ZM142.364 527.718C140.6 526.542 137.072 524.61 134.51 523.392L132.788 525.618C135.35 527.004 138.836 529.02 140.558 530.238L142.364 527.718ZM140.222 539.058C138.374 537.882 134.888 536.034 132.452 534.816L130.73 537.084C133.292 538.428 136.736 540.444 138.458 541.62L140.222 539.058ZM134.342 560.646C136.82 556.782 139.76 551.574 141.944 547.164L139.676 545.106C137.24 549.852 134.006 555.396 131.738 558.546L134.342 560.646ZM163.154 556.53H148.244V547.878H163.154V556.53ZM168.866 538.092V535.068H157.358V527.802C160.97 527.172 164.33 526.374 167.06 525.45L164.624 523.014C159.962 524.694 151.52 525.996 144.296 526.752C144.59 527.466 145.01 528.642 145.178 529.398C148.16 529.104 151.31 528.726 154.376 528.264V535.068H142.28V538.092H154.376V544.98H145.346V561.192H148.244V559.428H163.154V560.982H166.136V544.98H157.358V538.092H168.866ZM191.294 526.29H175.166V529.104H191.294V526.29ZM192.764 554.304C191.966 551.364 190.118 546.45 188.522 542.712L185.918 543.426C186.758 545.4 187.598 547.668 188.354 549.81L178.4 551.91C180.038 548.13 181.592 543.51 182.684 539.1H192.008V536.244H173.654V539.1H179.45C178.4 543.972 176.636 548.886 176.048 550.272C175.376 551.826 174.83 552.96 174.158 553.128C174.494 553.926 174.998 555.396 175.124 556.026C175.124 555.984 175.124 555.942 175.166 555.9V556.068C176.132 555.48 177.644 555.018 189.236 552.414C189.53 553.464 189.782 554.43 189.992 555.186L192.764 554.304ZM201.584 532.506C201.668 529.566 201.71 526.542 201.71 523.56H198.644C198.644 526.542 198.644 529.566 198.518 532.506H192.554V535.488H198.392C197.888 545.022 196.208 553.716 190.538 558.924C191.336 559.386 192.428 560.436 192.974 561.192C199.106 555.312 200.87 545.82 201.458 535.488H207.716C207.254 550.356 206.666 555.858 205.574 557.076C205.154 557.622 204.692 557.748 203.978 557.706C203.054 557.706 200.87 557.706 198.518 557.496C199.064 558.378 199.4 559.638 199.484 560.562C201.71 560.688 203.978 560.73 205.28 560.604C206.624 560.436 207.422 560.1 208.304 559.008C209.732 557.16 210.236 551.238 210.782 534.06C210.782 533.64 210.824 532.506 210.824 532.506H201.584ZM215.528 558H234.89V554.682H226.364C224.81 554.682 222.92 554.85 221.324 554.976C228.548 548.13 233.378 541.872 233.378 535.74C233.378 530.238 229.934 526.626 224.432 526.626C220.526 526.626 217.88 528.432 215.36 531.162L217.586 533.346C219.266 531.33 221.45 529.776 223.97 529.776C227.792 529.776 229.64 532.338 229.64 535.866C229.64 541.158 225.188 547.29 215.528 555.732V558ZM249.073 558.546C254.911 558.546 258.649 553.212 258.649 542.502C258.649 531.834 254.911 526.626 249.073 526.626C243.193 526.626 239.455 531.792 239.455 542.502C239.455 553.212 243.193 558.546 249.073 558.546ZM249.073 555.48C245.545 555.48 243.193 551.574 243.193 542.502C243.193 533.514 245.545 529.692 249.073 529.692C252.559 529.692 254.911 533.514 254.911 542.502C254.911 551.574 252.559 555.48 249.073 555.48ZM272.79 558.546C278.628 558.546 282.366 553.212 282.366 542.502C282.366 531.834 278.628 526.626 272.79 526.626C266.91 526.626 263.172 531.792 263.172 542.502C263.172 553.212 266.91 558.546 272.79 558.546ZM272.79 555.48C269.262 555.48 266.91 551.574 266.91 542.502C266.91 533.514 269.262 529.692 272.79 529.692C276.276 529.692 278.628 533.514 278.628 542.502C278.628 551.574 276.276 555.48 272.79 555.48ZM296.381 549.39C294.155 552.414 290.669 555.522 287.351 557.58C288.107 558.042 289.241 559.134 289.787 559.68C293.063 557.37 296.801 553.8 299.279 550.44L296.381 549.39ZM311.963 550.776C315.155 553.422 319.061 557.118 320.867 559.596L323.555 557.706C321.665 555.354 317.675 551.7 314.483 549.222L311.963 550.776ZM305.957 522.468C301.421 528.39 293.399 533.934 286.091 537.084C286.889 537.798 287.687 538.89 288.191 539.646C290.417 538.596 292.727 537.252 294.995 535.782V538.512H304.403V543.804H288.989V546.744H304.403V557.454C304.403 558.084 304.193 558.252 303.479 558.294C302.807 558.294 300.455 558.336 297.893 558.252C298.397 559.05 298.985 560.352 299.153 561.234C302.429 561.276 304.529 561.192 305.831 560.688C307.175 560.184 307.637 559.302 307.637 557.454V546.744H323.051V543.804H307.637V538.512H316.667V535.656H295.163C299.069 533.094 302.765 530.07 305.789 526.794C310.997 532.506 316.793 536.118 323.639 539.226C324.059 538.26 324.983 537.168 325.697 536.538C318.683 533.682 312.635 530.196 307.637 524.736C307.889 524.4 308.141 524.148 308.393 523.812L305.957 522.468ZM349.805 536.37C353.921 533.724 358.331 530.364 362.783 526.332L360.431 524.568L359.843 524.82H343.001V527.802H356.483C352.871 531.12 348.797 533.934 347.411 534.816C345.773 535.866 344.261 536.706 343.211 536.874C343.631 537.63 344.303 539.142 344.513 539.814C344.849 539.478 346.235 539.31 348.167 539.31H351.107C349.385 543.888 346.361 547.71 342.581 550.188L342.035 547.794L337.541 549.474V535.992H342.119V533.052H337.541V523.35H334.601V533.052H329.519V535.992H334.601V550.524C332.417 551.322 330.443 551.994 328.889 552.498L329.897 555.648C333.551 554.262 338.255 552.372 342.665 550.608L342.581 550.272C343.253 550.734 344.387 551.532 344.765 551.994C348.797 549.096 352.199 544.686 354.089 539.31H357.617C355.013 548.256 350.267 555.186 343.169 559.386C343.883 559.764 345.059 560.688 345.563 561.192C352.661 556.446 357.659 549.138 360.515 539.31H363.371C362.573 551.532 361.733 556.32 360.599 557.454C360.221 558 359.843 558.084 359.171 558.084C358.415 558.084 356.903 558.042 355.181 557.874C355.643 558.714 355.937 559.974 355.979 560.856C357.785 560.94 359.465 560.94 360.473 560.814C361.691 560.73 362.489 560.394 363.287 559.428C364.757 557.664 365.639 552.54 366.479 537.84C366.563 537.462 366.605 536.37 366.605 536.37H349.805ZM376.265 562.494C380.675 560.94 383.531 557.496 383.531 552.96C383.531 550.02 382.271 548.13 379.961 548.13C378.239 548.13 376.769 549.18 376.769 551.154C376.769 553.128 378.197 554.136 379.919 554.136C380.171 554.136 380.381 554.136 380.633 554.094C380.423 556.95 378.575 558.924 375.341 560.268L376.265 562.494ZM419.525 544.14C419.567 542.46 419.609 540.822 419.609 539.394V537.084H425.951V544.14H419.525ZM425.951 527.298V534.186H419.609V527.298H425.951ZM428.849 524.4H416.753V539.394C416.753 545.568 416.543 553.884 413.645 559.764C414.401 560.058 415.661 560.772 416.207 561.276C418.097 557.328 418.979 552.078 419.357 547.122H425.951V557.454C425.951 558.042 425.741 558.21 425.153 558.252C424.649 558.294 422.885 558.294 420.953 558.252C421.373 559.05 421.793 560.436 421.835 561.234C424.691 561.234 426.371 561.192 427.421 560.646C428.513 560.1 428.849 559.176 428.849 557.496V524.4ZM448.043 541.578C447.077 545.148 445.649 548.298 443.843 550.986C441.911 548.214 440.399 545.022 439.265 541.578H448.043ZM449.639 538.596L449.093 538.68H435.485V527.424H447.245V532.548C447.245 533.052 447.077 533.22 446.405 533.22C445.775 533.262 443.591 533.262 441.029 533.22C441.449 533.976 441.911 535.026 442.037 535.866C445.187 535.866 447.287 535.866 448.631 535.446C449.891 534.984 450.269 534.186 450.269 532.59V524.526H432.545V561.234H435.485V541.578H436.535C437.921 545.904 439.769 549.936 442.121 553.338C440.189 555.606 438.005 557.412 435.695 558.672C436.325 559.218 437.123 560.268 437.543 560.982C439.853 559.638 441.995 557.832 443.885 555.606C445.901 557.958 448.169 559.848 450.689 561.276C451.151 560.52 451.991 559.47 452.705 558.882C450.059 557.58 447.707 555.69 445.691 553.38C448.337 549.642 450.353 544.938 451.445 539.226L449.639 538.596ZM475.679 546.156C475.973 544.98 476.267 543.636 476.477 542.25L473.243 541.998C473.075 543.51 472.781 544.896 472.445 546.156H459.929V548.886H471.479C469.085 554.262 464.423 557.076 457.031 558.504C457.619 559.134 458.417 560.436 458.753 561.15C466.985 559.176 472.151 555.648 474.797 548.886H487.523C486.809 554.388 485.969 556.95 485.003 557.748C484.541 558.084 484.037 558.126 483.197 558.126C482.147 558.126 479.501 558.084 476.855 557.832C477.401 558.63 477.779 559.764 477.821 560.604C480.299 560.772 482.819 560.772 484.037 560.73C485.591 560.646 486.515 560.436 487.439 559.596C488.867 558.294 489.833 555.144 490.715 547.542C490.841 547.122 490.883 546.156 490.883 546.156H475.679ZM468.749 529.86H485.717C483.239 532.338 479.795 534.354 475.847 535.95C472.613 534.564 469.967 532.758 468.119 530.448L468.749 529.86ZM488.657 527.004L488.111 527.172H471.185C472.193 525.954 473.075 524.694 473.873 523.476L470.597 522.804C468.455 526.458 464.297 530.784 458.417 533.766C459.089 534.27 459.929 535.362 460.349 536.076C462.491 534.858 464.423 533.598 466.103 532.212C467.825 534.186 469.925 535.824 472.361 537.168C467.405 538.764 461.903 539.772 456.569 540.276C457.073 540.99 457.619 542.208 457.829 543.006C463.919 542.25 470.219 540.99 475.805 538.806C480.677 540.822 486.515 541.956 492.941 542.502C493.319 541.62 494.033 540.402 494.663 539.688C489.077 539.352 483.869 538.596 479.501 537.252C484.121 534.984 488.027 532.086 490.547 528.306L488.657 527.004ZM510.161 547.374H516.671V544.602H510.161V538.638H516.755C517.385 539.1 518.099 539.73 518.435 540.108C522.929 537.462 525.533 533.556 526.373 527.298H532.799C532.505 532.758 532.127 534.9 531.581 535.53C531.329 535.866 530.909 535.95 530.321 535.908C529.691 535.908 528.053 535.908 526.331 535.74C526.751 536.496 527.045 537.588 527.129 538.428C528.977 538.512 530.741 538.554 531.707 538.428C532.757 538.344 533.513 538.092 534.143 537.378C535.067 536.328 535.445 533.388 535.823 525.912C535.865 525.492 535.865 524.61 535.865 524.61H517.511V527.298H523.349C522.761 532.254 520.787 535.53 517.049 537.672V535.866H509.657V530.7H516.209V527.928H509.657V522.888H506.759V527.928H500.081V530.7H506.759V535.866H499.283V538.638H507.347V554.052C505.751 552.582 504.617 550.566 503.735 547.794C503.861 545.904 503.945 543.888 503.987 541.83L501.131 541.662C501.047 549.012 500.627 555.564 498.233 559.764C498.947 560.1 500.207 560.898 500.711 561.276C501.971 559.008 502.685 556.236 503.189 553.044C506.255 558.756 511.211 560.142 520.157 560.142H536.201C536.411 559.218 536.957 557.79 537.503 557.034C534.899 557.16 522.131 557.16 520.073 557.118C515.915 557.118 512.681 556.782 510.161 555.774V547.374ZM521.837 543.342H531.833V551.07H521.837V543.342ZM518.897 553.674H534.899V540.738H518.897V553.674ZM569.549 549.936C569.549 550.65 569.255 550.902 568.415 550.944C567.575 550.944 564.635 550.944 561.611 550.86C562.073 551.742 562.577 553.128 562.703 554.01C566.651 554.01 569.213 553.926 570.641 553.422C572.111 552.96 572.657 552.036 572.657 549.936V533.346H578.453V530.364H572.657V523.014H569.549V530.364H553.421V533.346H569.549V549.936ZM555.395 538.008C557.537 540.612 560.057 544.266 561.233 546.45L563.879 544.854C562.661 542.67 559.973 539.226 557.873 536.664L555.395 538.008ZM551.573 530.952C550.313 528.978 547.541 526.08 545.231 523.98L542.837 525.576C545.147 527.718 547.835 530.784 549.011 532.758L551.573 530.952ZM550.439 538.512H541.619V541.452H547.373V552.372C545.525 553.086 543.299 554.934 541.073 557.328L543.257 560.268C545.399 557.412 547.415 554.934 548.801 554.934C549.725 554.934 551.111 556.32 552.833 557.412C555.731 559.26 559.217 559.722 564.383 559.722C568.415 559.722 575.765 559.512 578.747 559.302C578.789 558.336 579.293 556.782 579.713 555.942C575.639 556.362 569.381 556.74 564.467 556.74C559.847 556.74 556.235 556.404 553.547 554.724C552.119 553.842 551.237 553.086 550.439 552.582V538.512ZM583.619 558H602.981V554.682H594.455C592.901 554.682 591.011 554.85 589.415 554.976C596.639 548.13 601.469 541.872 601.469 535.74C601.469 530.238 598.025 526.626 592.523 526.626C588.617 526.626 585.971 528.432 583.451 531.162L585.677 533.346C587.357 531.33 589.541 529.776 592.061 529.776C595.883 529.776 597.731 532.338 597.731 535.866C597.731 541.158 593.279 547.29 583.619 555.732V558ZM609.183 558H626.067V554.808H619.893V527.172H616.953C615.273 528.18 613.299 528.894 610.569 529.398V531.834H616.029V554.808H609.183V558ZM640.88 558.546C646.718 558.546 650.456 553.212 650.456 542.502C650.456 531.834 646.718 526.626 640.88 526.626C635 526.626 631.262 531.792 631.262 542.502C631.262 553.212 635 558.546 640.88 558.546ZM640.88 555.48C637.352 555.48 635 551.574 635 542.502C635 533.514 637.352 529.692 640.88 529.692C644.366 529.692 646.718 533.514 646.718 542.502C646.718 551.574 644.366 555.48 640.88 555.48ZM664.597 558.546C670.435 558.546 674.173 553.212 674.173 542.502C674.173 531.834 670.435 526.626 664.597 526.626C658.717 526.626 654.979 531.792 654.979 542.502C654.979 553.212 658.717 558.546 664.597 558.546ZM664.597 555.48C661.069 555.48 658.717 551.574 658.717 542.502C658.717 533.514 661.069 529.692 664.597 529.692C668.083 529.692 670.435 533.514 670.435 542.502C670.435 551.574 668.083 555.48 664.597 555.48ZM688.314 558.546C694.152 558.546 697.89 553.212 697.89 542.502C697.89 531.834 694.152 526.626 688.314 526.626C682.434 526.626 678.696 531.792 678.696 542.502C678.696 553.212 682.434 558.546 688.314 558.546ZM688.314 555.48C684.786 555.48 682.434 551.574 682.434 542.502C682.434 533.514 684.786 529.692 688.314 529.692C691.8 529.692 694.152 533.514 694.152 542.502C694.152 551.574 691.8 555.48 688.314 555.48ZM719.591 523.014C719.465 529.398 719.717 549.81 702.287 558.63C703.253 559.26 704.261 560.226 704.807 561.066C715.055 555.606 719.507 546.198 721.439 537.798C723.455 545.61 727.949 555.984 738.449 560.898C738.911 560.016 739.835 558.966 740.717 558.252C725.891 551.658 723.371 534.102 722.741 529.104C722.951 526.626 722.993 524.526 723.035 523.014H719.591ZM748.613 558.546C750.125 558.546 751.385 557.37 751.385 555.648C751.385 553.884 750.125 552.666 748.613 552.666C747.101 552.666 745.841 553.884 745.841 555.648C745.841 557.37 747.101 558.546 748.613 558.546ZM57.902 611.104C55.55 614.254 50.846 617.908 46.73 620.05C47.486 620.638 48.62 621.646 49.208 622.276C53.408 619.84 58.154 615.976 61.136 612.364L57.902 611.104ZM68.654 612.658C72.602 615.598 77.642 619.756 80.12 622.234L83.06 620.302C80.414 617.824 75.206 613.792 71.342 611.062L68.654 612.658ZM59.036 595.732H70.964V605.644H59.036V595.732ZM74.156 605.644V595.732H82.472V592.708H74.156V584.224H70.964V592.708H59.036V584.224H55.886V592.708H47.906V595.732H55.886V605.644H46.226V608.668H83.984V605.644H74.156ZM112.922 603.124V611.062H101.918V603.124H112.922ZM115.862 613.75V600.478H99.02V616.774H101.918V613.75H115.862ZM118.088 593.38H96.92V596.11H118.088V593.38ZM124.682 586.03H90.242V622.318H93.266V589.012H121.616V618.286C121.616 618.958 121.364 619.21 120.608 619.252C119.894 619.294 117.458 619.294 114.812 619.21C115.316 620.05 115.82 621.394 115.946 622.276C119.558 622.276 121.658 622.192 122.96 621.688C124.22 621.142 124.682 620.218 124.682 618.286V586.03ZM144.296 602.158H135.476V593.38H144.296V602.158ZM135.476 615.01V604.93H144.296V615.01H135.476ZM139.004 583.762C138.71 585.736 137.954 588.55 137.324 590.566H132.62V621.142H135.476V617.824H147.152V590.566H140.18C140.894 588.76 141.65 586.45 142.364 584.392L139.004 583.762ZM167.69 590.44H155.132C155.846 588.466 156.434 586.45 156.938 584.392L153.956 583.678C152.612 589.432 150.344 595.228 147.53 598.924C148.202 599.344 149.546 600.184 150.092 600.688C151.562 598.714 152.864 596.152 154.04 593.338H164.708C164.162 610.054 163.532 616.438 162.146 617.908C161.726 618.454 161.264 618.538 160.424 618.538C159.458 618.538 156.938 618.538 154.208 618.286C154.796 619.168 155.174 620.428 155.258 621.352C157.61 621.478 160.004 621.562 161.474 621.394C162.902 621.268 163.868 620.89 164.792 619.714C166.472 617.656 167.018 611.188 167.69 592.036V590.44ZM161.054 609.34C159.71 606.862 156.812 602.83 154.46 599.848L152.024 601.276C154.334 604.3 157.148 608.458 158.408 610.978L161.054 609.34ZM181.088 616.06V609.172H203.054V616.06H181.088ZM203.054 599.302V606.19H181.088V599.302H203.054ZM203.054 589.516V596.32H181.088V589.516H203.054ZM178.022 586.492V621.982H181.088V619.126H203.054V621.982H206.288V586.492H178.022ZM251.396 587.08H233.21V590.02H251.396V587.08ZM230.984 603.88C230.186 602.788 226.616 598.252 225.356 596.74V595.648H230.774V592.708H225.356V583.888H222.248V592.708H215.906V595.648H221.576C220.232 600.856 217.502 606.82 214.814 609.97C215.402 610.726 216.242 611.986 216.578 612.868C218.72 610.18 220.736 605.812 222.248 601.318V622.192H225.356V600.352C226.742 602.41 228.464 605.014 229.136 606.358L230.984 603.88ZM234.302 604.636C233.21 609.088 231.32 613.582 229.01 616.522C229.724 616.858 230.942 617.74 231.488 618.16C233.756 614.968 235.856 610.096 237.158 605.266L234.302 604.636ZM253.622 599.974V597.034H231.404V599.974H240.35V618.202C240.35 618.748 240.182 618.874 239.552 618.916C239.006 618.958 237.074 618.958 234.89 618.874C235.268 619.798 235.73 621.142 235.856 622.066C238.796 622.066 240.728 622.024 241.904 621.436C243.122 620.932 243.458 620.008 243.458 618.244V599.974H253.622ZM246.314 605.35C248.288 609.466 250.22 614.926 250.808 618.202L253.706 617.194C252.992 613.876 250.934 608.584 248.918 604.552L246.314 605.35ZM267.818 583.762C265.382 590.104 261.308 596.362 257.066 600.352C257.654 601.024 258.536 602.662 258.83 603.376C260.384 601.822 261.98 599.974 263.45 597.916V622.402H266.432V593.422C268.07 590.608 269.582 587.626 270.758 584.686L267.818 583.762ZM273.74 604.342V598.126H281.216V602.452C281.216 603.082 281.216 603.712 281.174 604.342H273.74ZM292.01 598.126V604.342H284.24C284.282 603.712 284.282 603.082 284.282 602.452V598.126H292.01ZM294.992 606.988V595.48H284.282V591.364H296.378V588.508H284.282V584.056H281.216V588.508H269.624V591.364H281.216V595.48H270.842V606.988H281.006C280.712 609.298 280.082 611.524 278.738 613.456C276.512 611.902 274.706 610.054 273.446 607.87L270.842 608.71C272.396 611.398 274.454 613.666 276.932 615.514C274.958 617.278 272.186 618.706 268.07 619.756C268.742 620.386 269.624 621.688 269.96 622.36C274.328 621.058 277.352 619.294 279.452 617.236C283.736 619.798 288.986 621.436 294.908 622.318C295.328 621.394 296.084 620.176 296.756 619.504C290.792 618.79 285.5 617.362 281.3 615.052C282.98 612.616 283.736 609.886 284.072 606.988H294.992ZM337.076 591.952C335.732 589.978 332.792 587.038 330.398 584.98L328.004 586.618C330.44 588.76 333.296 591.784 334.556 593.758L337.076 591.952ZM333.338 601.108C331.91 603.796 330.062 606.358 327.836 608.752C327.122 605.98 326.534 602.746 326.114 599.176H338.126V596.194H325.778C325.442 592.456 325.274 588.424 325.274 584.224H322.082C322.124 588.34 322.292 592.372 322.67 596.194H313.052V588.886C315.614 588.34 318.05 587.668 320.066 586.954L317.84 584.392C313.892 585.862 307.13 587.29 301.25 588.172C301.67 588.928 302.09 590.02 302.258 590.776C304.736 590.44 307.382 590.02 309.986 589.516V596.194H300.998V599.176H309.986V606.526C306.332 607.282 302.93 607.996 300.41 608.416L301.292 611.566C303.812 611.02 306.836 610.306 309.986 609.634V618.16C309.986 618.916 309.734 619.126 308.978 619.126C308.264 619.168 305.786 619.21 303.098 619.084C303.56 619.966 304.106 621.394 304.274 622.234C307.676 622.234 309.944 622.15 311.246 621.646C312.548 621.142 313.052 620.218 313.052 618.202V608.878C315.614 608.29 318.218 607.702 320.78 607.072L320.57 604.258C318.092 604.804 315.53 605.35 313.052 605.896V599.176H322.922C323.468 603.712 324.266 607.87 325.274 611.356C322.292 614.128 318.848 616.438 315.32 618.16C316.118 618.832 317 619.882 317.462 620.638C320.612 619 323.594 616.9 326.324 614.464C328.256 619.378 330.776 622.318 334.094 622.318C337.244 622.318 338.336 620.302 338.924 613.372C338.042 613.078 336.95 612.364 336.278 611.692C336.026 617.068 335.522 619.21 334.388 619.21C332.288 619.21 330.398 616.522 328.802 612.112C331.742 609.13 334.22 605.812 336.11 602.242L333.338 601.108ZM350.516 584.098C348.71 590.524 345.896 596.95 342.578 601.192C343.124 601.906 344.006 603.628 344.258 604.3C345.266 602.998 346.232 601.528 347.156 599.89V622.192H350.18V593.842C351.398 590.986 352.532 587.92 353.372 584.896L350.516 584.098ZM355.22 622.234H358.244V592.288H355.22V622.234ZM356.942 585.19C358.832 587.752 360.932 591.28 361.814 593.38L364.376 591.91C363.41 589.81 361.226 586.408 359.378 583.888L356.942 585.19ZM379.496 585.4H365.09V588.256H376.43V618.202C376.43 618.916 376.22 619.126 375.506 619.168C374.834 619.21 372.524 619.252 370.13 619.126C370.55 619.966 371.012 621.31 371.138 622.108C374.414 622.108 376.556 622.066 377.816 621.562C379.034 621.058 379.496 620.176 379.496 618.244V585.4ZM405.83 609.802H419.774V606.946H405.83V600.394H422.546V597.454H405.83V591.7H419.438V588.802H405.83V583.972H402.68V588.802H389.744V591.7H402.68V597.454H386.132V600.394H402.68V617.068C399.278 615.682 396.548 613.246 394.784 609.004C395.246 607.072 395.624 605.14 395.876 603.292L392.684 602.872C392.054 609.046 390.038 616.354 384.998 620.26C385.628 620.722 386.762 621.73 387.308 622.318C390.206 619.966 392.222 616.522 393.608 612.784C397.808 620.134 404.57 621.688 413.516 621.688H422.504C422.672 620.806 423.218 619.378 423.638 618.622C421.832 618.664 415.028 618.706 413.642 618.664C410.87 618.664 408.224 618.496 405.83 617.992V609.802ZM441.152 608.458H449.51V605.686H441.152V601.192H438.17V605.686H429.98V608.458H438.17V615.514C434.516 616.144 431.114 616.774 428.552 617.194L429.224 620.092C434.726 619.042 442.664 617.53 450.098 616.102L449.888 613.372C446.99 613.918 444.008 614.464 441.152 615.01V608.458ZM428.888 589.39H435.524C434.18 592.372 432.5 594.976 431.87 595.816C431.156 596.824 430.526 597.538 429.854 597.664C430.232 598.462 430.736 599.932 430.904 600.604C431.912 600.142 433.424 599.974 446.486 598.714C447.116 599.68 447.62 600.604 447.956 601.318L450.35 599.764C449.132 597.37 446.36 593.59 444.008 590.776L441.782 592.12C442.79 593.38 443.882 594.808 444.89 596.278L434.18 597.202C435.86 594.976 437.582 592.162 439.01 589.39H450.35V586.618H428.888V589.39ZM455.6 587.5H452.66V612.742H455.6V587.5ZM460.892 584.56V617.362C460.892 618.076 460.724 618.244 460.01 618.286C459.296 618.328 456.986 618.328 454.55 618.244C455.012 619.084 455.558 620.512 455.684 621.31C458.708 621.31 460.934 621.226 462.236 620.722C463.496 620.26 463.958 619.294 463.958 617.32V584.56H460.892ZM470.216 600.94V604.342H508.352V600.94H470.216ZM545.48 597.37H533.636V611.02C533.636 614.548 534.77 615.472 538.676 615.472H546.026C549.596 615.472 550.478 613.918 550.898 607.996C550.016 607.744 548.756 607.282 548.084 606.778C547.916 611.776 547.58 612.616 545.816 612.616H538.97C536.954 612.616 536.66 612.406 536.66 611.02V600.142H545.48V601.192H548.504V585.862H533.216V588.634H545.48V597.37ZM524.438 608.416H531.242V605.644H524.438V599.428H531.662V596.656H523.808V591.322H530.57V588.592H523.808V583.93H520.826V588.592H513.896V591.322H520.826V596.656H512.804V599.428H521.582V615.346C519.818 613.918 518.516 611.818 517.592 608.752C517.718 606.904 517.802 604.972 517.844 602.956L514.904 602.746C514.778 610.18 514.316 616.858 511.922 621.058C512.594 621.394 513.98 622.15 514.484 622.57C515.702 620.218 516.5 617.32 517.004 614.002C520.07 619.756 525.026 621.142 533.93 621.142H549.932C550.142 620.218 550.73 618.79 551.192 618.034C548.672 618.16 535.904 618.16 533.888 618.118C529.982 618.118 526.874 617.824 524.438 616.9V608.416ZM559.634 623.494C564.044 621.94 566.9 618.496 566.9 613.96C566.9 611.02 565.64 609.13 563.33 609.13C561.608 609.13 560.138 610.18 560.138 612.154C560.138 614.128 561.566 615.136 563.288 615.136C563.54 615.136 563.75 615.136 564.002 615.094C563.792 617.95 561.944 619.924 558.71 621.268L559.634 623.494ZM82.934 650.936V647.828H47.066V650.936H65.63C61.472 658.118 54.29 665.09 46.016 669.248C46.646 669.962 47.654 671.18 48.116 671.978C53.954 668.912 59.078 664.586 63.32 659.756V683.108H66.638V655.556C67.688 654.002 68.696 652.49 69.62 650.936H82.934ZM67.478 659.966C72.434 663.242 78.65 668.198 81.632 671.39L84.11 668.996C81.044 665.804 74.66 661.1 69.788 657.95L67.478 659.966ZM112.922 664.124V672.062H101.918V664.124H112.922ZM115.862 674.75V661.478H99.02V677.774H101.918V674.75H115.862ZM118.088 654.38H96.92V657.11H118.088V654.38ZM124.682 647.03H90.242V683.318H93.266V650.012H121.616V679.286C121.616 679.958 121.364 680.21 120.608 680.252C119.894 680.294 117.458 680.294 114.812 680.21C115.316 681.05 115.82 682.394 115.946 683.276C119.558 683.276 121.658 683.192 122.96 682.688C124.22 682.142 124.682 681.218 124.682 679.286V647.03ZM144.296 663.158H135.476V654.38H144.296V663.158ZM135.476 676.01V665.93H144.296V676.01H135.476ZM139.004 644.762C138.71 646.736 137.954 649.55 137.324 651.566H132.62V682.142H135.476V678.824H147.152V651.566H140.18C140.894 649.76 141.65 647.45 142.364 645.392L139.004 644.762ZM167.69 651.44H155.132C155.846 649.466 156.434 647.45 156.938 645.392L153.956 644.678C152.612 650.432 150.344 656.228 147.53 659.924C148.202 660.344 149.546 661.184 150.092 661.688C151.562 659.714 152.864 657.152 154.04 654.338H164.708C164.162 671.054 163.532 677.438 162.146 678.908C161.726 679.454 161.264 679.538 160.424 679.538C159.458 679.538 156.938 679.538 154.208 679.286C154.796 680.168 155.174 681.428 155.258 682.352C157.61 682.478 160.004 682.562 161.474 682.394C162.902 682.268 163.868 681.89 164.792 680.714C166.472 678.656 167.018 672.188 167.69 653.036V651.44ZM161.054 670.34C159.71 667.862 156.812 663.83 154.46 660.848L152.024 662.276C154.334 665.3 157.148 669.458 158.408 671.978L161.054 670.34ZM206.582 663.2C209.9 663.2 210.824 661.772 211.202 656.732C210.32 656.522 209.06 656.06 208.43 655.514C208.22 659.672 207.926 660.386 206.33 660.386H199.694C197.804 660.386 197.468 660.092 197.468 658.79V654.548C201.5 653.33 205.952 651.86 209.27 650.306L207.17 648.038C204.776 649.256 201.038 650.81 197.468 651.986V644.972H194.402V658.832C194.402 662.234 195.452 663.2 199.442 663.2H206.582ZM178.526 672.23V668.408H187.388V672.23H178.526ZM187.388 662.36V665.93H178.526V662.36H187.388ZM190.454 659.714H175.628V683.192H178.526V674.666H187.388V679.58C187.388 680.126 187.262 680.252 186.674 680.252C186.128 680.294 184.364 680.336 182.39 680.252C182.81 681.05 183.23 682.268 183.398 683.108C186.044 683.108 187.85 683.066 188.984 682.562C190.16 682.058 190.454 681.218 190.454 679.622V659.714ZM184.406 648.416C185.414 649.802 186.506 651.44 187.43 653.078L178.232 653.624C180.038 651.398 181.928 648.542 183.356 645.77L180.164 644.762C178.82 648.038 176.51 651.356 175.796 652.238C175.082 653.12 174.494 653.708 173.864 653.876C174.242 654.632 174.704 656.186 174.872 656.816C175.796 656.48 177.224 656.27 188.69 655.43C189.068 656.27 189.362 656.984 189.614 657.656L192.344 656.438C191.462 653.96 189.11 650.18 186.968 647.366L184.406 648.416ZM199.82 680.084C197.888 680.084 197.51 679.832 197.51 678.446V673.574C201.752 672.398 206.54 670.802 209.732 668.912L207.674 666.602C205.322 668.156 201.29 669.752 197.51 670.97V664.376H194.402V678.446C194.402 681.89 195.494 682.856 199.526 682.856H206.792C210.278 682.856 211.202 681.386 211.58 675.716C210.698 675.548 209.48 675.044 208.808 674.582C208.598 679.244 208.262 680.084 206.54 680.084H199.82ZM234.176 654.002C234.176 653.372 234.176 652.784 234.176 652.196V644.93H230.942V652.196C230.942 652.784 230.942 653.372 230.942 654.002H217.334V657.11H230.774C230.144 664.964 227.456 674.162 216.074 680.924C216.83 681.428 217.964 682.646 218.468 683.402C230.648 675.968 233.42 665.804 234.008 657.11H248.33C247.532 671.894 246.608 677.816 245.096 679.244C244.592 679.748 244.046 679.874 243.164 679.874C242.114 679.874 239.426 679.832 236.57 679.58C237.2 680.504 237.578 681.848 237.62 682.772C240.182 682.94 242.87 683.024 244.34 682.898C245.936 682.73 246.944 682.394 247.91 681.218C249.758 679.118 250.64 672.86 251.564 655.64C251.606 655.178 251.648 654.002 251.648 654.002H234.176ZM270.254 651.734C268.826 650.18 265.97 647.45 263.828 645.56L261.896 647.576C264.038 649.55 266.852 652.406 268.28 654.044L270.254 651.734ZM267.692 675.632V658.034H258.2V661.016H264.752V675.548C264.752 677.816 262.988 679.58 262.106 680.336C262.694 680.714 263.744 681.722 264.122 682.268C264.752 681.428 265.844 680.504 273.614 674.54C273.32 673.952 272.858 672.776 272.69 671.936L267.692 675.632ZM283.904 678.866V661.604H293.102V658.622H283.904V645.182H280.796V678.866H270.716V681.932H296.126V678.866H283.904ZM337.076 652.952C335.732 650.978 332.792 648.038 330.398 645.98L328.004 647.618C330.44 649.76 333.296 652.784 334.556 654.758L337.076 652.952ZM333.338 662.108C331.91 664.796 330.062 667.358 327.836 669.752C327.122 666.98 326.534 663.746 326.114 660.176H338.126V657.194H325.778C325.442 653.456 325.274 649.424 325.274 645.224H322.082C322.124 649.34 322.292 653.372 322.67 657.194H313.052V649.886C315.614 649.34 318.05 648.668 320.066 647.954L317.84 645.392C313.892 646.862 307.13 648.29 301.25 649.172C301.67 649.928 302.09 651.02 302.258 651.776C304.736 651.44 307.382 651.02 309.986 650.516V657.194H300.998V660.176H309.986V667.526C306.332 668.282 302.93 668.996 300.41 669.416L301.292 672.566C303.812 672.02 306.836 671.306 309.986 670.634V679.16C309.986 679.916 309.734 680.126 308.978 680.126C308.264 680.168 305.786 680.21 303.098 680.084C303.56 680.966 304.106 682.394 304.274 683.234C307.676 683.234 309.944 683.15 311.246 682.646C312.548 682.142 313.052 681.218 313.052 679.202V669.878C315.614 669.29 318.218 668.702 320.78 668.072L320.57 665.258C318.092 665.804 315.53 666.35 313.052 666.896V660.176H322.922C323.468 664.712 324.266 668.87 325.274 672.356C322.292 675.128 318.848 677.438 315.32 679.16C316.118 679.832 317 680.882 317.462 681.638C320.612 680 323.594 677.9 326.324 675.464C328.256 680.378 330.776 683.318 334.094 683.318C337.244 683.318 338.336 681.302 338.924 674.372C338.042 674.078 336.95 673.364 336.278 672.692C336.026 678.068 335.522 680.21 334.388 680.21C332.288 680.21 330.398 677.522 328.802 673.112C331.742 670.13 334.22 666.812 336.11 663.242L333.338 662.108ZM350.516 645.098C348.71 651.524 345.896 657.95 342.578 662.192C343.124 662.906 344.006 664.628 344.258 665.3C345.266 663.998 346.232 662.528 347.156 660.89V683.192H350.18V654.842C351.398 651.986 352.532 648.92 353.372 645.896L350.516 645.098ZM355.22 683.234H358.244V653.288H355.22V683.234ZM356.942 646.19C358.832 648.752 360.932 652.28 361.814 654.38L364.376 652.91C363.41 650.81 361.226 647.408 359.378 644.888L356.942 646.19ZM379.496 646.4H365.09V649.256H376.43V679.202C376.43 679.916 376.22 680.126 375.506 680.168C374.834 680.21 372.524 680.252 370.13 680.126C370.55 680.966 371.012 682.31 371.138 683.108C374.414 683.108 376.556 683.066 377.816 682.562C379.034 682.058 379.496 681.176 379.496 679.244V646.4ZM408.644 657.74V661.436H401.63V657.74H408.644ZM418.766 657.74V661.436H411.458V657.74H418.766ZM411.458 667.568V663.746H418.766V667.568H411.458ZM401.63 667.568V663.746H408.644V667.568H401.63ZM401.63 669.962H408.644V676.808H411.458V669.962H418.766V673.784C418.766 674.33 418.598 674.498 418.052 674.498C417.548 674.498 415.784 674.54 413.81 674.456C414.188 675.212 414.524 676.262 414.65 677.06C417.464 677.06 419.228 677.018 420.32 676.556C421.412 676.094 421.748 675.38 421.748 673.826V655.346H416.246C415.406 654.842 414.314 654.254 413.138 653.708C416.246 652.07 419.438 649.886 421.706 647.702L419.816 646.232L419.186 646.4H398.69V648.878H416.372C414.65 650.138 412.508 651.482 410.45 652.448C408.392 651.566 406.208 650.684 404.36 650.012L402.386 651.776C404.948 652.742 408.014 654.086 410.576 655.346H398.648V676.934H401.63V669.962ZM395.582 653.414C394.07 651.524 390.836 648.584 388.358 646.526L386.174 648.29C388.694 650.474 391.844 653.54 393.314 655.472L395.582 653.414ZM394.196 660.512H385.292V663.452H391.172V675.296C389.366 676.052 387.266 677.942 385.124 680.21L387.098 682.772C389.198 679.958 391.256 677.564 392.684 677.564C393.65 677.564 395.12 678.95 396.758 679.958C399.74 681.764 403.184 682.268 408.35 682.268C412.844 682.268 420.152 682.016 423.05 681.848C423.134 680.966 423.554 679.58 423.89 678.782C419.606 679.202 413.306 679.58 408.434 679.58C403.772 679.58 400.202 679.244 397.43 677.522C395.918 676.64 395.036 675.842 394.196 675.38V660.512ZM446.276 654.002C446.276 653.372 446.276 652.784 446.276 652.196V644.93H443.042V652.196C443.042 652.784 443.042 653.372 443.042 654.002H429.434V657.11H442.874C442.244 664.964 439.556 674.162 428.174 680.924C428.93 681.428 430.064 682.646 430.568 683.402C442.748 675.968 445.52 665.804 446.108 657.11H460.43C459.632 671.894 458.708 677.816 457.196 679.244C456.692 679.748 456.146 679.874 455.264 679.874C454.214 679.874 451.526 679.832 448.67 679.58C449.3 680.504 449.678 681.848 449.72 682.772C452.282 682.94 454.97 683.024 456.44 682.898C458.036 682.73 459.044 682.394 460.01 681.218C461.858 679.118 462.74 672.86 463.664 655.64C463.706 655.178 463.748 654.002 463.748 654.002H446.276ZM499.154 669.206V677.9H479.666V669.206H499.154ZM476.516 683.15H479.666V680.798H499.154V682.982H502.388V666.434H476.516V683.15ZM479.834 658.496C483.404 656.144 486.722 653.372 489.452 650.222C492.602 653.582 495.962 656.228 499.658 658.496H479.834ZM489.872 644.762C485.63 651.23 477.944 656.774 470.006 659.924C470.888 660.638 471.728 661.814 472.274 662.654C474.458 661.688 476.6 660.512 478.7 659.252V661.394H499.742V658.538C501.884 659.924 504.152 661.1 506.546 662.276C507.008 661.31 507.89 660.134 508.688 659.462C502.01 656.648 496.172 653.204 491.258 647.996C491.72 647.366 492.182 646.778 492.602 646.106L489.872 644.762ZM522.674 645.014C520.322 651.398 516.458 657.656 512.3 661.688C512.888 662.36 513.812 664.082 514.106 664.796C515.534 663.326 516.962 661.646 518.264 659.798V683.15H521.372V654.968C523.01 652.07 524.522 649.004 525.656 645.98L522.674 645.014ZM550.856 654.842V651.86H533.384C534.224 650.012 535.022 648.122 535.694 646.19L532.712 645.392C530.654 651.524 527.252 657.572 523.472 661.478C524.186 661.982 525.404 663.032 525.908 663.578C528.008 661.226 530.066 658.202 531.872 654.842H534.77V683.192H537.92V673.028H550.478V670.088H537.92V663.746H549.89V660.848H537.92V654.842H550.856ZM561.188 669.752C557.702 669.752 554.804 672.608 554.804 676.136C554.804 679.706 557.702 682.562 561.188 682.562C564.758 682.562 567.614 679.706 567.614 676.136C567.614 672.608 564.758 669.752 561.188 669.752ZM561.188 680.42C558.878 680.42 556.946 678.53 556.946 676.136C556.946 673.826 558.878 671.894 561.188 671.894C563.582 671.894 565.472 673.826 565.472 676.136C565.472 678.53 563.582 680.42 561.188 680.42ZM55.256 706.014C52.904 712.398 48.998 718.656 44.882 722.688C45.47 723.402 46.352 724.998 46.688 725.712C48.074 724.242 49.502 722.562 50.804 720.714V744.15H53.87V715.968C55.508 713.07 56.978 710.004 58.196 706.938L55.256 706.014ZM83.9 721.512V718.614H67.898C68.36 716.976 68.864 715.296 69.284 713.616H82.01V710.718H70.082C70.46 709.29 70.838 707.82 71.174 706.518L68.066 706.098C67.73 707.568 67.31 709.122 66.932 710.718H58.742V713.616H66.134C65.672 715.254 65.21 716.976 64.748 718.614H56.348V721.512H63.866C62.984 724.494 62.102 727.266 61.304 729.45H76.214C74.408 731.55 72.14 734.07 69.998 736.38C68.654 735.456 67.268 734.574 65.966 733.776L63.74 735.666C67.646 738.144 72.392 741.84 74.66 744.234L76.97 741.924C75.836 740.79 74.198 739.446 72.392 738.102C75.584 734.574 79.112 730.626 81.632 727.686L79.49 726.3L78.944 726.51H65.546C66.008 724.998 66.554 723.276 67.058 721.512H83.9ZM111.158 720.336V724.158H104.018C104.228 722.982 104.396 721.638 104.606 720.336H111.158ZM114.224 713.91H121.112V717.732H114.224V713.91ZM111.158 738.018H114.224V726.72H122.498C122.246 729.786 121.994 731.088 121.574 731.508C121.322 731.802 120.986 731.886 120.398 731.844C119.852 731.844 118.382 731.844 116.828 731.676C117.248 732.432 117.542 733.482 117.584 734.322C119.222 734.406 120.776 734.406 121.616 734.322C122.624 734.238 123.296 734.028 123.926 733.356C124.682 732.516 125.102 730.374 125.396 725.334C125.438 724.914 125.48 724.158 125.48 724.158H114.224V720.336H123.842V711.306H117.962C119.012 709.962 120.062 708.282 121.07 706.728L118.004 705.846C117.29 707.484 115.904 709.71 114.77 711.306H108.176L110.066 710.382C109.604 709.08 108.302 707.148 107.084 705.762L104.564 706.854C105.656 708.198 106.748 710.004 107.294 711.306H100.658V713.91H111.158V717.732H102.17C101.876 720.63 101.33 724.284 100.868 726.72H109.478C107.168 729.618 103.346 732.264 99.146 733.986C99.734 734.49 100.7 735.456 101.12 736.044C105.068 734.28 108.554 731.844 111.158 728.862V738.018ZM97.886 715.002C96.836 712.986 94.526 709.962 92.594 707.694L89.948 708.954C91.838 711.306 94.022 714.498 95.03 716.472L97.886 715.002ZM97.256 721.47H88.646V724.494H94.232V735.582C92.552 736.296 90.578 738.06 88.604 740.37L90.704 743.268C92.51 740.538 94.358 738.06 95.618 738.06C96.542 738.06 97.928 739.446 99.608 740.496C102.548 742.302 106.034 742.764 111.242 742.764C115.274 742.764 122.792 742.512 125.858 742.302C125.942 741.378 126.446 739.866 126.824 738.984C122.666 739.488 116.324 739.824 111.326 739.824C106.622 739.824 103.052 739.53 100.322 737.85C98.936 737.052 98.054 736.296 97.256 735.792V721.47ZM138.92 738.984V732.768H161.306V738.984H138.92ZM161.306 723.738V729.828H138.92V723.738H161.306ZM161.306 714.54V720.798H138.92V714.54H161.306ZM149.462 711.558C150.176 709.962 150.932 708.072 151.562 706.266L147.992 705.804C147.656 707.442 146.984 709.71 146.354 711.558H135.812V744.276H138.92V741.924H161.306V744.066H164.54V711.558H149.462ZM186.464 740.244C181.928 740.244 180.962 739.74 180.962 737.514V724.998H202.76V727.644H205.952V708.324H177.266V711.474H202.76V721.932H177.812V737.514C177.812 742.26 179.954 743.31 186.632 743.31H202.466C209.186 743.31 210.572 741.294 211.244 733.86C210.362 733.692 209.018 733.146 208.136 732.6C207.59 739.026 206.96 740.244 202.508 740.244H186.464ZM229.136 724.158H220.316V715.38H229.136V724.158ZM220.316 737.01V726.93H229.136V737.01H220.316ZM223.844 705.762C223.55 707.736 222.794 710.55 222.164 712.566H217.46V743.142H220.316V739.824H231.992V712.566H225.02C225.734 710.76 226.49 708.45 227.204 706.392L223.844 705.762ZM252.53 712.44H239.972C240.686 710.466 241.274 708.45 241.778 706.392L238.796 705.678C237.452 711.432 235.184 717.228 232.37 720.924C233.042 721.344 234.386 722.184 234.932 722.688C236.402 720.714 237.704 718.152 238.88 715.338H249.548C249.002 732.054 248.372 738.438 246.986 739.908C246.566 740.454 246.104 740.538 245.264 740.538C244.298 740.538 241.778 740.538 239.048 740.286C239.636 741.168 240.014 742.428 240.098 743.352C242.45 743.478 244.844 743.562 246.314 743.394C247.742 743.268 248.708 742.89 249.632 741.714C251.312 739.656 251.858 733.188 252.53 714.036V712.44ZM245.894 731.34C244.55 728.862 241.652 724.83 239.3 721.848L236.864 723.276C239.174 726.3 241.988 730.458 243.248 732.978L245.894 731.34ZM276.596 715.002C276.596 714.372 276.596 713.784 276.596 713.196V705.93H273.362V713.196C273.362 713.784 273.362 714.372 273.362 715.002H259.754V718.11H273.194C272.564 725.964 269.876 735.162 258.494 741.924C259.25 742.428 260.384 743.646 260.888 744.402C273.068 736.968 275.84 726.804 276.428 718.11H290.75C289.952 732.894 289.028 738.816 287.516 740.244C287.012 740.748 286.466 740.874 285.584 740.874C284.534 740.874 281.846 740.832 278.99 740.58C279.62 741.504 279.998 742.848 280.04 743.772C282.602 743.94 285.29 744.024 286.76 743.898C288.356 743.73 289.364 743.394 290.33 742.218C292.178 740.118 293.06 733.86 293.984 716.64C294.026 716.178 294.068 715.002 294.068 715.002H276.596ZM329.852 711.348H309.062V709.08H329.852V711.348ZM329.852 715.464H309.062V713.154H329.852V715.464ZM332.918 707.19H306.08V717.354H332.918V707.19ZM338.252 719.076H300.872V721.47H338.252V719.076ZM308.222 731.886V729.492H317.966V731.886H308.222ZM308.222 725.292H317.966V727.644H308.222V725.292ZM331.112 727.644H320.948V725.292H331.112V727.644ZM331.112 731.886H320.948V729.492H331.112V731.886ZM320.948 740.748V738.312H335.06V736.128H320.948V733.818H334.178V723.36H305.324V733.818H317.966V736.128H304.106V738.312H317.966V740.748H300.62V743.184H338.462V740.748H320.948ZM347.534 745.494C351.944 743.94 354.8 740.496 354.8 735.96C354.8 733.02 353.54 731.13 351.23 731.13C349.508 731.13 348.038 732.18 348.038 734.154C348.038 736.128 349.466 737.136 351.188 737.136C351.44 737.136 351.65 737.136 351.902 737.094C351.692 739.95 349.844 741.924 346.61 743.268L347.534 745.494ZM398.438 724.2L393.734 725.586V717.228H398.018V714.33H393.734V705.888H390.668V714.33H385.628V717.228H390.668V726.426C388.526 727.056 386.552 727.602 384.998 728.022L385.838 731.004L390.668 729.576V740.622C390.668 741.168 390.458 741.336 389.954 741.336C389.534 741.378 388.022 741.378 386.426 741.336C386.846 742.134 387.224 743.394 387.35 744.192C389.786 744.234 391.34 744.108 392.306 743.604C393.314 743.1 393.734 742.302 393.734 740.622V728.61L398.858 727.098L398.438 724.2ZM409.484 711.096V724.368H403.562V711.096H409.484ZM418.388 724.368H412.382V711.096H418.388V724.368ZM407.006 740.16C404.108 740.16 403.562 739.614 403.562 737.262V727.35H418.388V730.08H421.58V708.03H400.412V737.22C400.412 741.966 401.924 743.142 406.838 743.142H417.716C422.378 743.142 423.428 741.084 423.974 735.204C423.008 735.036 421.706 734.49 420.95 733.944C420.614 738.942 420.152 740.16 417.632 740.16H407.006ZM460.892 706.434C453.584 707.61 440.774 708.408 430.484 708.618C430.736 709.29 431.03 710.34 431.114 711.096C441.404 710.97 454.13 710.214 461.9 708.954L460.892 706.434ZM432.038 718.782H461.606V723.108H464.336V716.094H456.146C457.154 714.582 458.33 712.776 459.296 711.096L456.482 710.172C455.768 711.936 454.424 714.372 453.29 716.094H448.922C448.502 714.624 447.788 712.44 447.074 710.844L444.68 711.6C445.184 712.944 445.772 714.708 446.108 716.094H439.43C439.052 714.666 438.212 712.65 437.456 711.096L435.188 711.978C435.692 713.238 436.28 714.792 436.7 716.094H429.392V723.108H432.038V718.782ZM455.39 732.264C453.878 734.112 451.904 735.624 449.552 736.926C446.906 735.624 444.596 734.07 442.832 732.264H455.39ZM457.994 729.45L457.448 729.576H441.53C441.95 728.526 442.37 727.392 442.664 726.216H461.228V723.528H443.42C443.672 722.478 443.924 721.386 444.134 720.252L441.152 719.874C440.942 721.134 440.69 722.352 440.396 723.528H432.416V726.216H439.64C437.456 733.188 433.676 738.27 427.712 741.42C428.3 741.966 429.308 743.268 429.644 743.814C434.222 741.168 437.624 737.514 440.018 732.852C441.824 734.994 444.05 736.8 446.612 738.312C443.504 739.572 440.018 740.454 436.532 741.042C436.994 741.588 437.75 742.89 437.96 743.604C442.034 742.848 446.024 741.63 449.552 739.866C453.542 741.714 458.12 742.974 462.992 743.646C463.37 742.848 464.084 741.588 464.714 740.916C460.346 740.412 456.188 739.488 452.576 738.144C455.516 736.212 457.994 733.776 459.674 730.668L457.994 729.45ZM503.438 724.326H491.51V711.81H503.438V724.326ZM506.504 708.828H488.528V727.308H506.504V708.828ZM486.974 729.072C486.05 727.854 481.976 723.024 480.632 721.554V720.756H487.226V717.816H480.632V710.424C482.9 709.962 485 709.416 486.722 708.744L484.874 706.224C481.346 707.694 475.088 708.912 469.838 709.668C470.174 710.34 470.552 711.39 470.678 712.104C472.904 711.852 475.298 711.474 477.65 711.054V717.816H470.258V720.756H477.146C475.424 725.586 472.442 730.962 469.712 733.944C470.258 734.7 471.014 736.002 471.35 736.884C473.576 734.28 475.844 730.038 477.65 725.754V744.276H480.632V724.872C482.228 727.14 484.286 730.248 485.084 731.718L486.974 729.072ZM491.51 731.382C490.334 735.666 488.192 739.74 485.504 742.386C486.218 742.806 487.562 743.73 488.108 744.192C490.838 741.252 493.232 736.8 494.576 732.096L491.51 731.382ZM500.036 732.348C502.22 736.002 504.488 740.832 505.412 743.814L508.352 742.596C507.386 739.614 504.992 734.868 502.724 731.298L500.036 732.348ZM530.024 732.894V735.666H520.028V732.894H530.024ZM543.212 735.666H533.174V732.894H543.212V735.666ZM533.174 740.79V737.682H543.212V740.79H533.174ZM520.028 740.79V737.682H530.024V740.79H520.028ZM516.878 744.192H520.028V742.974H543.212V744.192H546.488V730.668H516.878V744.192ZM528.974 712.986C529.436 713.784 529.982 714.834 530.402 715.716H513.728V718.404H525.614C523.43 719.664 521.288 720.546 520.406 720.84C519.23 721.302 518.264 721.596 517.466 721.638C517.676 722.31 518.054 723.654 518.18 724.2C518.978 723.906 520.154 723.738 528.764 723.276C525.278 724.536 522.38 725.46 520.952 725.838C518.726 726.468 516.92 726.888 515.66 726.93C515.87 727.686 516.164 728.946 516.29 729.534C517.718 729.03 519.86 728.946 543.8 727.854C544.724 728.82 545.606 729.786 546.194 730.584L548.504 729.114C546.992 727.14 543.758 724.116 540.986 722.1L538.76 723.318C539.642 723.99 540.65 724.83 541.574 725.67L526.328 726.3C530.99 724.872 535.82 723.108 540.734 720.714L538.172 719.202C536.996 719.79 535.82 720.378 534.56 720.924L524.48 721.344C526.37 720.546 528.302 719.58 530.234 718.404H549.806V715.716H533.846C533.426 714.75 532.712 713.448 531.998 712.44L528.974 712.986ZM540.272 708.618V705.804H537.164V708.618H525.95V705.804H522.842V708.618H513.434V711.306H522.842V714.204H525.95V711.306H537.164V714.204H540.272V711.306H550.016V708.618H540.272ZM587.9 719.37H576.056V733.02C576.056 736.548 577.19 737.472 581.096 737.472H588.446C592.016 737.472 592.898 735.918 593.318 729.996C592.436 729.744 591.176 729.282 590.504 728.778C590.336 733.776 590 734.616 588.236 734.616H581.39C579.374 734.616 579.08 734.406 579.08 733.02V722.142H587.9V723.192H590.924V707.862H575.636V710.634H587.9V719.37ZM566.858 730.416H573.662V727.644H566.858V721.428H574.082V718.656H566.228V713.322H572.99V710.592H566.228V705.93H563.246V710.592H556.316V713.322H563.246V718.656H555.224V721.428H564.002V737.346C562.238 735.918 560.936 733.818 560.012 730.752C560.138 728.904 560.222 726.972 560.264 724.956L557.324 724.746C557.198 732.18 556.736 738.858 554.342 743.058C555.014 743.394 556.4 744.15 556.904 744.57C558.122 742.218 558.92 739.32 559.424 736.002C562.49 741.756 567.446 743.142 576.35 743.142H592.352C592.562 742.218 593.15 740.79 593.612 740.034C591.092 740.16 578.324 740.16 576.308 740.118C572.402 740.118 569.294 739.824 566.858 738.9V730.416ZM635.024 727.35V724.368H618.056V713.91H633.26V710.928H618.056V705.93H614.822V710.928H599.954V713.91H614.822V724.368H597.98V727.35H612.722C608.9 732.474 602.726 737.388 597.098 739.824C597.77 740.454 598.778 741.63 599.282 742.386C604.784 739.656 610.748 734.616 614.822 729.072V744.192H618.056V728.988C622.13 734.532 628.136 739.782 633.722 742.554C634.226 741.714 635.234 740.538 635.906 739.908C630.236 737.472 624.02 732.474 620.198 727.35H635.024ZM603.356 715.926C604.994 718.362 606.59 721.764 607.136 723.864L610.076 722.73C609.488 720.546 607.766 717.312 606.086 714.876L603.356 715.926ZM625.532 723.948C627.044 721.89 628.892 718.572 630.362 715.716L627.17 714.708C626.162 717.228 624.356 720.798 622.928 723.066L625.532 723.948ZM644.474 745.494C648.884 743.94 651.74 740.496 651.74 735.96C651.74 733.02 650.48 731.13 648.17 731.13C646.448 731.13 644.978 732.18 644.978 734.154C644.978 736.128 646.406 737.136 648.128 737.136C648.38 737.136 648.59 737.136 648.842 737.094C648.632 739.95 646.784 741.924 643.55 743.268L644.474 745.494ZM58.154 773.734C56.726 772.18 53.87 769.45 51.728 767.56L49.796 769.576C51.938 771.55 54.752 774.406 56.18 776.044L58.154 773.734ZM55.592 797.632V780.034H46.1V783.016H52.652V797.548C52.652 799.816 50.888 801.58 50.006 802.336C50.594 802.714 51.644 803.722 52.022 804.268C52.652 803.428 53.744 802.504 61.514 796.54C61.22 795.952 60.758 794.776 60.59 793.936L55.592 797.632ZM71.804 800.866V783.604H81.002V780.622H71.804V767.182H68.696V800.866H58.616V803.932H84.026V800.866H71.804ZM121.532 767.434C114.224 768.61 101.414 769.408 91.124 769.618C91.376 770.29 91.67 771.34 91.754 772.096C102.044 771.97 114.77 771.214 122.54 769.954L121.532 767.434ZM92.678 779.782H122.246V784.108H124.976V777.094H116.786C117.794 775.582 118.97 773.776 119.936 772.096L117.122 771.172C116.408 772.936 115.064 775.372 113.93 777.094H109.562C109.142 775.624 108.428 773.44 107.714 771.844L105.32 772.6C105.824 773.944 106.412 775.708 106.748 777.094H100.07C99.692 775.666 98.852 773.65 98.096 772.096L95.828 772.978C96.332 774.238 96.92 775.792 97.34 777.094H90.032V784.108H92.678V779.782ZM116.03 793.264C114.518 795.112 112.544 796.624 110.192 797.926C107.546 796.624 105.236 795.07 103.472 793.264H116.03ZM118.634 790.45L118.088 790.576H102.17C102.59 789.526 103.01 788.392 103.304 787.216H121.868V784.528H104.06C104.312 783.478 104.564 782.386 104.774 781.252L101.792 780.874C101.582 782.134 101.33 783.352 101.036 784.528H93.056V787.216H100.28C98.096 794.188 94.316 799.27 88.352 802.42C88.94 802.966 89.948 804.268 90.284 804.814C94.862 802.168 98.264 798.514 100.658 793.852C102.464 795.994 104.69 797.8 107.252 799.312C104.144 800.572 100.658 801.454 97.172 802.042C97.634 802.588 98.39 803.89 98.6 804.604C102.674 803.848 106.664 802.63 110.192 800.866C114.182 802.714 118.76 803.974 123.632 804.646C124.01 803.848 124.724 802.588 125.354 801.916C120.986 801.412 116.828 800.488 113.216 799.144C116.156 797.212 118.634 794.776 120.314 791.668L118.634 790.45ZM143.288 770.374C147.236 773.188 152.108 777.304 154.418 779.908L156.644 777.598C154.25 774.952 149.252 771.004 145.346 768.316L143.288 770.374ZM160.718 781.672C163.07 786.586 165.338 793.18 166.178 797.506L169.244 796.288C168.362 791.962 166.052 785.536 163.616 780.538L160.718 781.672ZM134.636 781.63C134.048 786.544 132.662 793.096 130.856 797.38L133.964 798.682C135.686 794.23 136.988 787.132 137.66 782.218L134.636 781.63ZM141.314 778.48V799.144C141.314 803.302 142.574 804.436 147.11 804.436H155.552C160.214 804.436 161.18 802.126 161.642 794.188C160.76 793.936 159.458 793.39 158.702 792.802C158.366 800.026 157.988 801.496 155.384 801.496H147.362C144.968 801.496 144.464 801.118 144.464 799.186V778.48H141.314ZM199.442 789.484H208.892V786.544H199.442V778.522H196.334V786.544H186.926V789.484H196.334V801.286H185.288V804.226H210.53V801.286H199.442V789.484ZM188.9 773.356C189.656 771.466 190.37 769.534 190.916 767.644L187.724 766.846C187.136 768.988 186.38 771.214 185.498 773.356H174.032V776.338H184.112C181.508 781.672 177.812 786.628 173.024 790.03C173.528 790.702 174.326 792.004 174.62 792.844C176.384 791.584 178.022 790.198 179.492 788.602V805.024H182.558V784.906C184.532 782.218 186.17 779.362 187.64 776.338H210.53V773.356H188.9ZM251.69 795.742C249.38 793.516 245.894 790.702 242.156 787.804C244.634 784.612 246.524 780.832 247.952 776.338H253.244V773.398H239.594L241.778 772.6C241.232 771.004 239.804 768.484 238.586 766.636L235.646 767.56C236.78 769.366 237.998 771.802 238.544 773.398H226.154V776.338H244.676C243.5 780.076 241.862 783.268 239.762 785.998C236.318 783.394 232.748 780.79 229.556 778.69L227.414 780.496C230.69 782.764 234.344 785.494 237.83 788.224C234.722 791.374 230.816 793.726 225.944 795.448C226.532 796.078 227.456 797.506 227.792 798.136C232.832 796.162 236.948 793.516 240.224 790.072C243.836 793.054 247.112 795.826 249.296 798.01L251.69 795.742ZM224.894 775.078C223.676 773.23 220.988 770.5 218.762 768.694L216.326 770.332C218.594 772.306 221.156 775.078 222.29 776.926L224.894 775.078ZM224.306 782.554H215.906V785.494H221.282V797.674C219.476 798.346 217.334 799.942 215.318 801.874L217.544 804.856C219.518 802.504 221.534 800.32 222.962 800.32C223.886 800.32 225.23 801.496 226.952 802.42C229.808 803.932 233.42 804.352 238.292 804.352C242.534 804.352 249.674 804.142 252.95 803.932C253.034 802.966 253.538 801.37 253.958 800.446C249.716 800.95 243.164 801.244 238.418 801.244C233.882 801.244 230.228 800.992 227.582 799.564C226.112 798.766 225.188 798.01 224.306 797.632V782.554ZM266.978 780.832H293.9V777.682H282.14V766.93H278.864V777.682H266.978V767.98H263.786V781.882C263.786 789.19 263.198 796.918 257.906 802.84C258.62 803.386 259.796 804.52 260.3 805.276C264.164 801.034 265.802 795.952 266.474 790.702H284.114V805.192H287.432V787.51H266.81C266.936 785.62 266.978 783.73 266.978 781.84V780.832ZM321.074 800.32V783.394H335.564V780.328H321.074V767.014H317.798V780.328H303.518V783.394H317.798V800.32H300.872V803.386H338.252V800.32H321.074ZM351.146 779.866H356.06V776.884H351.146V767.35H348.206V776.884H342.83V779.866H348.206V793.18C346.022 794.104 344.006 794.902 342.452 795.448L343.67 798.556C347.366 796.918 352.112 794.818 356.564 792.76L355.934 789.988C354.296 790.618 352.7 791.332 351.146 792.004V779.866ZM365.216 801.454C362.486 801.454 361.94 800.908 361.94 798.682V784.15L367.568 781.756V795.91H370.55V780.496L376.388 778.018C376.388 784.696 376.304 789.358 376.094 790.366C375.884 791.29 375.464 791.458 374.834 791.458C374.372 791.458 373.028 791.458 372.02 791.416C372.398 792.088 372.65 793.264 372.776 794.104C373.952 794.104 375.548 794.104 376.724 793.81C377.9 793.516 378.74 792.76 378.95 791.038C379.286 789.442 379.37 783.184 379.37 775.33L379.538 774.742L377.354 773.902L376.766 774.364L376.094 774.952L370.55 777.262V766.846H367.568V778.522L361.94 780.874V770.752H358.958V782.176L354.422 784.066L355.64 786.796L358.958 785.41V798.64C358.958 803.134 360.386 804.268 365.132 804.268H375.422C379.832 804.268 380.798 802.42 381.302 796.708C380.42 796.54 379.244 796.036 378.488 795.49C378.194 800.32 377.774 801.454 375.338 801.454H365.216ZM404.612 800.11V783.478H420.236V780.37H404.612V767.518H401.336V800.11H385.67V803.218H423.092V800.11H404.612ZM459.422 799.9H448.418V789.736H460.598V779.152H457.28V786.838H448.418V776.968H445.142V786.838H436.574V779.152H433.382V789.736H445.142V799.9H434.6V791.71H431.24V802.84H459.422V805.024H462.656V791.668H459.422V799.9ZM455.768 770.71V766.888H452.618V770.71H440.984V766.888H437.792V770.71H428.426V773.734H437.792V778.102H440.984V773.734H452.618V778.102H455.768V773.734H465.134V770.71H455.768ZM477.524 780.496C476.726 778.27 474.71 774.868 472.778 772.348L470.132 773.566C471.98 776.17 473.954 779.74 474.71 781.966L477.524 780.496ZM478.616 789.274C475.298 791.248 471.938 793.264 469.67 794.44L471.266 797.422C473.492 795.994 476.096 794.272 478.616 792.55V805.192H481.64V766.888H478.616V789.274ZM508.394 783.856V780.874H497.306V766.93H494.24V780.874H483.152V783.856H494.24V800.824H484.328V803.806H507.218V800.824H497.306V783.856H508.394ZM538.76 768.946C541.406 770.374 544.598 772.516 546.194 773.986L548.126 771.844C546.488 770.374 543.212 768.358 540.608 767.056L538.76 768.946ZM544.724 780.286C543.422 784.528 541.616 788.308 539.348 791.626C538.214 787.636 537.458 782.638 537.038 777.052H550.394V773.986H536.828C536.702 771.718 536.66 769.366 536.66 766.93H533.426C533.468 769.324 533.51 771.676 533.678 773.986H516.164V785.704C516.164 791.122 515.786 798.304 512.342 803.428C513.056 803.806 514.4 804.898 514.946 805.528C518.726 800.068 519.356 791.626 519.356 785.746V785.41H527C526.832 792.634 526.622 795.28 526.034 795.91C525.782 796.288 525.362 796.372 524.774 796.372C524.06 796.372 522.254 796.33 520.322 796.162C520.826 796.96 521.162 798.136 521.204 799.102C523.262 799.186 525.152 799.186 526.202 799.102C527.378 798.976 528.092 798.682 528.722 797.884C529.604 796.792 529.856 793.264 530.066 783.856V782.512H519.356V777.052H533.846C534.392 783.814 535.4 789.988 536.912 794.734C534.224 797.884 530.99 800.488 527.252 802.504C527.966 803.092 529.058 804.352 529.52 804.982C532.754 803.092 535.652 800.74 538.172 798.01C540.104 802.336 542.624 804.898 545.858 804.898C549.05 804.898 550.184 802.84 550.772 795.7C549.932 795.448 548.798 794.734 548.084 794.02C547.79 799.606 547.286 801.79 546.11 801.79C543.968 801.79 542.036 799.396 540.482 795.28C543.59 791.29 546.068 786.502 547.874 781.084L544.724 780.286ZM585.254 767.812C581.6 772.138 575.552 776.128 569.672 778.564C570.428 779.152 571.688 780.37 572.192 781.042C577.904 778.27 584.246 773.986 588.362 769.156L585.254 767.812ZM592.52 786.292V783.226H566.774V767.14H563.54V783.226H555.518V786.292H563.54V799.648C563.54 801.286 562.532 801.874 561.86 802.21C562.364 802.882 562.91 804.184 563.12 804.982C564.128 804.31 565.682 803.806 577.106 800.782C576.938 800.068 576.812 798.766 576.812 797.842L566.774 800.32V786.292H573.326C576.686 794.944 582.608 801.118 591.302 803.974C591.764 803.092 592.688 801.748 593.486 801.118C585.464 798.808 579.626 793.474 576.518 786.292H592.52ZM603.608 791.752C600.122 791.752 597.224 794.608 597.224 798.136C597.224 801.706 600.122 804.562 603.608 804.562C607.178 804.562 610.034 801.706 610.034 798.136C610.034 794.608 607.178 791.752 603.608 791.752ZM603.608 802.42C601.298 802.42 599.366 800.53 599.366 798.136C599.366 795.826 601.298 793.894 603.608 793.894C606.002 793.894 607.892 795.826 607.892 798.136C607.892 800.53 606.002 802.42 603.608 802.42Z" fill="#E4EBF7"/>
</svg>
