<svg width="1080" height="1080" viewBox="0 0 1080 1080" fill="none" xmlns="http://www.w3.org/2000/svg">
<rect width="1080" height="1080" fill="#2C2C2C"/>
<g opacity="0.8">
<ellipse cx="397.05" cy="537.998" rx="238.05" ry="194.998" fill="#75DCD6"/>
<ellipse cx="397.05" cy="537.998" rx="238.05" ry="194.998" fill="url(#paint0_linear_1040_7446)"/>
</g>
<g opacity="0.8">
<ellipse cx="678.785" cy="539.898" rx="241.215" ry="196.898" fill="#E6EEB2"/>
<ellipse cx="678.785" cy="539.898" rx="241.215" ry="196.898" fill="url(#paint1_linear_1040_7446)"/>
</g>
<path fill-rule="evenodd" clip-rule="evenodd" d="M536.57 737.142C610.98 694.15 659.582 623.189 659.582 542.928C659.582 464.074 612.668 394.196 540.457 351C466.862 394.581 419 465.349 419 545.242C419 623.719 465.181 693.392 536.57 737.142Z" fill="#67E3A5"/>
<path fill-rule="evenodd" clip-rule="evenodd" d="M536.57 737.142C610.98 694.15 659.582 623.189 659.582 542.928C659.582 464.074 612.668 394.196 540.457 351C466.862 394.581 419 465.349 419 545.242C419 623.719 465.181 693.392 536.57 737.142Z" fill="url(#paint2_linear_1040_7446)"/>
<path d="M273.592 525.776C276.328 531.032 280.684 536.864 284.284 540.572C285.148 539.42 286.732 537.728 287.884 536.9C284.32 533.768 280 528.512 277.84 524.048L273.592 525.776ZM263.728 524.3C261.784 529.484 258.328 534.524 254.44 537.512C255.592 538.232 257.572 539.78 258.472 540.572C262.252 537.08 266.068 531.464 268.408 525.632L263.728 524.3ZM274.42 544.28C275.428 545.72 276.544 547.376 277.624 548.996L264.196 549.896C267.508 546.008 270.892 541.184 273.52 536.216L268.732 534.164C266.068 540.212 261.712 546.404 260.2 547.952C258.868 549.572 258.004 550.472 256.816 550.796C257.428 552.056 258.256 554.432 258.472 555.296C260.236 554.648 262.684 554.504 280.108 553.028C281.008 554.54 281.8 555.944 282.34 557.132L286.624 554.828C284.896 551.48 281.476 546.368 278.488 542.408L274.42 544.28ZM322.948 530.276H314.308C315.424 528.8 316.756 526.784 317.98 524.804L313.624 523.508C312.868 525.38 311.428 527.936 310.312 529.592L312.292 530.276H301.816L303.76 529.268C303.076 527.684 301.528 525.272 300.016 523.508L296.38 525.092C297.496 526.676 298.792 528.692 299.548 530.276H291.052V534.056H322.948V530.276ZM309.844 537.332C313.408 538.7 318.412 540.86 320.896 542.264L323.272 538.88C320.644 537.512 315.532 535.532 312.076 534.344L309.844 537.332ZM298.504 545.396H301.492V552.236H298.504V545.396ZM308.404 545.396V552.236H305.416V545.396H308.404ZM315.388 545.396V552.236H312.328V545.396H315.388ZM319.384 552.236V541.796H295.3C298.432 540.248 302.032 538.196 304.3 536.504L301.312 534.38C298.936 536.108 294.22 538.196 290.836 539.204C291.736 540.104 292.744 541.688 293.284 542.732C293.752 542.516 294.22 542.3 294.724 542.084V552.236H290.584V556.016H323.38V552.236H319.384ZM328.348 538.52H328.384V538.556V538.52C328.996 538.268 329.896 538.088 333.82 537.692C332.416 538.988 331.192 539.96 330.544 540.392C329.212 541.364 328.312 541.94 327.376 542.12C327.772 543.056 328.312 544.82 328.528 545.54C329.392 545.18 330.796 545.036 339.976 544.496C340.192 545.108 340.372 545.612 340.48 546.044L343.648 544.784C343.072 543.128 341.74 540.428 340.66 538.448L337.708 539.528C338.032 540.14 338.356 540.824 338.68 541.544L333.928 541.76C336.844 539.6 339.76 536.972 342.244 534.308L339.292 532.04C338.572 532.904 337.78 533.768 336.988 534.632L332.92 534.884C334.252 533.732 335.548 532.436 336.664 531.068H346.492C345.412 532.616 344.188 533.876 343.756 534.308C343.144 534.92 342.568 535.316 341.992 535.424C342.424 536.36 342.964 538.016 343.18 538.736C343.72 538.484 344.584 538.268 348.436 537.908C347.392 539.024 346.456 539.78 345.952 540.176C344.8 541.184 344.008 541.796 343.144 541.94C343.54 542.912 344.08 544.64 344.26 545.396C345.16 545.036 346.456 544.856 355.132 544.208C355.456 544.892 355.744 545.54 355.96 546.044L359.272 544.712C358.516 542.984 356.86 540.176 355.528 538.16L352.396 539.348C352.792 539.96 353.224 540.68 353.656 541.4L349.12 541.688C351.82 539.42 354.592 536.54 357.004 533.552L353.476 531.932C352.792 532.94 352 533.912 351.208 534.848L347.32 535.1C348.58 533.876 349.84 532.472 350.884 531.068H359.272V527.54H350.632C351.352 526.64 352.144 525.668 352.936 524.624L347.896 523.364C347.464 524.588 346.636 526.244 345.844 527.54H340.12C339.436 526.28 338.212 524.552 337.276 523.22L333.352 524.912C333.856 525.704 334.468 526.64 335.008 527.54H326.836V531.068H332.344C331.084 532.616 329.68 533.876 329.14 534.308C328.528 534.884 327.88 535.28 327.304 535.388C327.628 536.216 328.132 537.62 328.348 538.412V538.52ZM340.336 547.376C341.416 548.672 342.892 550.436 343.576 551.48L346.924 549.644C346.132 548.6 344.62 546.908 343.54 545.756L340.336 547.376ZM330.292 555.332C331.372 553.352 332.524 550.364 333.28 548.168L329.572 546.476C328.888 548.78 327.592 551.588 326.404 553.424L330.292 555.332ZM340.984 552.848C339.076 552.848 338.716 552.704 338.716 551.696V547.16H334.468V551.732C334.468 555.44 335.728 556.592 340.516 556.592H346.924C350.848 556.592 351.964 555.332 352.504 550.184C351.352 549.932 349.552 549.356 348.688 548.672C348.472 552.344 348.22 552.848 346.6 552.848H340.984ZM351.388 547.484C352.972 549.752 355.096 552.884 356.068 554.756L359.632 552.416C358.552 550.616 356.32 547.628 354.772 545.504L351.388 547.484ZM386.704 550.4V552.776H371.332V550.4H386.704ZM367.084 557.168H371.332V556.052H386.704V557.06H391.132V547.16H367.084V557.168ZM376.696 539.492V542.372H372.988C372.664 541.472 372.088 540.392 371.476 539.492H376.696ZM386.092 539.492C385.768 540.356 385.3 541.4 384.904 542.372H381.124V539.492H386.092ZM389.296 542.372C389.692 541.652 390.088 540.896 390.52 539.996L387.1 539.492H394.228V536.396H381.124V534.848H390.844V531.824H381.124V530.312H393.148V527.216H386.956C387.532 526.352 388.18 525.344 388.828 524.156L384.292 523.436C383.932 524.552 383.176 526.064 382.564 527.216H373.636L375.004 526.82C374.752 525.848 374.032 524.48 373.384 523.508L369.388 524.48C369.892 525.308 370.396 526.316 370.72 527.216H364.888V530.312H376.696V531.824H367.228V534.848H376.696V536.396H363.88V539.492H370.072L367.336 540.068C367.768 540.752 368.2 541.58 368.524 542.372H362.692V545.684H395.344V542.372H389.296Z" fill="#262626"/>
<path d="M707.944 538.772H700.42V529.88H707.944V538.772ZM712.228 525.812H696.352V542.876H712.228V525.812ZM686.128 547.628V543.272H689.692V547.088L686.128 547.628ZM689.692 528.728V532.472H686.128V528.728H689.692ZM686.128 535.964H689.692V539.78H686.128V535.964ZM695.776 549.824L695.488 546.152L693.616 546.44V528.728H695.38V524.912H680.656V528.728H682.276V548.204L680.116 548.492L680.944 552.452C683.464 552.02 686.524 551.48 689.692 550.94V557.132H693.616V550.22L695.776 549.824ZM698.8 545.756C697.864 549.14 696.1 552.524 693.868 554.612C694.876 555.188 696.604 556.34 697.396 557.024C699.628 554.576 701.716 550.688 702.904 546.692L698.8 545.756ZM705.604 546.98C707.368 550.148 709.276 554.324 709.888 556.916L713.956 555.296C713.236 552.632 711.22 548.636 709.348 545.576L705.604 546.98ZM725.98 544.352C725.08 540.932 722.992 535.28 721.3 531.068L717.376 532.22C719.032 536.648 720.94 542.408 721.696 545.864L725.98 544.352ZM739.804 551.192V544.424L743.08 546.08C744.952 542.624 747.22 537.548 748.804 533.012L744.952 531.176C743.764 535.28 741.604 540.392 739.804 543.812V523.976H735.376V551.192H730.66V523.976H726.232V551.192H716.944V555.476H749.128V551.192H739.804ZM766.876 543.02C766.156 542.336 763.564 539.816 762.088 538.52C763.744 536.216 765.22 533.624 766.228 530.996L763.96 529.34L763.24 529.52H759.892L762.736 527.864C762.088 526.568 760.72 524.696 759.46 523.328L756.076 525.092C757.192 526.424 758.344 528.188 758.992 529.52H752.692V533.372H760.9C758.74 537.188 755.248 540.716 751.648 542.696C752.152 543.488 752.98 545.864 753.268 547.052C754.672 546.224 756.004 545.108 757.372 543.884V557.132H761.584V543.092C762.592 544.316 763.6 545.648 764.212 546.584L766.876 543.02ZM778.108 551.768V538.412H784.912V534.272H778.108V523.724H773.68V534.272H766.588V538.412H773.68V551.768H765.004V556.016H785.776V551.768H778.108ZM807.34 550.328V531.716H819.436V527.252H790.672V531.716H802.444V550.328H788.728V554.648H821.452V550.328H807.34Z" fill="#262626"/>
<path d="M495.268 507.44V509.96H491.128V507.44H495.268ZM491.128 516.332V513.488H495.268V516.332H491.128ZM499.192 520.004V503.768H487.24V522.164H491.128V520.004H499.192ZM505.924 515.504C506.032 514.64 506.068 513.776 506.068 512.948H512.512V515.504H505.924ZM512.512 506.972V509.348H506.068V506.972H512.512ZM516.724 503.3H501.964V512.516C501.964 516.512 501.424 520.904 496.24 523.928C497.032 524.54 498.544 526.196 499.048 527.096C502.54 525.044 504.34 522.128 505.24 519.104H512.512V522.2C512.512 522.704 512.332 522.884 511.756 522.884C511.216 522.884 509.308 522.884 507.652 522.812C508.192 523.856 508.84 525.62 508.984 526.772C511.684 526.772 513.592 526.7 514.96 526.052C516.292 525.404 516.724 524.288 516.724 522.272V503.3ZM510.712 496.064V493.544H506.428V496.064H497.428V493.544H493.18V496.064H486.088V499.88H493.18V502.4H497.428V499.88H506.428V502.4H510.712V499.88H517.984V496.064H510.712ZM540.592 495.776C543.328 501.032 547.684 506.864 551.284 510.572C552.148 509.42 553.732 507.728 554.884 506.9C551.32 503.768 547 498.512 544.84 494.048L540.592 495.776ZM530.728 494.3C528.784 499.484 525.328 504.524 521.44 507.512C522.592 508.232 524.572 509.78 525.472 510.572C529.252 507.08 533.068 501.464 535.408 495.632L530.728 494.3ZM541.42 514.28C542.428 515.72 543.544 517.376 544.624 518.996L531.196 519.896C534.508 516.008 537.892 511.184 540.52 506.216L535.732 504.164C533.068 510.212 528.712 516.404 527.2 517.952C525.868 519.572 525.004 520.472 523.816 520.796C524.428 522.056 525.256 524.432 525.472 525.296C527.236 524.648 529.684 524.504 547.108 523.028C548.008 524.54 548.8 525.944 549.34 527.132L553.624 524.828C551.896 521.48 548.476 516.368 545.488 512.408L541.42 514.28ZM589.948 500.276H581.308C582.424 498.8 583.756 496.784 584.98 494.804L580.624 493.508C579.868 495.38 578.428 497.936 577.312 499.592L579.292 500.276H568.816L570.76 499.268C570.076 497.684 568.528 495.272 567.016 493.508L563.38 495.092C564.496 496.676 565.792 498.692 566.548 500.276H558.052V504.056H589.948V500.276ZM576.844 507.332C580.408 508.7 585.412 510.86 587.896 512.264L590.272 508.88C587.644 507.512 582.532 505.532 579.076 504.344L576.844 507.332ZM565.504 515.396H568.492V522.236H565.504V515.396ZM575.404 515.396V522.236H572.416V515.396H575.404ZM582.388 515.396V522.236H579.328V515.396H582.388ZM586.384 522.236V511.796H562.3C565.432 510.248 569.032 508.196 571.3 506.504L568.312 504.38C565.936 506.108 561.22 508.196 557.836 509.204C558.736 510.104 559.744 511.688 560.284 512.732C560.752 512.516 561.22 512.3 561.724 512.084V522.236H557.584V526.016H590.38V522.236H586.384ZM495.268 577.44V579.96H491.128V577.44H495.268ZM491.128 586.332V583.488H495.268V586.332H491.128ZM499.192 590.004V573.768H487.24V592.164H491.128V590.004H499.192ZM505.924 585.504C506.032 584.64 506.068 583.776 506.068 582.948H512.512V585.504H505.924ZM512.512 576.972V579.348H506.068V576.972H512.512ZM516.724 573.3H501.964V582.516C501.964 586.512 501.424 590.904 496.24 593.928C497.032 594.54 498.544 596.196 499.048 597.096C502.54 595.044 504.34 592.128 505.24 589.104H512.512V592.2C512.512 592.704 512.332 592.884 511.756 592.884C511.216 592.884 509.308 592.884 507.652 592.812C508.192 593.856 508.84 595.62 508.984 596.772C511.684 596.772 513.592 596.7 514.96 596.052C516.292 595.404 516.724 594.288 516.724 592.272V573.3ZM510.712 566.064V563.544H506.428V566.064H497.428V563.544H493.18V566.064H486.088V569.88H493.18V572.4H497.428V569.88H506.428V572.4H510.712V569.88H517.984V566.064H510.712ZM535.876 583.02C535.156 582.336 532.564 579.816 531.088 578.52C532.744 576.216 534.22 573.624 535.228 570.996L532.96 569.34L532.24 569.52H528.892L531.736 567.864C531.088 566.568 529.72 564.696 528.46 563.328L525.076 565.092C526.192 566.424 527.344 568.188 527.992 569.52H521.692V573.372H529.9C527.74 577.188 524.248 580.716 520.648 582.696C521.152 583.488 521.98 585.864 522.268 587.052C523.672 586.224 525.004 585.108 526.372 583.884V597.132H530.584V583.092C531.592 584.316 532.6 585.648 533.212 586.584L535.876 583.02ZM547.108 591.768V578.412H553.912V574.272H547.108V563.724H542.68V574.272H535.588V578.412H542.68V591.768H534.004V596.016H554.776V591.768H547.108ZM576.34 590.328V571.716H588.436V567.252H559.672V571.716H571.444V590.328H557.728V594.648H590.452V590.328H576.34Z" fill="#262626"/>
<defs>
<linearGradient id="paint0_linear_1040_7446" x1="397.05" y1="343" x2="397.05" y2="732.997" gradientUnits="userSpaceOnUse">
<stop stop-color="#89AFFF"/>
<stop offset="1" stop-color="white" stop-opacity="0"/>
</linearGradient>
<linearGradient id="paint1_linear_1040_7446" x1="678.785" y1="343" x2="678.785" y2="736.795" gradientUnits="userSpaceOnUse">
<stop stop-color="#89AFFF"/>
<stop offset="1" stop-color="white" stop-opacity="0"/>
</linearGradient>
<linearGradient id="paint2_linear_1040_7446" x1="539.291" y1="351" x2="539.291" y2="737.142" gradientUnits="userSpaceOnUse">
<stop stop-color="#89AFFF"/>
<stop offset="1" stop-color="white" stop-opacity="0"/>
</linearGradient>
</defs>
</svg>
