<svg width="1146" height="1146" viewBox="0 0 1146 1146" fill="none" xmlns="http://www.w3.org/2000/svg">
<rect width="1146" height="1146" fill="#003ECB"/>
<rect width="1146" height="1146" fill="url(#paint0_linear_1038_17971)"/>
<g clip-path="url(#clip0_1038_17971)">
<path d="M797.807 371.243L802.635 376.072C808.512 384.455 806.611 395.517 800.788 403.371C805.455 408.06 810.111 412.737 814.81 417.394C807.41 424.534 800.464 432.107 793.366 439.529C798.174 439.453 802.992 439.475 807.799 439.529C807.81 446.173 807.799 452.817 807.799 459.45C812.974 460.93 818.581 462.215 822.437 466.245C830.237 473.829 830.172 487.678 822.373 495.24C818.538 499.27 812.952 500.512 807.81 501.96C807.789 508.571 807.778 515.193 807.864 521.826L807.789 521.902C784.983 521.978 762.189 521.826 739.384 521.967C739.503 534.466 739.405 546.943 739.459 559.421C729.056 559.518 718.307 560.177 708.368 556.439C694.162 551.653 682.765 540.213 677.169 526.407C670.05 535.622 656.06 538.377 646.597 531.16L642.481 527.044C635.977 517.43 638.689 504.023 647.709 496.969C634.184 491.481 622.992 480.418 617.958 466.655C613.853 456.5 614.555 445.384 614.706 434.668C627.194 434.732 639.683 434.624 652.16 434.743C652.301 411.938 652.149 389.144 652.214 366.349L652.279 366.284C658.912 366.392 665.556 366.36 672.189 366.36C673.647 361.229 674.857 355.654 678.854 351.808C686.427 343.976 700.342 343.89 707.936 351.744C711.977 355.589 713.176 361.218 714.666 366.36C721.31 366.349 727.943 366.349 734.587 366.36C734.663 371.146 734.63 375.932 734.609 380.728C742.463 374.084 748.815 365.874 756.701 359.262C761.336 363.983 766.035 368.661 770.745 373.306C778.599 367.829 789.359 365.712 797.807 371.243ZM787.382 381.517C784.638 381.279 782.185 382.759 779.895 384.034C772.344 388.625 764.771 393.173 757.144 397.667C761.746 392.136 761.714 383.548 756.561 378.395C744.602 390.202 732.913 402.28 720.803 413.937C721.04 402.874 720.803 391.812 721.073 380.76C713.716 378.978 707.817 386.627 706.867 393.281C704.652 383.526 702.319 373.782 699.672 364.135C698.365 357.945 688.383 358.009 687.162 364.221C684.548 373.836 682.128 383.515 679.924 393.238C679.006 386.594 673.086 378.838 665.729 380.793C665.891 403.339 666.193 425.917 665.578 448.441C653.197 448.355 640.817 448.42 628.426 448.409C628.296 462.345 636.355 476 648.79 482.385C657.497 487.376 667.771 487.062 677.461 486.9C669.715 494.84 661.645 502.457 654.051 510.526C649.125 515.582 656.384 524.311 662.401 521.038C671.076 513.357 678.865 504.704 687.205 496.666C687.13 505.859 686.73 515.528 691.062 523.944C697.122 537.134 711.253 545.841 725.718 545.723C725.718 533.321 725.75 520.93 725.707 508.528C748.231 507.955 770.81 508.258 793.366 508.387C795.192 501.031 787.522 495.089 780.857 494.171C789.553 492.302 798.131 489.968 806.773 487.937C808.804 487.267 811.17 487.084 812.704 485.42C816.226 482.33 814.767 475.492 810.025 474.466C800.367 471.83 790.612 469.507 780.846 467.26C787.576 466.45 795.03 460.422 793.377 453.087C782.261 453.184 771.112 453.573 760.028 452.795C771.739 440.825 783.709 429.093 795.495 417.199C790.169 412.457 781.883 412.381 776.449 416.994C781.397 408.351 786.906 400.033 791.649 391.293C794.306 387.448 791.206 382.899 787.382 381.517V381.517Z" fill="black"/>
<path d="M787.382 381.519C791.207 382.902 794.307 387.45 791.65 391.296C786.907 400.036 781.397 408.354 776.45 416.996C781.884 412.383 790.17 412.459 795.495 417.202C783.709 429.096 771.74 440.828 760.029 452.798C771.113 453.575 782.262 453.186 793.378 453.089C795.031 460.425 787.577 466.453 780.847 467.263C790.612 469.51 800.368 471.833 810.026 474.468C814.768 475.495 816.226 482.333 812.705 485.423C811.171 487.086 808.805 487.27 806.774 487.94C798.131 489.971 789.554 492.304 780.857 494.173C787.523 495.091 795.193 501.033 793.367 508.39C770.811 508.26 748.232 507.958 725.708 508.53C725.751 520.932 725.719 533.323 725.719 545.725C711.253 545.844 697.123 537.137 691.063 523.946C686.731 515.531 687.13 505.862 687.206 496.669C689.269 494.584 691.3 492.466 693.385 490.425C698.052 495.394 703.4 500.741 710.638 501.174C720.08 502.47 729.003 496.226 732.492 487.616C739.687 487.313 746.968 488.264 754.109 487.086C760.072 485.574 760.062 475.776 754.044 474.317C747.141 473.161 740.087 474.123 733.13 473.863C733.886 465.329 735.312 456.86 735.614 448.282C739.936 443.701 744.991 439.726 748.535 434.476C750.533 429.193 744.948 423.608 739.665 425.606C734.415 429.15 730.418 434.184 725.848 438.516C717.26 438.829 708.769 440.234 700.224 441.022C699.986 434.065 700.839 427.032 699.77 420.129C698.484 414.069 688.47 414.101 687.055 420.054C685.92 427.194 686.86 434.465 686.569 441.649C677.969 445.127 671.714 453.997 672.957 463.428C673.367 470.687 678.704 476.067 683.706 480.745C681.642 482.83 679.547 484.861 677.462 486.903C667.771 487.065 657.498 487.378 648.79 482.387C636.356 476.002 628.297 462.347 628.427 448.412C640.818 448.422 653.198 448.358 665.578 448.444C666.194 425.92 665.892 403.341 665.73 380.795C673.086 378.84 679.006 386.597 679.925 393.241C682.129 383.518 684.548 373.838 687.163 364.224C688.383 358.012 698.365 357.947 699.673 364.137C702.319 373.784 704.653 383.529 706.867 393.284C707.818 386.629 713.717 378.981 721.073 380.763C720.803 391.815 721.041 402.877 720.803 413.939C732.914 402.283 744.602 390.205 756.561 378.397C761.714 383.55 761.747 392.139 757.145 397.67C764.772 393.176 772.345 388.628 779.896 384.036C782.186 382.762 784.638 381.282 787.382 381.519V381.519Z" fill="#F03A17"/>
<path d="M739.665 425.604C744.948 423.605 750.533 429.19 748.534 434.473C744.991 439.723 739.935 443.699 735.614 448.279C727.101 456.792 718.48 465.197 710.14 473.861C717.81 474.012 725.459 473.839 733.129 473.861C740.086 474.12 747.141 473.159 754.044 474.315C760.061 475.773 760.072 485.571 754.109 487.084C746.968 488.261 739.687 487.311 732.492 487.613C720.414 487.7 708.325 487.321 696.248 487.754C695.535 488.423 694.098 489.752 693.385 490.422C691.3 492.464 689.269 494.581 687.205 496.666C678.866 504.704 671.077 513.357 662.402 521.038C656.384 524.311 649.125 515.582 654.051 510.526C661.646 502.456 669.715 494.84 677.461 486.9C679.546 484.858 681.642 482.827 683.705 480.742C684.375 480.029 685.725 478.593 686.395 477.88C686.881 465.813 686.46 453.724 686.568 441.646C686.86 434.462 685.92 427.192 687.054 420.051C688.469 414.099 698.484 414.066 699.769 420.127C700.839 427.03 699.985 434.063 700.223 441.02C700.223 448.668 700.115 456.338 700.266 463.987C708.93 455.625 717.346 447.037 725.848 438.513C730.418 434.181 734.415 429.147 739.665 425.604V425.604Z" fill="#AF0D1A"/>
<path d="M700.225 441.022C708.77 440.233 717.261 438.829 725.849 438.515C717.347 447.039 708.932 455.627 700.268 463.989C700.116 456.34 700.225 448.67 700.225 441.022V441.022Z" fill="#F7894A"/>
<path d="M735.614 448.281C735.312 456.858 733.886 465.328 733.13 473.862C725.46 473.841 717.811 474.014 710.141 473.862C718.481 465.198 727.102 456.794 735.614 448.281Z" fill="#F7894A"/>
<path d="M672.955 463.425C671.713 453.994 677.968 445.125 686.567 441.646C686.459 453.724 686.88 465.813 686.394 477.88C685.725 478.593 684.374 480.029 683.704 480.742C678.703 476.065 673.366 470.685 672.955 463.425V463.425Z" fill="#F7894A"/>
<path d="M696.247 487.753C708.325 487.321 720.413 487.699 732.491 487.613C729.001 496.223 720.078 502.467 710.636 501.171C703.398 500.739 698.051 495.391 693.384 490.422C694.097 489.752 695.534 488.423 696.247 487.753Z" fill="#F7894A"/>
</g>
<g clip-path="url(#clip1_1038_17971)">
<path d="M373.957 630H385.11C395.575 631.406 405.521 635.622 414.015 641.886C422.403 635.653 432.272 631.543 442.6 630H453.814C470.864 632.093 486.86 642.054 495.583 656.965C504.964 672.044 505.468 691.31 498.822 707.565C513.031 716.35 522.151 732.025 524 748.51V759.464C522.961 767.24 520.104 774.574 516.636 781.556C519.493 790.065 522.885 798.59 524 807.635V850H483.972C471.521 848.778 459.513 844.561 448.803 838.144C439.835 843.935 429.965 848.976 419.072 850H409.126C386.744 847.708 366.44 831.132 360.894 809.163C353.301 808.108 345.433 808.093 338.375 804.671C319.553 797.231 306.215 778.79 304 758.807V748.861C305.619 731.964 315.275 716.503 329.346 707.138C320.347 687.49 324.671 662.832 339.719 647.371C348.581 637.685 361.047 631.803 373.957 630V630ZM364.699 646.5C349.115 652.244 338.131 668.271 338.375 684.878C338.131 695.45 342.5 705.747 349.665 713.432C332.172 717.572 318.01 733.919 317.979 752.146C316.894 767.974 326.413 783.694 340.621 790.585C350.49 795.749 362.407 795.932 372.903 792.663C371.024 814.769 390.121 836.006 412.381 836.006C425.901 836.983 439.269 830.108 447.275 819.338C453.738 825.754 461.911 830.368 470.543 833.194C483.254 837.64 496.882 835.563 510.067 836.021C510.128 824.868 511.06 813.593 508.89 802.578C507.194 794.939 504.154 787.621 499.815 781.113C511.426 768.401 513.519 748.128 504.765 733.308C499.25 723.286 489.243 716.35 478.319 713.386C486.294 705.09 490.542 693.464 489.564 681.975C488.479 661.426 469.749 643.429 449.032 643.933C435.175 643.322 421.7 650.778 414 662.144C403.764 646.286 382.192 639.625 364.699 646.5V646.5Z" fill="black"/>
<path d="M364.697 646.501C382.19 639.626 403.762 646.288 413.998 662.146C421.698 650.779 435.173 643.324 449.03 643.935C469.747 643.431 488.477 661.428 489.562 681.976C490.54 693.465 486.293 705.092 478.318 713.388C489.241 716.351 499.248 723.288 504.763 733.31C513.518 748.129 511.425 768.403 499.813 781.114C494.207 787.5 486.552 791.778 478.394 794.008C472.176 795.017 465.79 795.093 459.587 793.932C458.09 793.504 456.608 793.061 455.126 792.588C455.645 802.121 452.911 811.639 447.273 819.339C439.268 830.11 425.9 836.985 412.379 836.007C390.119 836.007 371.022 814.771 372.901 792.664C362.405 795.933 350.488 795.75 340.619 790.586C326.411 783.696 316.893 767.975 317.977 752.147C318.008 733.921 332.17 717.574 349.663 713.433C342.498 705.749 338.129 695.451 338.373 684.879C338.129 668.272 349.113 652.246 364.697 646.501V646.501ZM352.23 680.403C353.452 692.854 367.034 701.7 378.997 697.896C381.854 701.7 384.726 705.489 387.613 709.278C381.013 708.911 374.948 703.579 368.211 706.39C359.93 708.972 356.34 720.171 361.275 727.122C367.233 734.929 378.462 733.371 385.658 739.238C388.163 741.056 388.041 744.539 387.69 747.289C383.504 755.524 376.69 762.338 373.252 770.939C370.258 780.992 381.105 791.228 390.913 787.393C400.05 783.406 402.662 772.528 409.415 765.943C412.684 764.247 417.818 764.156 420.109 767.517C424.616 773.231 427.794 780.014 433.019 785.163C440.154 791.472 452.85 787.042 454.744 777.783C456.577 770.022 450.925 763.575 446.769 757.708C443.377 752.896 438.213 747.335 440.918 740.994C446.769 733.753 457.677 735.326 464.491 729.414C472.008 723.715 469.548 710.347 460.977 706.879C454.515 703.625 447.777 707.506 441.682 709.69C437.434 711.294 431.033 711.707 428.848 706.788C426.526 700.554 428.298 693.817 427.03 687.461C424.25 678.417 411.477 674.781 404.77 681.793C398.293 686.911 401.532 695.65 399.622 702.556C396.398 698.171 393.113 693.801 389.844 689.447C398.995 677.363 389.294 657.929 374.291 657.715C361.962 656.172 350.458 668.181 352.23 680.403V680.403Z" fill="#F495BF"/>
<path d="M352.235 680.402C350.463 668.18 361.967 656.172 374.296 657.715C389.299 657.929 399 677.362 389.849 689.447C385.265 683.748 381.446 677.393 376.374 672.107C370.965 669.127 363.922 674.368 366.214 680.448C370.095 686.529 374.815 692.029 379.001 697.895C367.039 701.7 353.457 692.854 352.235 680.402V680.402Z" fill="#FCE100"/>
<path d="M366.211 680.447C363.92 674.367 370.963 669.126 376.371 672.106C381.443 677.392 385.263 683.747 389.846 689.446C393.115 693.8 396.4 698.169 399.624 702.554C402.282 706.129 404.986 709.674 407.782 713.142C413.847 712.515 420.585 712.149 425.642 716.213C435.297 722.324 437.742 736.868 430.286 745.653C422.999 755.889 406.178 756.332 398.401 746.447C392.076 739.664 392.122 729.244 396.66 721.529C393.711 717.389 390.656 713.325 387.615 709.276C384.728 705.488 381.856 701.699 378.999 697.894C374.813 692.028 370.092 686.528 366.211 680.447V680.447Z" fill="#970044"/>
<path d="M404.772 681.792C411.479 674.779 424.251 678.415 427.032 687.46C428.3 693.815 426.528 700.553 428.85 706.786C431.035 711.706 437.436 711.293 441.683 709.689C447.779 707.504 454.517 703.624 460.979 706.878C469.55 710.346 472.01 723.714 464.493 729.412C457.679 735.325 446.771 733.751 440.919 740.993C438.215 747.333 443.379 752.894 446.771 757.707C450.926 763.574 456.579 770.021 454.746 777.782C452.851 787.04 440.155 791.471 433.021 785.161C427.796 780.012 424.618 773.229 420.111 767.515C417.819 764.154 412.686 764.246 409.417 765.942C402.664 772.526 400.051 783.404 390.915 787.392C381.107 791.226 370.26 780.99 373.254 770.937C376.692 762.336 383.505 755.522 387.692 747.287C388.043 744.537 388.165 741.054 385.66 739.236C378.464 733.369 367.235 734.928 361.276 727.121C356.342 720.169 359.932 708.971 368.212 706.389C374.95 703.578 381.015 708.91 387.615 709.276C390.655 713.325 393.711 717.389 396.66 721.529C392.122 729.244 392.076 739.664 398.401 746.447C406.178 756.332 422.999 755.889 430.286 745.653C437.742 736.868 435.297 722.324 425.642 716.212C420.585 712.149 413.847 712.515 407.782 713.142C404.986 709.674 402.282 706.129 399.624 702.554C401.533 695.649 398.294 686.91 404.772 681.792V681.792Z" fill="#EE3F86"/>
<path d="M499.817 781.113C504.156 787.621 507.196 794.939 508.892 802.578C511.062 813.593 510.13 824.868 510.069 836.021C496.884 835.563 483.256 837.641 470.545 833.195C461.913 830.368 453.739 825.754 447.277 819.338C452.914 811.638 455.649 802.12 455.13 792.586C456.612 793.06 458.094 793.503 459.591 793.931C463.853 800.638 470.178 805.588 475.602 811.302C478.932 814.632 482.019 818.284 485.869 821.064C488.603 823.157 493.37 822.882 495.142 819.643C497.327 816.649 496.196 812.524 493.737 810.064C488.771 804.564 483.119 799.721 478.398 794.007C486.556 791.777 494.21 787.499 499.817 781.113Z" fill="#13A10E"/>
<path d="M459.589 793.93C465.792 795.092 472.178 795.015 478.396 794.007C483.117 799.721 488.769 804.564 493.735 810.064C496.194 812.523 497.325 816.648 495.14 819.643C493.368 822.882 488.601 823.157 485.867 821.064C482.017 818.283 478.931 814.632 475.6 811.301C470.176 805.587 463.851 800.637 459.589 793.93V793.93Z" fill="#107C10"/>
</g>
<g clip-path="url(#clip2_1038_17971)">
<path d="M712.155 630H721.811C738.189 631.986 752.351 643.292 758.798 658.325C773.358 662.144 786.65 671.525 793.525 685.122C800.079 696.871 800.629 711.033 797.512 723.913C806.74 734.729 813.233 748.372 813.035 762.825C814.104 785.283 800.186 807.146 780.05 816.756C769.065 822.531 756.4 822.531 744.315 822.851C744.315 831.896 744.315 840.956 744.33 850H689.422C689.957 840.925 689.116 831.85 689.3 822.76C678.529 822.5 667.346 822.653 657.278 818.222C635.43 809.499 619.771 786.628 620.916 762.917C620.672 748.433 627.15 734.714 636.454 723.897C633.444 711.033 633.933 696.932 640.472 685.183C647.332 671.54 660.654 662.144 675.244 658.31C681.661 643.276 695.839 632.001 712.155 630V630ZM699.49 649.235C692.111 654.169 687.894 662.389 686.107 670.899C673.671 671.647 661.311 677.483 654.482 688.193C646.43 699.728 646.751 715.433 652.832 727.778C640.335 737.449 632.833 753.322 634.88 769.196C636.255 784.275 646.323 798.101 660.028 804.457C673.411 811.088 688.735 807.635 703.05 808.842C703.035 817.886 703.035 826.915 703.035 835.96C712.339 836.082 721.658 836.097 730.962 835.944C730.382 826.854 730.611 817.733 730.519 808.643C742.298 808.521 754.261 809.911 765.872 807.36C785.565 802.761 800.614 783.236 799.315 762.917C799.498 748.999 791.676 736.288 781.104 727.732C787.765 714.486 787.291 697.329 777.56 685.672C770.562 676.292 759.104 671.678 747.722 670.761C746.179 664.131 743.643 657.485 738.555 652.749C728.686 642.299 711.086 640.893 699.49 649.235V649.235Z" fill="black"/>
<path d="M699.492 649.235C711.087 640.893 728.687 642.299 738.557 652.749C743.644 657.485 746.181 664.131 747.724 670.761C759.106 671.678 770.564 676.292 777.561 685.672C787.293 697.329 787.767 714.486 781.106 727.732C791.678 736.287 799.5 748.999 799.317 762.917C800.615 783.236 785.567 802.761 765.874 807.36C754.262 809.911 742.3 808.521 730.521 808.643C721.369 808.506 712.203 808.612 703.051 808.842C688.736 807.635 673.412 811.087 660.029 804.457C646.325 798.101 636.257 784.275 634.882 769.196C632.835 753.322 640.336 737.449 652.833 727.778C646.753 715.433 646.432 699.728 654.483 688.193C661.312 677.483 673.672 671.647 686.108 670.899C687.896 662.389 692.112 654.169 699.492 649.235V649.235ZM695.581 691.05C691.425 694.839 690.172 700.522 689.087 705.793C694.511 705.121 700.24 703.792 704.029 699.514C708.246 695.694 709.59 689.981 710.186 684.542C704.961 685.672 699.324 686.91 695.581 691.05V691.05ZM723.814 684.542C723.615 696.046 733.515 705.824 744.974 705.701C743.828 700.461 742.575 694.778 738.389 691.035C734.631 686.94 729.039 685.626 723.814 684.542ZM661.542 747.012C666.247 746.294 671.274 745.561 674.925 742.2C679.89 738.503 681.724 732.331 683.374 726.662C671.594 725.15 662.306 735.951 661.542 747.012ZM696.314 725.715C696.176 737.204 705.908 747.012 717.397 746.997C716.312 741.711 715.06 736.043 710.889 732.269C707.146 728.144 701.508 726.907 696.314 725.715V725.715ZM751.237 725.792C751.94 731.2 753.224 736.914 757.456 740.733C761.244 745.011 766.943 746.386 772.397 746.982C771.297 741.726 770.044 736.074 765.919 732.254C762.161 728.099 756.478 726.892 751.237 725.792V725.792ZM695.504 773.642C691.425 777.4 690.172 783.007 689.042 788.217C700.5 788.354 710.308 778.546 710.14 767.072C704.9 768.218 699.278 769.501 695.504 773.642V773.642ZM723.111 767.897C724.715 773.596 726.549 779.783 731.56 783.465C735.242 786.781 740.207 787.697 744.989 788.064C744.103 777.003 734.799 766.629 723.111 767.897Z" fill="#13A10E"/>
<path d="M695.583 691.05C699.326 686.91 704.963 685.672 710.188 684.542C709.593 689.981 708.248 695.694 704.032 699.514C700.243 703.792 694.513 705.121 689.09 705.793C690.175 700.522 691.427 694.839 695.583 691.05V691.05Z" fill="#107C10"/>
<path d="M723.814 684.542C729.039 685.626 734.631 686.94 738.389 691.035C742.576 694.778 743.828 700.461 744.974 705.701C733.516 705.824 723.616 696.046 723.814 684.542V684.542Z" fill="#107C10"/>
<path d="M661.542 747.012C662.306 735.951 671.595 725.15 683.374 726.662C681.724 732.33 679.891 738.503 674.925 742.2C671.274 745.561 666.248 746.294 661.542 747.012Z" fill="#107C10"/>
<path d="M696.312 725.714C701.506 726.906 707.144 728.143 710.887 732.268C715.058 736.042 716.311 741.71 717.395 746.996C705.906 747.011 696.174 737.203 696.312 725.714V725.714Z" fill="#107C10"/>
<path d="M751.238 725.792C756.478 726.892 762.161 728.099 765.92 732.254C770.045 736.074 771.298 741.726 772.398 746.982C766.943 746.386 761.245 745.011 757.456 740.733C753.224 736.914 751.941 731.2 751.238 725.792Z" fill="#107C10"/>
<path d="M695.504 773.642C699.278 769.501 704.9 768.218 710.141 767.072C710.309 778.546 700.5 788.354 689.042 788.217C690.173 783.007 691.425 777.4 695.504 773.642V773.642Z" fill="#107C10"/>
<path d="M723.111 767.897C734.799 766.629 744.103 777.003 744.989 788.064C740.207 787.697 735.242 786.781 731.56 783.465C726.549 779.783 724.715 773.596 723.111 767.897Z" fill="#107C10"/>
<path d="M703.051 808.842C712.203 808.613 721.369 808.506 730.521 808.643C730.613 817.733 730.383 826.854 730.964 835.944C721.66 836.097 712.34 836.082 703.036 835.96C703.036 826.915 703.036 817.886 703.051 808.842Z" fill="#CA5010"/>
</g>
<g clip-path="url(#clip3_1038_17971)">
<path d="M418.627 342H432.301C455.248 343.589 477.722 352.221 495.459 366.933C519.094 386.122 533.913 415.471 535.686 445.828V457.775C534.295 481.715 525.037 505.167 509.362 523.332C490.311 546.05 461.711 560.014 432.209 562H419.559C396.49 560.457 373.817 551.871 356.004 537.036C332.506 518.076 317.886 489.064 315.686 459.043V445.522C317.672 414.906 332.736 385.312 356.829 366.231C374.276 351.992 396.23 343.726 418.627 342V342ZM416.931 356.193C382.847 358.867 351.344 381.539 337.747 412.889C329.619 430.84 327.755 451.282 331.269 470.593C336.586 498.185 354.659 522.981 379.409 536.349C399.347 547.471 423.256 550.664 445.547 546.157C470.48 540.947 493.106 525.44 506.734 503.883C521.309 481.532 525.434 453.008 518.712 427.296C512.448 403.172 496.315 381.875 474.834 369.24C457.57 358.806 437.006 354.436 416.931 356.193V356.193Z" fill="black"/>
<path d="M377.15 420.16C387.921 414.37 402.572 418.739 408.576 429.357C411.662 434.017 411.815 439.716 411.769 445.109C409.63 445.094 407.491 445.094 405.337 445.078C404.787 436.492 398.141 428.212 389.173 427.967C379.426 426.791 370.748 435.469 370.565 445.002C368.273 445.032 365.966 445.063 363.675 445.109C362.941 435.132 367.739 424.453 377.15 420.16V420.16Z" fill="black"/>
<path d="M447.668 423.551C457.461 414.415 474.679 416.172 482.577 426.943C486.687 432.046 487.894 438.707 487.68 445.108C485.404 445.062 483.112 445.032 480.82 445.001C480.255 440.907 479.323 436.614 476.252 433.604C470.813 427.142 460.348 425.98 453.595 431.022C448.89 434.108 446.797 439.715 446.048 445.093C443.879 445.093 441.709 445.093 439.54 445.093C439.005 437.149 441.312 428.746 447.668 423.551V423.551Z" fill="black"/>
<path d="M377.912 485.642C376.369 481.501 380.036 476.46 384.481 476.842C389.401 476.933 391.433 482.372 394.351 485.519C409.293 504.815 442.033 504.754 456.944 485.474C459.129 482.739 461.069 479.729 463.773 477.468C467.761 475.482 472.726 478.094 473.688 482.372C474.101 486.421 471.168 489.706 469.074 492.868C459.694 504.769 445.18 512.24 430.162 513.707C412.073 515.189 393.556 507.015 382.236 492.899C380.586 490.607 378.92 488.285 377.912 485.642V485.642Z" fill="black"/>
<path d="M416.934 356.194C437.009 354.437 457.573 358.806 474.836 369.241C496.317 381.876 512.45 403.173 518.714 427.297C525.436 453.009 521.311 481.533 506.736 503.884C493.109 525.441 470.482 540.948 445.549 546.158C423.259 550.665 399.349 547.472 379.411 536.349C354.661 522.981 336.588 498.185 331.271 470.594C327.757 451.283 329.621 430.841 337.749 412.89C351.346 381.54 382.849 358.867 416.934 356.194V356.194ZM377.15 420.162C367.739 424.455 362.942 435.134 363.675 445.11C365.967 445.065 368.274 445.034 370.566 445.003C370.749 435.47 379.427 426.792 389.174 427.969C398.142 428.213 404.788 436.494 405.338 445.08C407.492 445.095 409.631 445.095 411.77 445.11C411.816 439.717 411.663 434.019 408.577 429.359C402.573 418.741 387.921 414.372 377.15 420.162ZM447.673 423.553C441.317 428.748 439.01 437.151 439.545 445.095H446.053C446.802 439.717 448.895 434.11 453.6 431.024C460.353 425.983 470.818 427.144 476.257 433.606C479.328 436.616 480.26 440.909 480.825 445.003C483.117 445.034 485.409 445.065 487.685 445.11C487.899 438.709 486.692 432.048 482.582 426.945C474.684 416.174 457.466 414.417 447.673 423.553V423.553ZM363.798 457.348C354.814 464.895 354.753 480.341 363.782 487.873C368.656 492.685 375.729 493.495 382.238 492.899C393.559 507.016 412.075 515.19 430.164 513.708C445.182 512.241 459.696 504.77 469.077 492.869C475.203 493.388 481.879 492.93 486.707 488.652C496.241 481.609 496.943 466.056 488.327 458.02C480.275 449.495 464.921 450.305 457.832 459.67C451.523 466.835 452.454 477.606 456.946 485.474C442.035 504.755 409.295 504.816 394.353 485.52C398.356 478.217 399.792 468.653 394.796 461.442C388.563 450.931 372.552 448.899 363.798 457.348V457.348Z" fill="#FFC83D"/>
<path d="M363.793 457.349C372.548 448.9 388.559 450.932 394.792 461.443C399.788 468.654 398.352 478.218 394.349 485.521C391.431 482.374 389.399 476.935 384.479 476.843C380.034 476.461 376.367 481.503 377.91 485.643C378.918 488.286 380.584 490.608 382.234 492.9C375.725 493.496 368.652 492.686 363.778 487.874C354.749 480.342 354.81 464.896 363.793 457.349V457.349Z" fill="#F7894A"/>
<path d="M457.828 459.671C464.917 450.306 480.271 449.496 488.323 458.021C496.939 466.057 496.236 481.61 486.703 488.653C481.875 492.931 475.199 493.389 469.073 492.869C471.166 489.707 474.099 486.422 473.686 482.374C472.724 478.096 467.759 475.483 463.771 477.469C461.067 479.731 459.127 482.74 456.942 485.475C452.45 477.607 451.518 466.836 457.828 459.671Z" fill="#F7894A"/>
</g>
<defs>
<linearGradient id="paint0_linear_1038_17971" x1="1719" y1="573" x2="573" y2="-573" gradientUnits="userSpaceOnUse">
<stop stop-color="#21BDB8"/>
<stop offset="1" stop-color="#280684"/>
</linearGradient>
<clipPath id="clip0_1038_17971">
<rect width="220" height="220" fill="white" transform="translate(722.563 296) rotate(45)"/>
</clipPath>
<clipPath id="clip1_1038_17971">
<rect width="220" height="220" fill="white" transform="translate(304 630)"/>
</clipPath>
<clipPath id="clip2_1038_17971">
<rect width="220" height="220" fill="white" transform="translate(607 630)"/>
</clipPath>
<clipPath id="clip3_1038_17971">
<rect width="220" height="220" fill="white" transform="translate(315.686 342)"/>
</clipPath>
</defs>
</svg>
