<svg width="48" height="48" viewBox="0 0 48 48" fill="none" xmlns="http://www.w3.org/2000/svg">
<rect width="48" height="48" fill="#6F6F6F"/>
<path d="M41.0001 14.5625L38.1431 14.4069C38.1431 14.4069 37.0626 10.5431 32.1035 10.1964C27.1444 9.84991 23.8997 10.0675 23.8997 10.0675C23.8997 10.0675 27.5783 12.4543 26.104 16.7133C25.0087 19.0104 23.2757 20.8873 21.4281 23.0443L9.21045 37.2554C20.5836 37.0855 27.2888 37.0004 29.326 37.0004C35.0393 37.0004 39.8676 31.9507 39.6701 26.3322C39.5342 22.4708 38.328 21.5983 37.9134 19.9072C37.4989 18.216 38.3287 15.519 41.0001 14.5625V14.5625Z" fill="#31CC79"/>
<path d="M21.3781 23.0902C15.398 29.9735 6 40.9253 6 40.9253C22.9072 45.4481 30.697 34.4713 31.9169 30.6712C33.5522 25.5763 31.2415 23.0902 29.9338 22.2794C25.4996 19.5303 22.2096 22.1329 21.3781 23.0902Z" fill="#93E65C"/>
<path opacity="0.86" d="M21.461 22.9313C22.4097 21.9089 25.6346 19.5306 29.9362 22.2081C31.2441 23.022 33.5549 25.5182 31.9194 30.6339C31.4456 32.1161 29.9803 34.6856 27.3742 37.0077C24.6718 37.0262 18.6065 37.1059 9.17798 37.2472L20.8321 23.661C21.0349 23.424 21.236 23.1904 21.4351 22.9594L21.461 22.9313Z" fill="#60DB69"/>
</svg>
