<svg width="48" height="48" viewBox="0 0 48 48" fill="none" xmlns="http://www.w3.org/2000/svg">
<rect width="48" height="48" fill="#2C2C2C"/>
<path d="M41 14.5625L38.1431 14.4069C38.1431 14.4069 37.0625 10.5431 32.1034 10.1964C27.1444 9.84989 23.8996 10.0675 23.8996 10.0675C23.8996 10.0675 27.5782 12.4542 26.104 16.7133C25.0086 19.0104 23.2756 20.8872 21.428 23.0443L9.21037 37.2554C20.5835 37.0854 27.2887 37.0004 29.326 37.0004C35.0392 37.0004 39.8676 31.9507 39.67 26.3322C39.5341 22.4708 38.3279 21.5983 37.9133 19.9071C37.4988 18.216 38.3286 15.519 41 14.5625Z" fill="#31CC79"/>
<path d="M21.3781 23.0902C15.398 29.9735 6 40.9253 6 40.9253C22.9072 45.4481 30.697 34.4713 31.9169 30.6712C33.5522 25.5763 31.2415 23.0902 29.9338 22.2794C25.4996 19.5303 22.2096 22.1329 21.3781 23.0902Z" fill="#93E65C"/>
<path opacity="0.86" d="M21.4611 22.9313C22.4097 21.9089 25.6346 19.5306 29.9363 22.2081C31.2442 23.022 33.555 25.5182 31.9195 30.6339C31.4457 32.1161 29.9803 34.6855 27.3742 37.0076C24.6718 37.0262 18.6065 37.1059 9.17803 37.2472L20.8322 23.661C21.0349 23.424 21.2361 23.1904 21.4351 22.9593L21.4611 22.9313Z" fill="#60DB69"/>
</svg>
