<svg width="850" height="850" viewBox="0 0 850 850" fill="none" xmlns="http://www.w3.org/2000/svg">
<rect width="850" height="850" fill="white"/>
<rect width="31.5061" height="64.179" rx="12.7966" transform="matrix(-0.707107 0.707107 0.707107 0.707107 363.668 521.6)" fill="black"/>
<rect x="498.791" y="521.6" width="31.5061" height="64.179" rx="12.7966" transform="rotate(45 498.791 521.6)" fill="black"/>
<path d="M321.479 290.221C306.468 329.861 339.742 375.416 369.675 404.66C433.711 468.695 391.576 531.528 361.933 554.672L120.261 442.25C236.949 394.408 230.531 290.221 321.479 290.221Z" fill="black"/>
<path d="M537.544 290.222C552.555 329.861 519.281 375.416 489.348 404.66C425.312 468.695 467.447 531.529 497.09 554.672L738.762 442.25C622.074 394.408 628.492 290.222 537.544 290.222Z" fill="black"/>
<rect x="365.752" y="298.389" width="128.913" height="230.338" rx="64.4567" fill="black"/>
<path d="M448.295 274.954L529.756 234.544C536.94 269.438 522.487 313.653 514.362 331.4L448.295 274.954Z" fill="#003ECB"/>
<path d="M413.79 274.954L332.328 234.544C325.144 269.438 339.598 313.653 347.722 331.4L413.79 274.954Z" fill="#003ECB"/>
<path d="M493.192 308.95L529.754 234.544C537.451 273.671 521.629 318.143 513.718 332.682L493.192 308.95Z" fill="black"/>
<path d="M368.889 308.95L332.328 234.544C324.631 273.671 340.453 318.143 348.363 332.682L368.889 308.95Z" fill="black"/>
<rect x="408.523" y="279.444" width="43.6171" height="82.1028" rx="12.7966" fill="#003ECB"/>
<path d="M381.428 281.172C399.95 273.366 422.354 270.95 431.241 270.718V424.747H419.314C414.403 424.747 407.387 420.566 405.984 409.414C404.58 398.263 398.691 394.778 392.653 391.99C387.684 389.696 354.768 387.808 342.139 355.748C329.511 323.687 358.276 290.93 381.428 281.172Z" fill="black"/>
<path d="M479.888 281.172C461.366 273.366 438.962 270.95 430.075 270.718V424.747H442.002C446.913 424.747 453.929 420.566 455.332 409.414C456.735 398.263 463.751 393.384 468.662 391.99C473.931 390.495 506.548 387.808 519.177 355.748C531.805 323.687 503.04 290.93 479.888 281.172Z" fill="black"/>
<path d="M402.111 395.054C402.111 388.921 407.605 384.247 413.659 385.23L429.043 387.728C430.112 387.902 431.202 387.9 432.27 387.722L446.973 385.279C453.038 384.272 458.557 388.95 458.557 395.098V400.342C458.557 405.839 454.101 410.295 448.604 410.295H412.064C406.567 410.295 402.111 405.839 402.111 400.342V395.054Z" fill="#E2F5FE"/>
<circle cx="415.579" cy="398.079" r="8.33857" fill="black"/>
<circle cx="445.084" cy="398.079" r="8.33857" fill="black"/>
<path fill-rule="evenodd" clip-rule="evenodd" d="M397.399 339.564H385.73V351.233V351.545H385.735C385.899 357.845 391.059 362.902 397.399 362.902C403.844 362.902 409.068 357.678 409.068 351.233C409.068 344.893 404.011 339.733 397.711 339.569V339.564H397.399Z" fill="white"/>
<path fill-rule="evenodd" clip-rule="evenodd" d="M463.912 339.564H475.581V351.233V351.545H475.576C475.412 357.845 470.252 362.902 463.912 362.902C457.467 362.902 452.243 357.678 452.243 351.233C452.243 344.893 457.3 339.733 463.6 339.569V339.564H463.912Z" fill="white"/>
<path d="M52 425.406H424.522V727.784H277.456C159.802 727.784 78.1297 526.199 52 425.406Z" fill="#E2F5FE"/>
<rect x="289.921" y="727.784" width="286.264" height="16.1142" fill="#003ECB"/>
<path d="M798.939 425.406H424.522V727.784H572.337C690.588 727.784 772.677 526.199 798.939 425.406Z" fill="#E2F5FE"/>
<path d="M575.793 728.646C488.754 728.84 309.541 728.646 288.973 728.646C387.5 713.095 627.432 630.676 798.94 425.406C791.346 470.309 738.772 603.268 681.525 668.581C638.299 717.897 592.928 729.618 575.793 728.646Z" fill="#003ECB"/>
</svg>
