<svg width="850" height="850" viewBox="0 0 850 850" fill="none" xmlns="http://www.w3.org/2000/svg">
<rect width="850" height="850" fill="white"/>
<rect x="245" y="226" width="476" height="452" fill="#E2F5FE"/>
<path fill-rule="evenodd" clip-rule="evenodd" d="M181.889 306.871L127.979 252.96H181.889H181.89H235.8L235.92 253.079L235.801 252.96H289.711H289.712H343.622H343.623H397.533L397.652 253.078L397.534 252.96H451.444H451.445H505.355H505.355H559.266L559.385 253.078L559.267 252.96C577.237 253.334 613.178 252.96 613.177 252.96H667.088C667.088 252.96 703.029 288.526 721 306.871L720.999 306.871V353.629C720.999 366.884 710.254 377.629 696.999 377.629H691.088C677.878 377.629 667.16 366.956 667.088 353.763C667.016 366.956 656.299 377.629 643.088 377.629H637.177C623.968 377.629 613.251 366.958 613.178 353.766C613.104 366.958 602.387 377.629 589.178 377.629H583.267C570.012 377.629 559.267 366.884 559.267 353.629V306.871H559.267H559.266V353.629C559.266 366.884 548.521 377.629 535.266 377.629H529.355C516.145 377.629 505.427 366.956 505.355 353.763C505.283 366.956 494.566 377.629 481.355 377.629H475.444C462.234 377.629 451.517 366.956 451.445 353.763C451.373 366.956 440.655 377.629 427.445 377.629H421.534C408.279 377.629 397.534 366.884 397.534 353.629V306.871H397.534H397.533V353.629C397.533 366.884 386.788 377.629 373.533 377.629H367.622C354.412 377.629 343.694 366.956 343.622 353.763C343.55 366.956 332.833 377.629 319.623 377.629H313.712C300.501 377.629 289.784 366.956 289.712 353.763C289.64 366.956 278.922 377.629 265.712 377.629H259.801C246.546 377.629 235.801 366.884 235.801 353.629V306.871H235.801H235.8V353.629C235.8 366.884 225.055 377.629 211.8 377.629H205.889C192.634 377.629 181.889 366.884 181.889 353.629V306.871H181.889ZM613.177 306.871L613.143 306.837L613.177 306.871H613.177ZM289.711 306.871H289.711L289.652 306.811L289.712 306.871H289.711ZM451.409 306.835L451.444 306.871H451.444L451.409 306.835Z" fill="black"/>
<rect x="83" y="172" width="163" height="506" fill="black"/>
<rect x="415" y="461" width="131" height="217" fill="#003ECB"/>
<path d="M227 280H281V327C281 340.255 270.255 351 257 351H251C237.745 351 227 340.255 227 327V280Z" fill="white"/>
<path d="M335 280H389V327C389 340.255 378.255 351 365 351H359C345.745 351 335 340.255 335 327V280Z" fill="white"/>
<path d="M443 280H497V327C497 340.255 486.255 351 473 351H467C453.745 351 443 340.255 443 327V280Z" fill="white"/>
<path d="M551 280H605V327C605 340.255 594.255 351 581 351H575C561.745 351 551 340.255 551 327V280Z" fill="white"/>
<path d="M659 280H713V327C713 340.255 702.255 351 689 351H683C669.745 351 659 340.255 659 327V280Z" fill="white"/>
<path d="M281 280H335V327C335 340.255 324.255 351 311 351H305C291.745 351 281 340.255 281 327V280Z" fill="#003ECB"/>
<path d="M389 280H443V327C443 340.255 432.255 351 419 351H413C399.745 351 389 340.255 389 327V280Z" fill="#003ECB"/>
<path d="M497 280H551V327C551 340.255 540.255 351 527 351H521C507.745 351 497 340.255 497 327V280Z" fill="#003ECB"/>
<path d="M605 280H659V327C659 340.255 648.255 351 635 351H629C615.745 351 605 340.255 605 327V280Z" fill="#003ECB"/>
<path d="M713 280H767V327C767 340.255 756.255 351 743 351H737C723.745 351 713 340.255 713 327V280Z" fill="#003ECB"/>
<path d="M659 226L713 280H767C749 261.625 713 226 713 226H659Z" fill="#003ECB"/>
<path d="M605 172L659 226H713C695 207.625 659 172 659 172H605Z" fill="#003ECB"/>
<path d="M605 226L659 280H713C695 261.625 659 226 659 226C659 226 623 226.375 605 226Z" fill="white"/>
<path d="M551 172L605 226H659C641 207.625 605 172 605 172C605 172 569 172.375 551 172Z" fill="white"/>
<path d="M551 226L605 280H659C641 261.625 605 226 605 226H551Z" fill="#003ECB"/>
<path d="M497 172L551 226H605C587 207.625 551 172 551 172H497Z" fill="#003ECB"/>
<path d="M497 226L551 280H605C587 261.625 551 226 551 226H497Z" fill="white"/>
<path d="M443 172L497 226H551C533 207.625 497 172 497 172H443Z" fill="white"/>
<path d="M443 226L497 280H551C533 261.625 497 226 497 226H443Z" fill="#003ECB"/>
<path d="M389 172L443 226H497C479 207.625 443 172 443 172H389Z" fill="#003ECB"/>
<path d="M389 226L443 280H497C479 261.625 443 226 443 226H389Z" fill="white"/>
<path d="M335 172L389 226H443C425 207.625 389 172 389 172H335Z" fill="white"/>
<path d="M335 226L389 280H443C425 261.625 389 226 389 226H335Z" fill="#003ECB"/>
<path d="M281 172L335 226H389C371 207.625 335 172 335 172H281Z" fill="#003ECB"/>
<path d="M281 226L335 280H389C371 261.625 335 226 335 226H281Z" fill="white"/>
<path d="M227 172L281 226H335C317 207.625 281 172 281 172H227Z" fill="white"/>
<path d="M227 226L281 280H335C317 261.625 281 226 281 226H227Z" fill="#003ECB"/>
<path d="M173 172L227 226H281C263 207.625 227 172 227 172H173Z" fill="#003ECB"/>
<path d="M173 226L227 280H281C263 261.625 227 226 227 226H173Z" fill="white"/>
<path d="M119 172L173 226H227C209 207.625 173 172 173 172H119Z" fill="white"/>
<rect x="537" y="461" width="9" height="217" fill="black"/>
<ellipse cx="516" cy="563.5" rx="7" ry="6.5" fill="white"/>
<rect x="415" y="461" width="131" height="9" fill="black"/>
<mask id="mask0_1_668" style="mask-type:alpha" maskUnits="userSpaceOnUse" x="414" y="460" width="133" height="219">
<rect x="414.712" y="460.982" width="131.56" height="217.018" fill="#00C2BA"/>
</mask>
<g mask="url(#mask0_1_668)">
<rect x="386.888" y="490.218" width="259.809" height="24.777" transform="rotate(36.9811 386.888 490.218)" fill="black"/>
</g>
<rect x="387.343" y="481.1" width="259.809" height="24.777" transform="rotate(36.9811 387.343 481.1)" fill="white"/>
<path d="M381.963 482.367L387.342 481.1L372.438 500.893L367.485 501.594L381.963 482.367Z" fill="black"/>
<path d="M372.438 500.893L579.982 657.182L575.029 657.883L367.484 501.594L372.438 500.893Z" fill="black"/>
</svg>
