<svg width="850" height="850" viewBox="0 0 850 850" fill="none" xmlns="http://www.w3.org/2000/svg">
<rect width="850" height="850" fill="#003ECB"/>
<rect x="189" y="148.746" width="123.941" height="555.256" fill="white"/>
<path d="M312.941 629.018V553.618C312.941 553.618 280.395 549.213 261.126 541.441C234.322 530.631 189.62 497.021 189.62 497.021C189.62 497.021 214.408 531.928 249.111 569.526C275.506 598.122 312.941 629.018 312.941 629.018Z" fill="black"/>
<path d="M566.078 478.271C587.659 471.271 631.45 461.915 633.967 480.498C637.113 503.727 570.777 477.82 566.078 478.271Z" fill="white"/>
<path fill-rule="evenodd" clip-rule="evenodd" d="M633.912 480.13C633.932 480.252 633.951 480.374 633.967 480.498C636.412 498.55 596.893 486.926 576.952 481.061C572.752 479.826 569.421 478.846 567.533 478.452L567.41 478.026C596.736 484.137 623.877 481.988 633.912 480.13Z" fill="black"/>
<path d="M520.543 148.294L308.603 148.294L246.707 534.644C294.754 563.966 396.616 615.154 412.106 598.751C427.596 582.348 433.595 549.892 429.142 541.832C434.111 538.89 444.372 530.593 445.668 520.948C447.289 508.89 377.096 477.796 379.574 459.355C382.052 440.915 475.112 446.923 477.304 430.61L483.404 385.219C516.313 374.96 562.683 368.122 557.105 333.418C551.935 301.249 518.274 259.176 516 207.496C514.981 184.331 524.88 166.886 520.543 148.294Z" fill="white"/>
<path d="M398.46 203.941L500.092 193.365C500.092 205.528 486.714 218.263 480.025 223.111L398.46 203.941Z" fill="#003ECB"/>
<path d="M400.939 204.519L480.262 223.11C480.262 224.97 479.642 229.06 477.163 230.547C474.684 232.034 424.488 213.608 400.939 204.519Z" fill="black"/>
<path d="M501.092 184.613C509.389 185.888 509.336 170.796 508.272 163.091C479.551 153.526 433.013 154.323 413.333 155.917C454.021 157.511 490.72 183.019 501.092 184.613Z" fill="black"/>
<path d="M549.193 542.396C571.721 545.087 615.401 554.952 609.895 572.878C603.014 595.286 553.649 543.956 549.193 542.396Z" fill="white"/>
<path fill-rule="evenodd" clip-rule="evenodd" d="M609.999 572.521C609.967 572.64 609.932 572.759 609.895 572.878C604.547 590.292 573.541 563.172 557.896 549.487C554.601 546.605 551.987 544.319 550.438 543.17L550.505 542.731C574.569 560.574 600.11 570 609.999 572.521Z" fill="black"/>
<path d="M517.907 585.722C532.04 603.471 556.177 641.188 539.661 650.07C519.016 661.173 519.98 589.963 517.907 585.722Z" fill="white"/>
<path fill-rule="evenodd" clip-rule="evenodd" d="M539.985 649.889C539.879 649.951 539.771 650.011 539.661 650.07C523.617 658.698 520.623 617.614 519.113 596.883C518.795 592.517 518.542 589.054 518.248 587.148L518.604 586.883C523.18 616.488 534.723 641.145 539.985 649.889Z" fill="black"/>
</svg>
