<svg width="850" height="850" viewBox="0 0 850 850" fill="none" xmlns="http://www.w3.org/2000/svg">
<rect width="850" height="850" fill="#E2F5FE"/>
<path d="M94 260.61C94 251.989 99.6982 245 106.727 245H158.273C165.302 245 171 251.989 171 260.61V261.39C171 270.011 165.302 277 158.273 277H106.727C99.6982 277 94 270.011 94 261.39V260.61Z" fill="black"/>
<ellipse cx="556.5" cy="594.5" rx="62.5" ry="80.5" fill="black"/>
<rect x="562" y="514" width="17" height="161" fill="black"/>
<ellipse cx="578.5" cy="594.5" rx="54.5" ry="80.5" fill="black"/>
<ellipse cx="578.5" cy="595" rx="43.5" ry="57" fill="white"/>
<ellipse cx="581" cy="600" rx="13" ry="21" fill="black"/>
<rect x="581.76" y="529.847" width="16.8783" height="63.7801" transform="rotate(7.30442 581.76 529.847)" fill="black"/>
<rect x="144" y="251" width="91" height="19" rx="9.5" fill="#003ECB"/>
<path d="M587 420.5C587 418.015 589.002 416 591.472 416H702.528C704.998 416 707 418.015 707 420.5V426.5C707 428.985 704.998 431 702.528 431H591.472C589.002 431 587 428.985 587 426.5V420.5Z" fill="black"/>
<path d="M535 275.072C535 266.748 541.716 260 550 260H670C678.284 260 685 266.748 685 275.072V400.928C685 409.252 678.284 416 670 416H550C541.716 416 535 409.252 535 400.928V275.072Z" fill="white"/>
<path d="M598 275.072C598 266.748 604.761 260 613.1 260H733.9C742.239 260 749 266.748 749 275.072V400.928C749 409.252 742.239 416 733.9 416H613.1C604.761 416 598 409.252 598 400.928V275.072Z" fill="#003ECB"/>
<path d="M404.836 587C446.155 541.506 405.731 458.921 377 431C414.562 431 484.59 431 558.105 431C629.205 481.719 626.857 556.133 616.796 587H404.836Z" fill="black"/>
<path d="M287.973 305H236.273C175.611 383.776 191.727 524.49 207.368 585H335C335 585 279.339 415.497 287.973 305Z" fill="black"/>
<rect x="230" y="566" width="291" height="21" fill="#003ECB"/>
<path d="M285.136 307H216.822C156.497 385.789 172.897 501.718 188.451 562.239C188.451 562.239 193.678 596.822 253.406 593.815C313.134 590.807 315 587.048 315 587.048C315 587.048 265.351 409.246 285.136 307Z" fill="#003ECB"/>
<path d="M307 276C307 305.271 265.242 329 235.625 329C206.009 329 182 305.271 182 276C182 246.729 206.009 223 235.625 223C265.242 223 307 246.729 307 276Z" fill="white"/>
<ellipse cx="227" cy="274.5" rx="34" ry="38.5" fill="#003ECB"/>
<path d="M212.479 561C212.479 561 181.26 444.488 232.136 334H236.375C218.8 422.067 225.198 446.496 241 561H212.479Z" fill="white"/>
<path d="M458.95 587C500.437 541.506 459.848 458.921 431 431C468.716 431 539.029 431 612.844 431C684.234 481.719 681.877 556.133 671.775 587H458.95Z" fill="#003ECB"/>
<path d="M377 405.815C377 397.633 383.534 391 391.595 391H420.054L431 431H377V405.815Z" fill="black"/>
<path d="M567.543 506.653C525.823 514.337 483 548.294 483 587H620.813C633.466 587 640.55 573.053 632.727 563.544L624.26 519.088C604.946 497.819 578.533 504.629 567.543 506.653Z" fill="#E2F5FE"/>
<path d="M593.76 506.469C552.903 514.378 511 547.428 511 587H646.045C658.49 587 665.47 572.757 657.797 563.02L623.022 518.891C615.949 509.915 605.021 504.29 593.76 506.469Z" fill="#003ECB"/>
<ellipse cx="217.608" cy="594.751" rx="54.4007" ry="80.6631" fill="black"/>
<rect x="214.231" y="514.088" width="17.2581" height="161.326" fill="black"/>
<ellipse cx="231.114" cy="594.751" rx="54.4007" ry="80.6631" fill="black"/>
<ellipse cx="242.369" cy="595.127" rx="31.8901" ry="57.0269" fill="white"/>
<path d="M201.475 505.084C171.223 505.084 146.699 535.319 146.699 572.616H256.251C256.251 535.319 231.727 505.084 201.475 505.084Z" fill="white"/>
<rect x="205.977" y="505.084" width="31.5149" height="67.5319" fill="white"/>
<ellipse cx="247.247" cy="599.629" rx="12.756" ry="21.0099" fill="black"/>
<rect x="247.852" y="529.846" width="16.8783" height="63.7801" transform="rotate(7.30442 247.852 529.846)" fill="black"/>
<path d="M235.991 505.084C205.74 505.084 181.216 535.319 181.216 572.616H290.767C290.767 535.319 266.243 505.084 235.991 505.084Z" fill="#003ECB"/>
<rect x="545" y="546" width="88" height="8" rx="4" fill="#003ECB"/>
<rect x="545" y="561" width="88" height="8" rx="4" fill="#003ECB"/>
<rect x="535" y="299" width="214" height="23" fill="black"/>
<rect x="535" y="371" width="214" height="11" fill="black"/>
<path d="M524 261.815C524 253.633 530.709 247 538.984 247H742.016C750.291 247 757 253.633 757 261.815V292.185C757 300.367 750.291 307 742.016 307H538.984C530.709 307 524 300.367 524 292.185V261.815Z" fill="white"/>
<path d="M598 261.815C598 253.633 604.716 247 613 247H742C750.284 247 757 253.633 757 261.815V292.185C757 300.367 750.284 307 742 307H613C604.716 307 598 300.367 598 292.185V261.815Z" fill="#003ECB"/>
<path d="M421 390.139L547.378 373.391C574.206 369.835 598 390.996 598 418.408V431H430.219L421 390.139Z" fill="white"/>
<rect x="277" y="251" width="91" height="19" rx="9.5" fill="#003ECB"/>
<path d="M316 260.61C316 251.989 322.734 245 331.041 245H391.959C400.266 245 407 251.989 407 260.61V261.39C407 270.011 400.266 277 391.959 277H331.041C322.734 277 316 270.011 316 261.39V260.61Z" fill="black"/>
</svg>
