<svg width="850" height="850" viewBox="0 0 850 850" fill="none" xmlns="http://www.w3.org/2000/svg">
<rect width="850" height="850" fill="#E2F5FE"/>
<path d="M145 421V297H189.352L212 421H145Z" fill="white"/>
<rect x="131" y="469" width="127" height="205" fill="#003ECB"/>
<path d="M232 674L128.396 568L123 674H232Z" fill="black"/>
<path d="M258 471.5C258 460.403 255.84 449.415 251.644 439.163C247.448 428.911 241.297 419.596 233.543 411.749C225.79 403.903 216.585 397.679 206.454 393.432C196.323 389.186 185.465 387 174.5 387C163.535 387 152.677 389.186 142.546 393.432C132.415 397.679 123.21 403.903 115.457 411.749C107.703 419.596 101.552 428.911 97.3561 439.163C93.1598 449.415 91 460.403 91 471.5L174.5 471.5H258Z" fill="#003ECB"/>
<ellipse cx="133.461" cy="468.882" rx="29.3333" ry="34.6533" fill="white"/>
<rect x="104.128" y="466.406" width="58.6665" height="207.92" fill="white"/>
<ellipse cx="133.5" cy="473.5" rx="42.5" ry="43.5" fill="#003ECB"/>
<rect x="91" y="472" width="85" height="73" fill="#003ECB"/>
<path d="M147 209C138.606 209 129.212 210.63 121.457 213.796C113.702 216.962 106.656 221.602 100.721 227.452C94.7855 233.302 90.0775 240.247 86.8654 247.891C83.6533 255.534 82 263.727 82 272C82 280.273 83.6533 288.466 86.8654 296.109C90.0775 303.753 94.7855 310.698 100.721 316.548C106.656 322.398 113.702 327.038 121.457 330.204C129.212 333.37 137.523 335 145.917 335L145.917 272L147 209Z" fill="black"/>
<circle cx="201" cy="323" r="42" fill="white"/>
<rect x="159" y="239" width="84" height="86" fill="white"/>
<circle cx="240.5" cy="211.5" r="36.5" fill="black"/>
<ellipse cx="147.5" cy="211.5" rx="37.5" ry="36.5" fill="black"/>
<rect x="145" y="175" width="96" height="73" fill="black"/>
<rect x="139" y="211" width="47" height="70" fill="black"/>
<ellipse cx="153" cy="284.5" rx="21" ry="20.5" fill="white"/>
<path d="M257.786 307.107L229.56 307.107L243.673 282.663L257.786 307.107Z" fill="white"/>
<path d="M629 421V297H668.056L688 421H629Z" fill="white"/>
<rect x="615" y="469" width="127" height="205" fill="#003ECB"/>
<path d="M717 674L613.396 568L608 674H717Z" fill="black"/>
<path d="M742 471.5C742 460.403 739.827 449.415 735.606 439.163C731.384 428.911 725.197 419.596 717.397 411.749C709.597 403.903 700.337 397.679 690.145 393.432C679.954 389.186 669.031 387 658 387C646.969 387 636.046 389.186 625.855 393.432C615.663 397.679 606.403 403.903 598.603 411.749C590.803 419.596 584.616 428.911 580.394 439.163C576.173 449.415 574 460.403 574 471.5L658 471.5H742Z" fill="#003ECB"/>
<ellipse cx="617.492" cy="468.882" rx="29.3333" ry="34.6533" fill="white"/>
<rect x="588.159" y="466.406" width="58.6665" height="207.92" fill="white"/>
<ellipse cx="617" cy="473.5" rx="43" ry="43.5" fill="#003ECB"/>
<rect x="574" y="472" width="86" height="73" fill="#003ECB"/>
<ellipse cx="684.5" cy="323" rx="42.5" ry="42" fill="white"/>
<rect x="642" y="239" width="85" height="86" fill="white"/>
<path d="M629 470C620.256 470 610.181 468.28 602.103 464.938C594.025 461.596 586.685 456.698 580.502 450.523C574.319 444.348 569.414 437.017 566.068 428.948C562.722 420.88 561 412.233 561 403.5C561 394.767 562.722 386.12 566.068 378.052C569.414 369.983 574.319 362.652 580.502 356.477C586.685 350.302 594.025 345.404 602.103 342.062C610.181 338.72 620.256 337 629 337L629 403.5L629 470Z" fill="black"/>
<ellipse cx="629.5" cy="215" rx="40.5" ry="40" fill="black"/>
<circle cx="710" cy="214" r="39" fill="black"/>
<circle cx="595" cy="232" r="34" transform="rotate(90 595 232)" fill="black"/>
<rect x="630" y="175" width="82" height="78" fill="black"/>
<rect x="629" y="233" width="173" height="68" transform="rotate(90 629 233)" fill="black"/>
<path d="M741.818 307.107L713.592 307.107L727.705 282.663L741.818 307.107Z" fill="white"/>
<path d="M640 298L607.091 241.75L672.909 241.75L640 298Z" fill="black"/>
<circle cx="640.5" cy="284.5" r="20.5" fill="white"/>
<path d="M736.282 440.719L765.809 515.682H706.884L736.282 440.719Z" fill="#003ECB"/>
<circle cx="736.281" cy="528.91" r="32.3369" fill="#003ECB"/>
<path d="M301 476.732C299.667 475.962 299.667 474.038 301 473.268L326.5 458.546C327.833 457.776 329.5 458.738 329.5 460.278L329.5 489.722C329.5 491.262 327.833 492.224 326.5 491.454L301 476.732Z" fill="black"/>
<path d="M515 473.268C516.333 474.038 516.333 475.962 515 476.732L489.5 491.454C488.167 492.224 486.5 491.262 486.5 489.722L486.5 460.278C486.5 458.738 488.167 457.776 489.5 458.546L515 473.268Z" fill="black"/>
<path d="M321 473H494" stroke="black" stroke-width="6" stroke-dasharray="12 12"/>
</svg>
