<svg width="850" height="850" viewBox="0 0 850 850" fill="none" xmlns="http://www.w3.org/2000/svg">
<g clip-path="url(#clip0_1_911)">
<rect width="850" height="850" fill="#003ECB"/>
<path d="M713.754 303.614C566.311 301.167 556.906 404.088 561.149 492.39C563.137 492.48 578.012 492.7 621.613 492.868C665.214 493.037 693.721 468.548 702.499 456L671.15 454.027C729.166 452.453 762.635 423.013 771.999 408.5C728.799 406.06 709.164 405.707 709.164 405.707C709.164 405.707 796.362 397.513 814.499 359.5L764.354 357.412C826.597 354.834 856.866 324.477 861.499 310L713.754 303.614Z" fill="white"/>
<path d="M702.5 351.5C776.1 346.3 839.333 321.5 861.5 310C848 347 789.499 356.666 765.5 357L702.5 351.5Z" fill="black"/>
<path d="M656 400.5C729.6 395.3 792.333 371 814.5 359.5C801 396.5 742.999 405.666 719 406L656 400.5Z" fill="black"/>
<path d="M613 450C686.6 444.8 749.833 420 772 408.5C758.5 445.5 699.999 455.166 676 455.5L613 450Z" fill="black"/>
<path d="M544 496.5C617.6 491.3 680.333 467.5 702.5 456C689 493 630.999 501.666 607 502L544 496.5Z" fill="black"/>
<path d="M206.723 203.624C341.079 264.4 305.615 361.475 264.055 439.501C262.22 438.732 248.676 432.577 209.182 414.102C169.688 395.628 154.662 360.818 152.086 345.722L180.987 357.821C129.203 331.614 111.723 290.817 109.457 273.694C149.559 289.944 167.258 297.892 167.258 297.892C167.258 297.892 92.0462 253.467 91.887 211.349L137.99 230.649C82.8137 201.728 68.4815 161.655 70.4768 146.586L206.723 203.624Z" fill="white"/>
<rect x="207.628" y="301.052" width="469.806" height="281.883" rx="30" transform="rotate(12.6451 207.628 301.052)" fill="#E2F5FE"/>
<circle cx="626.749" cy="428.788" r="18.7922" transform="rotate(12.6451 626.749 428.788)" fill="#003ECB"/>
<circle cx="579.44" cy="639.657" r="18.7922" transform="rotate(12.6451 579.44 639.657)" fill="#003ECB"/>
<circle cx="232.516" cy="340.34" r="18.7922" transform="rotate(12.6451 232.516 340.34)" fill="#003ECB"/>
<circle cx="185.207" cy="551.209" r="18.7922" transform="rotate(12.6451 185.207 551.209)" fill="#003ECB"/>
<ellipse cx="405.624" cy="489.436" rx="139.532" ry="63.4238" transform="rotate(12.6451 405.624 489.436)" fill="white"/>
<path d="M380.555 561.64L383.342 551.859C377.122 549.678 371.111 547.151 365.309 544.279C359.535 541.282 354.43 538.239 349.993 535.149C345.708 531.962 342.739 529.071 341.086 526.475L356.54 500.687C361.951 505.304 367.487 509.36 373.148 512.855C378.838 516.226 385.016 519.183 391.681 521.726L397.421 501.416C396.322 501.038 395.299 500.612 394.353 500.138C379.299 493.357 368.803 486.487 362.866 479.526C356.957 472.441 355.177 463.664 357.526 453.196C359.903 442.603 365.804 435.353 375.232 431.447C384.687 427.416 396.617 426.427 411.022 428.481L412.849 417.699L437.272 423.179L434.318 433.708C445.548 437.013 453.743 440.357 458.904 443.74C464.218 447.026 467.911 449.622 469.984 451.527L456.136 478.068C453.479 476.425 449.736 474.342 444.909 471.819C440.109 469.171 433.799 466.512 425.979 463.841L420.322 483.777C421.394 484.279 422.416 484.705 423.39 485.055C431.85 488.393 439.154 492.191 445.302 496.45C451.451 500.709 455.921 505.705 458.713 511.436C461.506 517.167 462.021 523.959 460.26 531.81C457.883 542.403 452.141 549.82 443.033 554.059C433.926 558.299 421.794 559.308 406.638 557.086L404.979 567.12L380.555 561.64ZM390.882 462.839C390.155 466.079 390.862 468.79 393.004 470.973C395.298 473.058 398.54 475.029 402.728 476.885L405.94 458.167L404.625 457.872C401.369 457.142 398.397 457.195 395.71 458.032C393.05 458.744 391.441 460.347 390.882 462.839ZM425.693 522.288C426.252 519.795 425.572 517.548 423.653 515.547C421.734 513.546 418.771 511.507 414.764 509.43L411.677 527.586C415.212 528.249 418.233 528.272 420.739 527.656C423.398 526.944 425.05 525.154 425.693 522.288Z" fill="black"/>
<path d="M381.584 557.057L384.371 547.275C378.151 545.095 372.14 542.568 366.338 539.696C360.564 536.699 355.459 533.655 351.022 530.565C346.737 527.379 343.768 524.487 342.115 521.891L357.569 496.103C362.98 500.72 368.516 504.776 374.178 508.272C379.867 511.643 386.045 514.6 392.71 517.142L398.45 496.832C397.351 496.454 396.328 496.029 395.382 495.555C380.328 488.774 369.832 481.903 363.895 474.943C357.987 467.857 356.206 459.081 358.555 448.612C360.932 438.019 366.834 430.77 376.261 426.863C385.716 422.832 397.646 421.844 412.051 423.898L413.878 413.116L438.301 418.595L435.347 429.124C446.577 432.429 454.772 435.773 459.933 439.156C465.247 442.443 468.941 445.038 471.013 446.943L457.165 473.485C454.508 471.841 450.765 469.758 445.938 467.235C441.138 464.588 434.828 461.928 427.008 459.258L421.351 479.194C422.423 479.696 423.445 480.122 424.419 480.471C432.879 483.809 440.183 487.608 446.332 491.867C452.48 496.126 456.95 501.121 459.742 506.853C462.535 512.584 463.05 519.375 461.289 527.227C458.912 537.82 453.17 545.236 444.062 549.476C434.955 553.716 422.823 554.724 407.667 552.502L406.008 562.536L381.584 557.057ZM391.911 458.256C391.184 461.496 391.891 464.207 394.033 466.389C396.327 468.475 399.569 470.445 403.757 472.301L406.969 453.584L405.654 453.289C402.398 452.558 399.426 452.611 396.739 453.448C394.079 454.161 392.47 455.763 391.911 458.256ZM426.722 517.704C427.281 515.212 426.601 512.965 424.682 510.964C422.763 508.962 419.8 506.923 415.793 504.846L412.707 523.003C416.241 523.665 419.262 523.688 421.768 523.072C424.427 522.36 426.079 520.571 426.722 517.704Z" fill="#003ECB"/>
<path fill-rule="evenodd" clip-rule="evenodd" d="M266.608 343.172C267.623 338.647 272.115 335.802 276.64 336.817L588.359 406.752C592.884 407.768 595.73 412.259 594.715 416.785C590.05 437.576 603.124 458.213 623.915 462.878C628.441 463.893 631.286 468.385 630.271 472.91L601.474 601.265C600.459 605.79 595.967 608.636 591.442 607.621C570.65 602.956 550.013 616.03 545.349 636.821C544.333 641.347 539.842 644.192 535.316 643.177L223.597 573.242C219.072 572.226 216.226 567.735 217.242 563.209C221.906 542.417 208.833 521.781 188.041 517.116L188.04 517.116C183.515 516.101 180.67 511.609 181.685 507.084L210.482 378.729C211.497 374.203 215.989 371.358 220.514 372.373L220.514 372.373C241.306 377.038 261.943 363.964 266.608 343.172ZM280.54 354.905C271.775 377.392 249.247 391.664 225.17 389.982L199.773 503.184C222.26 511.949 236.532 534.477 234.851 558.554L531.416 625.089C540.181 602.602 562.709 588.33 586.786 590.012L612.183 476.81C589.696 468.045 575.424 445.517 577.106 421.44L280.54 354.905Z" fill="#003ECB"/>
</g>
<defs>
<clipPath id="clip0_1_911">
<rect width="850" height="850" fill="white"/>
</clipPath>
</defs>
</svg>
