<svg width="850" height="850" viewBox="0 0 850 850" fill="none" xmlns="http://www.w3.org/2000/svg">
<rect width="850" height="850" fill="white"/>
<path d="M533.732 549C551.446 546 573.233 579.5 573.233 579.5C637.608 681.078 645.76 742.657 661.234 778.105L540.947 778.105C559.669 739.142 550.043 732.22 516.668 651.835L513.058 643.822C501.687 613.749 516.019 552 533.732 549Z" fill="#E2F5FE"/>
<path fill-rule="evenodd" clip-rule="evenodd" d="M588.329 778.105C578.778 756.99 553.294 706.927 541.732 684.5C540.593 682.289 546.539 678.431 552.251 674.724C556.091 672.232 559.825 669.809 561.232 668C538.732 676 528.552 664.288 526.839 661C521.663 651.067 521.292 650.175 520.782 648.947C520.395 648.016 519.929 646.892 517.232 641.5C504.193 615.42 515.94 576.459 520.083 563.467C509.99 584.235 504.886 622.209 513.058 643.822L516.668 651.834C521.93 664.508 526.602 675.356 530.665 684.791C552.374 735.199 556.718 745.285 540.947 778.105H588.329Z" fill="black"/>
<path d="M346.373 522.474C355.266 521.456 363.151 522.751 370.388 528.213C372.886 529.943 373.506 530.563 374.747 531.804C375.988 533.045 377.813 535.5 382.715 538.52C384.911 539.879 387.116 541.239 389.419 542.395C399.885 547.646 411.081 550.275 422.679 551.586C440.235 553.564 456.192 549.95 470.421 539.187C475.363 535.451 477.735 531.804 477.735 531.804C477.735 531.804 494 517.5 511.524 522.547C531.145 525.063 547.619 519.323 560.512 504.271C576.978 485.042 580.133 462.915 574.281 439.045C569.601 419.963 559.725 403.559 547.201 388.612C533.989 372.843 521.818 356.496 513.925 337.275C502.893 310.402 498.197 282.201 495.394 253.586C492.788 226.924 491.632 200.132 487.87 173.585C486.051 160.73 483.805 147.949 479.559 135.583C473.322 117.396 460.971 106.064 442.079 101.838C431.145 99.3961 420.203 99.51 409.196 101.456C392.378 104.435 380.256 113.35 373.084 128.818C370.798 133.751 368.97 138.839 367.609 144.09C361.11 169.107 359.2 194.767 357.135 220.379C355.274 243.442 353.733 266.538 349.537 289.333C345.128 313.292 338.161 336.404 325.646 357.587C318.089 370.384 308.057 381.334 299.025 393.041C281.707 415.494 270.371 440.03 273.527 469.208C275.912 491.327 291.993 514.74 315.532 521.416C325.752 524.314 336.12 523.646 346.373 522.474Z" fill="black"/>
<path d="M370.388 528.213C363.151 522.751 355.266 521.456 346.373 522.474C336.12 523.646 325.752 524.314 315.532 521.416C291.993 514.74 275.912 491.327 273.527 469.208C270.371 440.03 281.707 415.494 299.025 393.041C308.057 381.334 318.089 370.384 325.646 357.587C338.161 336.404 345.128 313.292 349.537 289.333C353.733 266.538 355.274 243.442 357.135 220.379C359.2 194.767 361.11 169.107 367.609 144.09C368.97 138.839 370.798 133.751 373.084 128.818C380.256 113.35 392.378 104.435 409.196 101.456C420.203 99.51 431.145 99.3961 442.079 101.838C460.971 106.064 473.322 117.396 479.559 135.583C483.805 147.949 486.051 160.73 487.87 173.585C491.632 200.132 492.788 226.924 495.394 253.586C498.197 282.201 502.893 310.402 513.925 337.275C521.818 356.496 533.989 372.843 547.201 388.612C559.725 403.559 569.601 419.963 574.281 439.045C580.133 462.915 576.978 485.042 560.512 504.271C547.619 519.323 531.145 525.063 511.524 522.547C498.705 520.903 492.829 522.311 481.707 528.791C482.961 527.611 484.149 526.357 485.477 525.258C496.181 516.409 509.016 513.193 522.433 511.476C526.613 510.938 530.834 510.401 534.719 508.626C541.923 505.329 542.612 499.028 535.932 494.583C528.973 489.943 521.13 489.454 513.147 491.506C497.5 495.535 487.665 505.907 481.625 520.341C480.994 521.839 480.125 523.345 479.961 524.908C479.289 531.388 475.363 535.451 470.421 539.187C456.192 549.95 440.235 553.564 422.679 551.586C411.081 550.275 399.885 547.646 389.419 542.395C387.116 541.239 384.911 539.879 382.715 538.52C377.813 535.5 374.92 531.494 373.175 525.665C367.667 507.275 356.299 494.306 336.292 490.789C329.924 489.666 323.761 490.773 318.138 493.948C314.958 495.739 312.343 498.246 312.778 502.349C313.179 506.119 316.114 507.788 319.244 508.96C326.064 511.516 333.374 511.72 340.439 513.104C351.873 515.302 362.11 519.893 370.388 528.213Z" fill="#E2F5FE"/>
<path fill-rule="evenodd" clip-rule="evenodd" d="M404.527 104.343C398.529 122.749 387.155 181.026 389.637 266.89C391.293 324.202 386.758 348.434 383.305 366.885C380.292 382.988 378.102 394.688 381.571 420.131C388.013 467.369 435.547 501.404 470.29 501.404C477.356 501.404 485.655 501.404 494.617 501.253C489.038 506.268 484.805 512.742 481.625 520.342C481.472 520.705 481.305 521.069 481.137 521.433C480.614 522.573 480.085 523.725 479.961 524.909C479.289 531.389 475.363 535.451 470.421 539.188C456.192 549.95 440.235 553.565 422.679 551.587C411.081 550.276 399.885 547.646 389.419 542.396C387.116 541.24 384.911 539.88 382.715 538.52C377.813 535.5 374.92 531.495 373.175 525.666C367.667 507.275 356.299 494.307 336.292 490.79C329.924 489.667 323.761 490.774 318.138 493.949C314.958 495.74 312.343 498.247 312.778 502.35C313.179 506.119 316.114 507.788 319.244 508.961C323.785 510.663 328.544 511.322 333.304 511.981C335.691 512.311 338.079 512.642 340.439 513.104C351.873 515.302 362.11 519.894 370.388 528.214C363.151 522.751 355.266 521.457 346.373 522.475C336.12 523.647 325.752 524.314 315.532 521.416C291.993 514.741 275.912 491.327 273.527 469.208C270.371 440.031 281.707 415.494 299.025 393.041C301.634 389.66 304.326 386.342 307.018 383.024C313.645 374.855 320.271 366.689 325.646 357.587C338.161 336.405 345.128 313.292 349.537 289.334C353.283 268.986 354.913 248.398 356.543 227.808C356.739 225.332 356.935 222.855 357.135 220.38C357.204 219.528 357.272 218.676 357.341 217.824C359.332 193.062 361.326 168.276 367.609 144.091C368.97 138.84 370.798 133.752 373.084 128.818C379.268 115.481 389.132 107.017 402.513 103.027C403.187 103.445 403.859 103.883 404.527 104.343ZM567.662 494.409C559.035 496.369 549.589 497.78 539.902 498.795C541.666 502.427 539.836 506.285 534.719 508.627C530.85 510.394 526.647 510.934 522.484 511.47L522.433 511.476C509.016 513.194 496.181 516.41 485.477 525.259C484.575 526.005 483.737 526.823 482.9 527.641C482.504 528.027 482.109 528.413 481.707 528.792C492.829 522.312 498.705 520.903 511.524 522.548C531.145 525.063 547.619 519.324 560.512 504.271C563.259 501.063 565.636 497.774 567.662 494.409Z" fill="#003ECB"/>
<rect x="501.31" y="437.502" width="14.8898" height="265.429" fill="#003ECB"/>
<path d="M500.069 508.66V493.446C500.625 490.641 511.419 488.069 516.746 487.134V499.543C513.411 499.543 504.933 504.452 500.069 508.66Z" fill="black"/>
<path fill-rule="evenodd" clip-rule="evenodd" d="M404.527 104.343C398.529 122.748 387.155 181.025 389.637 266.89C391.293 324.202 386.758 348.434 383.305 366.885C380.291 382.988 378.102 394.687 381.571 420.131C388.013 467.368 435.547 501.404 470.29 501.404C477.356 501.404 485.655 501.404 494.617 501.252C499.633 496.743 505.739 493.414 513.147 491.506C521.13 489.454 528.973 489.943 535.932 494.583C537.866 495.871 539.183 497.314 539.902 498.795C549.589 497.779 559.035 496.368 567.662 494.408C577.78 477.609 579.156 458.932 574.281 439.045C569.601 419.963 559.725 403.559 547.201 388.612C533.989 372.843 521.818 356.496 513.925 337.275C502.893 310.402 498.197 282.201 495.394 253.586C494.462 244.054 493.716 234.506 492.969 224.958C491.628 207.799 490.287 190.641 487.87 173.585C486.05 160.73 483.805 147.949 479.559 135.583C473.322 117.396 460.971 106.064 442.079 101.838C431.145 99.3961 420.203 99.51 409.196 101.456C406.879 101.866 404.651 102.389 402.513 103.027C403.187 103.444 403.858 103.882 404.527 104.343Z" fill="#E2F5FE"/>
<rect x="492.625" y="690.629" width="32.2612" height="58.3184" rx="13.649" fill="#E2F5FE"/>
<path fill-rule="evenodd" clip-rule="evenodd" d="M500.05 693.177C495.641 695.439 492.624 700.031 492.624 705.328V736.348C492.624 743.886 498.735 749.997 506.273 749.997H511.236C516.136 749.997 520.433 747.415 522.841 743.537C503.967 742.188 499.757 715.629 500.05 702.178V693.177Z" fill="#003ECB"/>
<path d="M497.973 662.488C468.429 701.537 457.5 750 431.5 779.089L285 779.089C331.227 714.335 418.956 616.602 442.648 588.861C459.398 569.312 474.439 540.224 494.032 556.987C513.605 573.694 522.848 629.609 497.973 662.488Z" fill="#E2F5FE"/>
<path d="M477.642 595.04C482.733 580.344 479.11 561.202 471.278 563.136C463.446 565.069 440.929 599.39 427.712 615.825C424.834 619.404 431.338 623.3 435.544 625.977C440.982 629.437 447.129 636.611 453.166 630.811C459.204 625.01 472.551 609.735 477.642 595.04Z" fill="#003ECB"/>
</svg>
