<svg width="850" height="850" viewBox="0 0 850 850" fill="none" xmlns="http://www.w3.org/2000/svg">
<rect width="850" height="850" fill="white"/>
<rect x="356.662" y="225.175" width="102.413" height="185.919" fill="black"/>
<rect x="373.993" y="176.332" width="67.7502" height="185.919" fill="black"/>
<rect x="258" y="435.114" width="300" height="255" fill="#003ECB"/>
<ellipse cx="408" cy="433.614" rx="150" ry="150.5" fill="#003ECB"/>
<path fill-rule="evenodd" clip-rule="evenodd" d="M258.247 624.184H258V690.106H557.757V624.184H557.511C553.02 651.754 487.744 673.626 407.879 673.626C328.013 673.626 262.738 651.754 258.247 624.184Z" fill="black"/>
<rect x="258" y="459.114" width="300" height="137" fill="#E2F5FE"/>
<rect x="393.011" y="471.723" width="28.9052" height="111.057" fill="#003ECB"/>
<rect x="462.992" y="512.799" width="28.9052" height="111.057" transform="rotate(90 462.992 512.799)" fill="#003ECB"/>
<path d="M558.338 188.937L589.989 269.291H526.825L558.338 188.937Z" fill="#003ECB"/>
<circle cx="558.337" cy="283.472" r="34.6629" fill="#003ECB"/>
<rect x="326.725" y="159" width="231.611" height="17.3314" fill="black"/>
<path d="M575.667 176.331C575.667 174.055 575.219 171.802 574.348 169.699C573.477 167.596 572.2 165.686 570.591 164.076C568.982 162.467 567.071 161.19 564.968 160.319C562.866 159.448 560.612 159 558.336 159C556.06 159 553.806 159.448 551.703 160.319C549.601 161.19 547.69 162.467 546.081 164.076C544.471 165.686 543.195 167.596 542.324 169.699C541.453 171.802 541.004 174.055 541.004 176.331L558.336 176.331H575.667Z" fill="black"/>
</svg>
