<svg width="850" height="850" viewBox="0 0 850 850" fill="none" xmlns="http://www.w3.org/2000/svg">
<rect width="850" height="850" transform="matrix(-1 0 0 1 850 0)" fill="white"/>
<ellipse cx="469.5" cy="424" rx="271.5" ry="271" fill="#E2F5FE"/>
<ellipse cx="262.019" cy="489.575" rx="41.932" ry="39.0105" transform="rotate(11.8987 262.019 489.575)" fill="black"/>
<ellipse cx="362.306" cy="491.212" rx="36.6046" ry="34.0268" transform="rotate(11.8987 362.306 491.212)" fill="black"/>
<path d="M253.109 526.862C258.365 530.253 362.443 530.581 371.065 524.67C395.977 491.457 382.821 463.044 371.846 458.448C360.872 453.853 277.099 452.183 262.248 450.985C247.396 449.788 247.852 523.471 253.109 526.862Z" fill="black"/>
<ellipse cx="258.414" cy="489.123" rx="32.2095" ry="32.1806" transform="rotate(11.8987 258.414 489.123)" fill="black"/>
<path d="M333.66 499.955C332.739 475.88 312.331 461.172 285.458 453.461C313.586 456.434 377.785 466.86 396 482.193C400.067 485.617 399.217 490.963 398.551 497.262C397.082 511.156 388.309 517.534 374.633 523.956C364.159 528.875 340.497 529.103 328.585 528.558C327.903 529.111 327.343 529.052 327.065 528.481C327.547 528.508 328.054 528.534 328.585 528.558C330.818 526.751 334.365 518.394 333.66 499.955Z" fill="black"/>
<rect x="108.338" y="396.787" width="206.551" height="3.6237" rx="1.81185" transform="rotate(3.5042 108.338 396.787)" fill="black"/>
<path d="M262.089 286.999L731.892 287.001L764.015 438.889C769.078 462.826 751.105 485.459 726.644 485.951L253.382 495.474L262.089 286.999Z" fill="white"/>
<path d="M64 382.889C121.273 391.509 257.091 421 264 421L206.727 372L65.3636 375.63L64 382.889Z" fill="black"/>
<path d="M126.057 472.921C100.936 467.509 83.3311 444.331 90.6377 419.694C101.053 384.574 120.161 348.104 143.02 327.787C175.87 298.589 218.911 283.691 262.675 286.371C306.439 289.051 347.341 309.089 376.382 342.077C402.56 371.812 501.818 426.097 519.167 468.718C522.122 475.975 515.669 482.337 507.834 482.462L257.187 486.467L170.545 482.299C169.725 482.26 168.909 482.153 168.107 481.98L126.057 472.921Z" fill="white"/>
<mask id="mask0_1_855" style="mask-type:alpha" maskUnits="userSpaceOnUse" x="88" y="286" width="431" height="201">
<path d="M124.891 472.921C99.7694 467.509 81.9263 444.164 90.5728 419.965C102.025 387.914 123.148 356.516 150.733 339.164C151.487 338.689 152.205 338.16 152.871 337.569C185.392 308.744 218.19 283.718 261.508 286.371C305.272 289.051 346.174 309.089 375.216 342.077C401.394 371.812 500.651 426.097 518.001 468.718C520.955 475.976 514.502 482.337 506.667 482.462L256.021 486.468L169.378 482.299C168.558 482.26 167.743 482.153 166.94 481.98L124.891 472.921Z" fill="#00C2BA"/>
</mask>
<g mask="url(#mask0_1_855)">
<rect width="158.552" height="52.0632" rx="26.0316" transform="matrix(-0.99813 -0.0611217 -0.0611217 0.99813 266.377 349.741)" fill="#003ECB"/>
</g>
<rect width="51.3358" height="38.6528" rx="19.3264" transform="matrix(-0.999999 -0.00123803 -0.00123803 0.999999 379.079 368.611)" fill="#003ECB"/>
<rect width="50.7319" height="38.6528" rx="19.3264" transform="matrix(-0.999999 -0.00123803 -0.00123803 0.999999 455.778 368.706)" fill="#003ECB"/>
<rect width="51.3358" height="38.6528" rx="19.3264" transform="matrix(-0.999999 -0.00123803 -0.00123803 0.999999 772.854 369.099)" fill="#003ECB"/>
<rect width="51.3358" height="38.6528" rx="19.3264" transform="matrix(-0.999999 -0.00123803 -0.00123803 0.999999 532.481 368.801)" fill="#003ECB"/>
<rect width="51.3358" height="38.6528" rx="19.3264" transform="matrix(-0.999999 -0.00123803 -0.00123803 0.999999 609.183 368.896)" fill="#003ECB"/>
<rect width="51.3358" height="38.6528" rx="19.3264" transform="matrix(-0.999999 -0.00123803 -0.00123803 0.999999 685.885 368.991)" fill="#003ECB"/>
<path d="M266.243 433.382C161.993 432.287 123.173 425.624 94.4676 406L89 422.429C89.7594 425.015 95.0488 429.284 117.25 437.033C147.322 447.53 192.43 448.442 254.396 448.442C301.196 448.442 614.198 453.919 772 444.335V432.926C643.358 438.554 370.493 434.477 266.243 433.382Z" fill="#E2F5FE"/>
<path d="M174.973 474.631C113.626 464.414 96.1699 438.72 88.3126 427C78.0356 459.155 89.7234 480.205 151.1 492.963C224.835 508.289 426.545 494.948 640 487.135L582.646 476.201C369.795 479.607 224.051 482.805 174.973 474.631Z" fill="black"/>
<path d="M258.679 216.667L674.508 632.495" stroke="#003ECB" stroke-width="44"/>
<ellipse cx="577.353" cy="536.52" rx="53.4292" ry="49.7067" transform="rotate(9.36821 577.353 536.52)" fill="#003ECB"/>
<ellipse cx="634.613" cy="532.984" rx="46.6411" ry="43.3565" transform="rotate(9.36821 634.613 532.984)" fill="#003ECB"/>
<path d="M574.252 585.277C579.978 589.107 676.136 580.537 685.35 572.292C711.724 528.04 704.573 491.816 692.658 486.965C680.742 482.114 590.3 487.389 574.253 487.182C558.205 486.976 568.526 581.447 574.252 585.277Z" fill="#003ECB"/>
<ellipse cx="572.739" cy="536.148" rx="41.0409" ry="41.004" transform="rotate(9.36821 572.739 536.148)" fill="black"/>
<path d="M772.866 472.767L772.865 455.466L770.641 471.829L755.565 465.482L568.613 482.513L763.927 521.212L770.641 471.829L772.866 472.767Z" fill="#003ECB"/>
<path d="M552.49 472.083L743.202 503.68L778.33 478.23L716.415 460.929L552.49 472.083Z" fill="white"/>
<path d="M640.051 541.792C638.048 508.113 604.869 491.888 568.903 483.693C563.71 481.711 577.459 477.587 585.747 477.774C617.617 483.237 706.379 494.817 731.891 501.904C737.261 506.033 720.567 527.395 720.074 535.451C718.986 553.22 709.339 562.744 692.292 571.688C678.655 578.843 647.298 581.653 630.086 583.465C634.615 577.425 641.092 559.307 640.051 541.792Z" fill="black"/>
<path d="M555.072 534.375C556.173 522.708 567.449 520.786 572.494 521.018L581.503 521.018C583.416 521.018 590.466 525.395 589.976 534.962C589.315 547.853 582.596 550 580.412 550L571.401 550C565.782 549.653 553.971 546.042 555.072 534.375Z" fill="#E2F5FE"/>
<path fill-rule="evenodd" clip-rule="evenodd" d="M280.211 610.96C383.146 713.895 550.036 713.895 652.97 610.96C755.905 508.026 755.905 341.136 652.97 238.201C550.036 135.266 383.146 135.266 280.211 238.201C265.729 252.683 253.285 268.431 242.878 285.088C214.117 285.839 192.216 297.896 170.166 316.084C185.448 274.249 209.873 235 243.441 201.431C366.683 78.1895 566.498 78.1895 689.74 201.431C812.982 324.673 812.982 524.488 689.74 647.73C566.498 770.972 366.683 770.972 243.441 647.73C199.554 603.843 171.295 550.245 158.665 493.852L158.723 493.865L209.233 498.717L213.576 498.636C225.572 539.759 247.784 578.533 280.211 610.96Z" fill="#003ECB"/>
</svg>
