<svg width="850" height="850" viewBox="0 0 850 850" fill="none" xmlns="http://www.w3.org/2000/svg">
<rect width="850" height="850" fill="white"/>
<path d="M228.908 416.473C195.244 413.284 151.51 431.609 132.81 441.509C125.709 419.464 119.968 407.688 137.722 379.134C158.125 395.782 207.009 396.578 230.266 395.799L228.908 416.473Z" fill="#003ECB"/>
<ellipse cx="132.86" cy="409.755" rx="32.0939" ry="11.7813" transform="rotate(-86.2415 132.86 409.755)" fill="#003ECB"/>
<ellipse cx="130.426" cy="409.595" rx="21.5313" ry="7.71877" transform="rotate(-86.2415 130.426 409.595)" fill="#E2F5FE"/>
<ellipse cx="423.193" cy="431.5" rx="251" ry="250.5" fill="#003ECB"/>
<path d="M289.966 283.924C270.463 252.757 225.731 227.119 204.823 217.522C219.157 196.818 225.527 184.077 261.913 180.525C261.031 209.143 292.662 251.867 308.711 271.428L289.966 283.924Z" fill="#003ECB"/>
<ellipse cx="232.265" cy="196.574" rx="34.8959" ry="12.8099" transform="rotate(-33.6892 232.265 196.574)" fill="#003ECB"/>
<ellipse cx="230.795" cy="194.368" rx="23.4111" ry="8.39268" transform="rotate(-33.6892 230.795 194.368)" fill="#E2F5FE"/>
<path d="M356.76 220.268C347.248 191.758 354.345 150.213 359.167 132.036C338.655 130.308 327.306 127.698 306.141 148.798C324.649 163.126 335.141 205.295 339.13 225.591L356.76 220.268Z" fill="#003ECB"/>
<ellipse rx="28.5259" ry="10.4715" transform="matrix(-0.957329 0.288999 0.288999 0.957329 331.682 138.447)" fill="#003ECB"/>
<ellipse rx="19.1376" ry="6.86066" transform="matrix(-0.957329 0.288999 0.288999 0.957329 331.056 136.373)" fill="#E2F5FE"/>
<path d="M413.315 205.691C423.54 174.066 415.264 128.197 409.744 108.146C432.41 106.023 444.933 103.021 468.555 126.135C448.236 142.17 437.068 188.911 432.865 211.395L413.315 205.691Z" fill="#003ECB"/>
<ellipse cx="440.202" cy="114.952" rx="31.5462" ry="11.5802" transform="rotate(16.2645 440.202 114.952)" fill="#003ECB"/>
<ellipse cx="440.873" cy="112.651" rx="21.1639" ry="7.58706" transform="rotate(16.2645 440.873 112.651)" fill="#E2F5FE"/>
<path d="M511.249 241.797C524.561 211.342 561.166 182.49 578.592 171.138C563.031 154.522 555.646 143.972 522.638 145.616C527.218 171.091 504.592 213.487 492.832 233.106L511.249 241.797Z" fill="#003ECB"/>
<ellipse rx="31.5462" ry="11.5802" transform="matrix(-0.904363 -0.426765 -0.426765 0.904363 551.277 156.04)" fill="#003ECB"/>
<ellipse rx="21.1639" ry="7.58706" transform="matrix(-0.904363 -0.426765 -0.426765 0.904363 552.298 153.873)" fill="#E2F5FE"/>
<path d="M578.186 281.973C597.577 266.611 631.716 260.443 647.135 259.073C642.716 242.716 641.55 233.202 619.283 222.746C613.39 241.088 583.704 261.042 569.12 269.825L578.186 281.973Z" fill="#003ECB"/>
<ellipse rx="23.4803" ry="8.61935" transform="matrix(-0.598098 -0.801423 -0.801423 0.598098 634.461 239.605)" fill="#003ECB"/>
<ellipse rx="15.7526" ry="5.64716" transform="matrix(-0.598098 -0.801423 -0.801423 0.598098 635.892 238.538)" fill="#E2F5FE"/>
<path d="M621.446 355.858C654.318 351.677 692.199 324.762 707.952 311.28C719.476 330.832 727.495 340.86 716.653 371.974C693.569 360.439 646.658 370.177 624.588 375.918L621.446 355.858Z" fill="#003ECB"/>
<ellipse cx="714.722" cy="341.651" rx="31.4509" ry="11.5453" transform="rotate(81.098 714.722 341.651)" fill="#003ECB"/>
<ellipse cx="717.085" cy="341.281" rx="21.1" ry="7.56415" transform="rotate(81.098 717.085 341.281)" fill="#E2F5FE"/>
<path d="M654.57 432.702C675.282 442.435 707.33 440.768 721.505 438.741C720.985 454.406 721.947 463.22 704.107 477.345C694.921 462.074 663.967 450.384 648.976 445.56L654.57 432.702Z" fill="#003ECB"/>
<ellipse cx="714.208" cy="458.954" rx="21.72" ry="7.97316" transform="rotate(113.516 714.208 458.954)" fill="#003ECB"/>
<ellipse cx="715.722" cy="459.611" rx="14.5716" ry="5.22379" transform="rotate(113.516 715.722 459.611)" fill="#E2F5FE"/>
<path d="M604.913 529.1C633.014 548.048 680.294 552.889 701.5 553.142C697.181 575.949 696.587 589.067 667.269 605.687C657.294 581.251 614.649 557.112 593.804 546.646L604.913 529.1Z" fill="#003ECB"/>
<ellipse cx="686.231" cy="581.065" rx="32.1679" ry="11.8085" transform="rotate(122.338 686.231 581.065)" fill="#003ECB"/>
<ellipse cx="688.295" cy="582.37" rx="21.581" ry="7.73658" transform="rotate(122.338 688.295 582.37)" fill="#E2F5FE"/>
<path d="M569.755 589.01C581.877 620.66 575.929 667.814 571.393 688.531C594.587 689.466 607.501 691.847 630.305 667.033C608.748 651.803 594.849 604.812 589.355 582.145L569.755 589.01Z" fill="#003ECB"/>
<ellipse rx="32.1679" ry="11.8085" transform="matrix(0.943781 -0.330571 -0.330571 -0.943781 602.041 679.951)" fill="#003ECB"/>
<ellipse rx="21.581" ry="7.73658" transform="matrix(0.943781 -0.330571 -0.330571 -0.943781 602.848 682.258)" fill="#E2F5FE"/>
<path d="M471.158 628.235C480.705 664.964 468.214 716.696 460.586 739.183C486.279 743.113 500.353 747.37 528.819 722.598C506.728 702.966 497.114 648.945 493.822 623.037L471.158 628.235Z" fill="#003ECB"/>
<ellipse rx="36.019" ry="13.2222" transform="matrix(0.974693 -0.223549 -0.223549 -0.974693 495.758 733.453)" fill="#003ECB"/>
<ellipse rx="24.1647" ry="8.6628" transform="matrix(0.974693 -0.223549 -0.223549 -0.974693 496.368 736.12)" fill="#E2F5FE"/>
<path d="M381.238 648.364C380.726 675.588 362.086 708.912 352.464 722.973C369.455 730.66 378.355 736.324 402.816 724.718C391.352 706.879 395.163 667.696 397.903 649.158L381.238 648.364Z" fill="#003ECB"/>
<ellipse rx="25.8433" ry="9.48677" transform="matrix(0.998866 0.0476108 0.0476108 -0.998866 377.875 725.82)" fill="#003ECB"/>
<ellipse rx="17.3379" ry="6.21547" transform="matrix(0.998866 0.0476108 0.0476108 -0.998866 377.781 727.781)" fill="#E2F5FE"/>
<path d="M234.437 315.384C209.326 307.099 172.795 313.465 156.817 317.761C155.236 299.719 152.907 289.742 171.409 271.059C184.069 287.3 221.201 296.408 239.068 299.858L234.437 315.384Z" fill="#003ECB"/>
<ellipse cx="162.375" cy="293.56" rx="25.0975" ry="9.21302" transform="rotate(-73.3926 162.375 293.56)" fill="#003ECB"/>
<ellipse cx="160.549" cy="293.016" rx="16.8376" ry="6.03612" transform="rotate(-73.3926 160.549 293.016)" fill="#E2F5FE"/>
<path d="M212.054 502.269C186.009 512.479 160.558 542.331 150.447 556.62C136.976 542.994 128.342 536.442 130.793 508.733C152.071 513.41 188.46 495.753 205.34 486.498L212.054 502.269Z" fill="#003ECB"/>
<ellipse cx="138.632" cy="533.157" rx="26.5511" ry="9.74662" transform="rotate(-113.058 138.632 533.157)" fill="#003ECB"/>
<ellipse cx="136.776" cy="533.947" rx="17.8128" ry="6.38572" transform="rotate(-113.058 136.776 533.947)" fill="#E2F5FE"/>
<path d="M253.72 577.615C227.116 598.118 207.781 641.069 200.913 660.932C180.815 649.739 168.664 645.079 162.2 612.312C188.299 610.57 224.334 578.013 240.693 561.682L253.72 577.615Z" fill="#003ECB"/>
<ellipse cx="179.425" cy="637.842" rx="31.8797" ry="11.7027" transform="rotate(-129.272 179.425 637.842)" fill="#003ECB"/>
<ellipse cx="177.551" cy="639.374" rx="21.3877" ry="7.66727" transform="rotate(-129.272 177.551 639.374)" fill="#E2F5FE"/>
<path d="M296.024 634.723C289.336 662.288 262.834 691.949 249.865 704.066C265.4 715.731 273.166 723.507 300.667 717.247C293.052 696.512 305.804 657.534 312.789 639.306L296.024 634.723Z" fill="#003ECB"/>
<ellipse rx="26.9215" ry="9.88258" transform="matrix(0.964606 0.263697 0.263697 -0.964606 275.056 712.72)" fill="#003ECB"/>
<ellipse rx="18.0613" ry="6.47479" transform="matrix(0.964606 0.263697 0.263697 -0.964606 274.516 714.691)" fill="#E2F5FE"/>
<circle cx="346.693" cy="337.5" r="73.5" fill="black"/>
<circle cx="531.193" cy="394" r="46" fill="black"/>
<circle cx="349.693" cy="521.5" r="56.5" fill="black"/>
<circle cx="479.693" cy="511.5" r="22.5" fill="black"/>
<circle cx="436.193" cy="246" r="13" fill="#E2F5FE"/>
<ellipse cx="498.193" cy="290.5" rx="5" ry="5.5" fill="#E2F5FE"/>
<circle cx="316.193" cy="609" r="5" fill="#E2F5FE"/>
<circle cx="219.193" cy="401" r="9" fill="#E2F5FE"/>
<circle cx="284.693" cy="434.5" r="5.5" fill="#E2F5FE"/>
<circle cx="242.193" cy="312" r="8" fill="#E2F5FE"/>
<circle cx="432.193" cy="449" r="14" fill="#E2F5FE"/>
<circle cx="227.193" cy="480" r="13" fill="#E2F5FE"/>
<circle cx="438.193" cy="571" r="11" fill="#E2F5FE"/>
<circle cx="249.693" cy="548.5" r="9.5" fill="#E2F5FE"/>
<ellipse cx="391.193" cy="627.5" rx="13" ry="13.5" fill="#E2F5FE"/>
<circle cx="457.193" cy="361" r="8" fill="#E2F5FE"/>
<ellipse cx="586.693" cy="290" rx="13.5" ry="13" fill="#E2F5FE"/>
<circle cx="608.693" cy="409.5" r="7.5" fill="#E2F5FE"/>
<circle cx="633.193" cy="489" r="11" fill="#E2F5FE"/>
<circle r="6" transform="matrix(1 0 0 -1 560.193 482)" fill="#E2F5FE"/>
<circle cx="560.193" cy="557" r="8" fill="#E2F5FE"/>
<circle cx="502.693" cy="622.5" r="11.5" fill="#E2F5FE"/>
</svg>
