<svg width="512" height="512" viewBox="0 0 512 512" fill="none" xmlns="http://www.w3.org/2000/svg">
<rect x="256" y="35.5557" width="224" height="220.444" fill="#105BFB"/>
<path d="M320.275 126.844L338.368 175.932L319.436 194.331V126.844H320.275Z" fill="#2BB35B"/>
<path d="M512 7.11108L450.933 66.4918H406.504L382.536 132.97L361.478 153.443L330.142 66.4918H285.582V227.225L224.515 286.606V7.11108H512Z" fill="#2BB35B"/>
<path d="M367.969 171.431L361.478 153.443L382.536 132.97L368.677 171.431H367.969Z" fill="#76D765"/>
<path d="M512 7.11108V286.624H224.515V286.606L285.582 227.225H319.436V194.331L338.368 175.932L357.262 227.225H379.253L416.277 126.844H417.098V227.225H450.933V66.4918L512 7.11108Z" fill="#76D765"/>
<path d="M512 286.624V300.073C512 326.97 506.71 353.603 496.432 378.453C486.154 403.302 471.089 425.881 452.097 444.9C433.106 463.919 410.56 479.005 385.746 489.298C360.933 499.591 334.338 504.889 307.48 504.889H0L224.497 286.624H512Z" fill="#5AC662"/>
<path d="M224.515 7.11108V286.624L0 504.889V211.945C-2.2554e-07 157.623 21.547 105.526 59.9015 67.1123C98.2559 28.6989 150.276 7.11604 204.52 7.11108L224.515 7.11108Z" fill="#0DA34E"/>
</svg>
