<svg width="144" height="140" viewBox="0 0 144 140" fill="none" xmlns="http://www.w3.org/2000/svg">
<g clip-path="url(#clip0_1056_7399)">
<rect x="72" y="8" width="63" height="62" fill="#105BFB"/>
<path d="M90.0774 33.6748L95.1659 47.481L89.8413 52.6556V33.6748H90.0774Z" fill="#2BB35B"/>
<path d="M144 0L126.825 16.7008H114.329L107.588 35.398L101.666 41.1558L92.8524 16.7008H80.32V61.907L63.1449 78.6078V0H144Z" fill="#2BB35B"/>
<path d="M103.491 46.2149L101.666 41.1558L107.588 35.3979L103.691 46.2149H103.491Z" fill="#76D765"/>
<path d="M144 0V78.6131H63.1449V78.6078L80.32 61.907H89.8413V52.6556L95.1659 47.481L100.48 61.907H106.665L117.078 33.6748H117.309V61.907H126.825V16.7008L144 0Z" fill="#76D765"/>
<path d="M144 78.613V82.3955C144 89.9603 142.512 97.4509 139.621 104.44C136.731 111.429 132.494 117.779 127.152 123.128C121.811 128.477 115.47 132.72 108.491 135.615C101.512 138.51 94.0325 140 86.4787 140H0L63.1397 78.613H144Z" fill="#5AC662"/>
<path d="M63.1449 0V78.6131L0 140V57.6097C-6.34332e-08 42.3315 6.0601 27.6791 16.8473 16.8753C27.6345 6.07158 42.2652 0.00139323 57.5213 0L63.1449 0Z" fill="#0DA34E"/>
</g>
<defs>
<clipPath id="clip0_1056_7399">
<rect width="144" height="140" fill="white"/>
</clipPath>
</defs>
</svg>
