<svg width="144" height="144" viewBox="0 0 144 144" fill="none" xmlns="http://www.w3.org/2000/svg">
<rect x="72" y="10" width="63" height="62" fill="#105BFB"/>
<path d="M90.0774 35.6748L95.1659 49.481L89.8413 54.6556V35.6748H90.0774Z" fill="#2BB35B"/>
<path d="M144 2L126.825 18.7008H114.329L107.588 37.398L101.666 43.1558L92.8524 18.7008H80.32V63.907L63.1449 80.6078V2H144Z" fill="#2BB35B"/>
<path d="M103.491 48.2149L101.666 43.1558L107.588 37.3979L103.691 48.2149H103.491Z" fill="#76D765"/>
<path d="M144 2V80.6131H63.1449V80.6078L80.32 63.907H89.8413V54.6556L95.1659 49.481L100.48 63.907H106.665L117.078 35.6748H117.309V63.907H126.825V18.7008L144 2Z" fill="#76D765"/>
<path d="M144 80.613V84.3955C144 91.9603 142.512 99.4509 139.621 106.44C136.731 113.429 132.494 119.779 127.152 125.128C121.811 130.477 115.47 134.72 108.491 137.615C101.512 140.51 94.0325 142 86.4787 142H0L63.1397 80.613H144Z" fill="#5AC662"/>
<path d="M63.1449 2V80.6131L0 142V59.6097C-6.34332e-08 44.3315 6.0601 29.6791 16.8473 18.8753C27.6345 8.07158 42.2652 2.00139 57.5213 2L63.1449 2Z" fill="#0DA34E"/>
</svg>
